<svg id="Layer_1" data-name="Layer 1" xmlns="http://www.w3.org/2000/svg" viewBox="0 0 438.19 478.78"><defs><style>.cls-1{fill:#535e7c;}.cls-2{fill:#b5dde5;}</style></defs><path class="cls-1" d="M348.17,437.15v56.4l-136.89,2.07v8.25H95l.68-59.16H57.19V338.78h28.2l2.07-64.67H192.71l-3.44-138.26H64.76V40.23l128-4.13,1.37,6.19,102.5-4.12.69-13.07H495.38v98.36l-198.8,2.76L298.64,261l-22,.69.69,24.77h68.79l2.06,61.22s50.75-2.75,51.59,45.4S348.17,437.15,348.17,437.15Z" transform="translate(-57.19 -25.1)"/><path class="cls-1" d="M399.76,393.12" transform="translate(-57.19 -25.1)"/><rect class="cls-2" x="19.26" y="26.14" width="44.71" height="12.38"/><rect class="cls-2" x="74.98" y="26.14" width="44.71" height="12.38"/><rect class="cls-2" x="19.26" y="47.81" width="44.71" height="12.38"/><rect class="cls-2" x="74.98" y="47.81" width="44.71" height="12.38"/><rect class="cls-2" x="19.26" y="69.48" width="44.71" height="12.38"/><rect class="cls-2" x="74.98" y="69.48" width="44.71" height="12.38"/><rect class="cls-2" x="19.26" y="91.15" width="44.71" height="12.38"/><rect class="cls-2" x="74.98" y="91.15" width="44.71" height="12.38"/><rect class="cls-2" x="219.44" y="114.88" width="13.07" height="47.46"/><rect class="cls-2" x="219.44" y="169.91" width="13.07" height="47.46"/><rect class="cls-2" x="196.05" y="169.91" width="13.07" height="47.46"/><rect class="cls-2" x="196.05" y="114.88" width="13.07" height="47.46"/><rect class="cls-2" x="173.35" y="169.91" width="13.07" height="47.46"/><rect class="cls-2" x="173.35" y="114.88" width="13.07" height="47.46"/><rect class="cls-2" x="150.65" y="169.91" width="13.07" height="47.46"/><rect class="cls-2" x="150.65" y="114.88" width="13.07" height="47.46"/><rect class="cls-2" x="224.81" y="351.52" width="70.3" height="28.2"/></svg>