<svg id="Layer_1" data-name="Layer 1" xmlns="http://www.w3.org/2000/svg" viewBox="0 0 795 422"><defs><style>.cls-1{fill:#39405c;}.cls-2{fill:#6f87a3;}.cls-3{fill:#a7a5aa;}.cls-4{fill:none;stroke:#000;stroke-miterlimit:10;}</style></defs><polygon class="cls-1" points="0 19 0 46 0 399 49 399 217 399 217 375 275 376 275 417 379 417 379 291 414 291 414 422 742 422 742 404 795 403 795 78 754 79 754 63 795 24 734 19 731 0 414 6 421 116 380 116 376 7 266 8 266 83 213 84 212 16 0 19"/><rect class="cls-2" x="523" y="133" width="162" height="162"/><polygon class="cls-3" points="578 183 604 178 631 183 631 238 604.5 243 578 238 578 183"/><polygon class="cls-4" points="213 170 213 265 276 265 284 258 284 170 213 170"/></svg>