<svg xmlns="http://www.w3.org/2000/svg" viewBox="0 0 267.35 357"><defs><style>.cls-1{fill:#cbd2da;}.cls-2{fill:#3f4a5c;}.cls-3{fill:#5b6475;stroke:#fff;stroke-miterlimit:10;}</style></defs><g id="Layer_2" data-name="Layer 2"><rect class="cls-1" width="267.35" height="357"/><polygon class="cls-2" points="34.5 22.5 34.5 56.19 0 56.19 0 262.56 34.5 262.56 34.5 295.12 234.5 297.5 234.5 262.5 267.35 261.65 267.35 57.11 231.5 56.5 232.5 25.5 200.5 25.5 200.86 0 64.65 0 64.5 23.5 34.5 22.5"/><polygon class="cls-3" points="42.5 284.5 224.7 284.5 224.7 250.64 255.89 250.64 255.89 63.53 224.25 63.53 224.5 31.5 190.77 31.5 191.5 4.5 74.28 4.5 73.5 30.5 42.5 30.51 42.5 63.99 9.5 63.5 9.5 250.64 42.5 251.5 42.5 284.5"/></g></svg>