<svg xmlns="http://www.w3.org/2000/svg" viewBox="0 0 491 394"><defs><style>.cls-1{fill:#373b58;}.cls-2{fill:#71708f;}.cls-3{fill:#c2c6d2;}.cls-4{fill:#bfd2f0;}.cls-5{fill:#556598;}</style></defs><g id="Layer_1" data-name="Layer 1"><polygon class="cls-1" points="115 394 6 394 6 292 20 292 15 112 0 112 0 8 110 8 109 19 379 13 379 0 486 0 491 99 477 99 482 280 491 280 491 382 387 386 387 373 116 380 115 394"/><path class="cls-2" d="M164,134c2,63,5,250,5,250l360-5-6-254-138,3v55l-85,1-1-53Z" transform="translate(-99 -72)"/><polygon class="cls-3" points="113 132.25 113 245.25 380 245.25 380 128.25 113 132.25"/><rect class="cls-4" x="26.98" y="332.31" width="66.04" height="13.07"/><rect class="cls-4" x="26.98" y="315.62" width="66.04" height="13.07"/><rect class="cls-4" x="26.98" y="348.99" width="66.04" height="13.07"/><rect class="cls-4" x="26.98" y="365.68" width="66.04" height="13.07"/><rect class="cls-4" x="404.98" y="327.83" width="66.04" height="13.07"/><rect class="cls-4" x="404.98" y="311.15" width="66.04" height="13.07"/><rect class="cls-4" x="404.98" y="344.52" width="66.04" height="13.07"/><rect class="cls-4" x="404.98" y="361.21" width="66.04" height="13.07"/><polygon class="cls-5" points="100.59 317.68 100.59 361.21 225.78 361.21 225.78 315.62 100.59 317.68"/><rect class="cls-5" x="328.28" y="312" width="70.17" height="43.53"/></g></svg>