<svg id="Layer_1" data-name="Layer 1" xmlns="http://www.w3.org/2000/svg" viewBox="0 0 475 705"><defs><style>.cls-1{fill:#3d4461;}.cls-2{fill:#e9eef1;}.cls-3{fill:#2d3248;}.cls-4{fill:#86868e;}.cls-5{fill:#3c405d;}.cls-6{fill:#a59387;}</style></defs><path class="cls-1" d="M112,14V715H216V605h19v69l188-3V612h21V715h97V10H431l1,40L240,54l1,14H207l-1-58Z" transform="translate(-66 -10)"/><polygon class="cls-2" points="151 220 110 220 110 228 46 228 46 188 0 188 8 451 54 451 55 427 112 426 112 432 159 433 159 219 151 220"/><polygon class="cls-3" points="108 239 44 239 49 410 117 410 117 427 35 427 30 229 111 229 108 239"/><rect class="cls-4" x="178" y="174" width="143" height="124"/><rect class="cls-5" x="220" y="198" width="16" height="15" rx="7.5"/><rect class="cls-5" x="263.5" y="198" width="16" height="15" rx="7.5"/><rect class="cls-5" x="263.5" y="243" width="16" height="15" rx="7.5"/><rect class="cls-5" x="220" y="243" width="16" height="15" rx="7.5"/><polyline class="cls-6" points="292.25 558 266.75 558 266.75 590 292.25 590"/></svg>