<svg id="Layer_1" data-name="Layer 1" xmlns="http://www.w3.org/2000/svg" viewBox="0 0 284.41 595.12"><defs><style>.cls-1{fill:#8f9bb3;}.cls-2{fill:#636571;}.cls-3{fill:#98a8bf;}.cls-4{fill:#4f576c;}.cls-5{fill:#bb7a82;}.cls-6{fill:#323852;}</style></defs><polygon class="cls-1" points="71.85 19.35 1 19.35 1 152.12 18.89 152.12 18.2 250.48 1 250.48 1 380.5 75.29 380.5 75.29 391.5 96.62 391.5 96.62 434.15 11.32 434.15 13.38 584.12 74.61 584.12 75.29 595.12 221.81 592.37 221.81 582.05 284.41 582.05 284.41 430.71 197.74 431.4 197.05 390.81 213.56 390.13 213.56 376.37 284.41 377.75 284.41 247.04 269.97 247.04 267.9 149.36 284.41 148.68 284.41 19.35 217.15 19.35 216.69 6.28 71.17 6.28 71.85 19.35"/><polygon class="cls-2" points="0 380.5 139.72 255.99 137.58 123.3 0 19.35 0 152.12 17.89 152.12 17.2 250.48 0 250.48 0 380.5"/><polygon class="cls-3" points="284.41 19.35 147.06 123.3 148.89 255.99 284.41 377.75 284.41 247.04 269.97 247.04 267.9 149.36 284.41 148.68 284.41 19.35"/><polygon class="cls-4" points="0 19.35 71.85 19.35 71.17 6.28 216.69 6.28 217.15 19.35 284.41 19.35 147.06 123.3 137.58 123.3 0 19.35"/><polygon class="cls-4" points="11.32 434.15 85.99 495.61 206.34 493.4 284.41 430.71 11.32 434.15"/><polyline class="cls-2" points="13.38 584.12 85.99 508.22 85.99 495.61 13.38 435.85 12.38 581.59"/><polyline class="cls-5" points="85.99 355.55 85.99 381.87 103.87 381.87 103.87 355.55"/><polyline class="cls-5" points="186.42 355.55 186.42 381.87 204.31 381.87 204.31 355.55"/><polyline class="cls-5" points="183.67 0 183.67 26.32 201.55 26.32 201.55 0"/><polyline class="cls-5" points="85.99 0 85.99 26.32 103.87 26.32 103.87 0"/><polygon class="cls-6" points="78.88 189.64 58.7 189.64 58.7 186.89 49.83 186.89 49.83 198.51 59.01 198.51 59.01 196.98 78.88 196.98 78.88 189.64"/><polygon class="cls-6" points="208.74 196.49 228.92 195.98 228.99 198.73 237.85 198.51 237.56 186.89 228.39 187.12 228.43 188.65 208.56 189.15 208.74 196.49"/><polygon class="cls-6" points="204.31 309.45 214.4 309.45 214.4 311.55 218.83 311.55 218.83 302.69 214.24 302.69 214.24 303.85 204.31 303.85 204.31 309.45"/><polygon class="cls-6" points="201.3 80.69 211.39 80.69 211.39 82.79 215.82 82.79 215.82 73.92 211.24 73.92 211.23 75.09 201.3 75.09 201.3 80.69"/><polygon class="cls-6" points="137.58 123.3 139.72 255.99 148.89 255.99 147.06 123.3 137.58 123.3"/><polygon class="cls-6" points="206.34 493.4 85.99 495.61 85.99 504.83 206.34 502.93 206.34 493.4"/><polygon class="cls-6" points="84.28 75.9 74.19 76 74.17 73.9 69.74 73.95 69.83 82.81 74.41 82.77 74.4 81.6 84.34 81.5 84.28 75.9"/><polygon class="cls-6" points="83.47 306.32 74.65 306.32 74.65 304.29 70.78 304.29 70.78 312.85 74.78 312.85 74.78 311.73 83.47 311.73 83.47 306.32"/><polygon class="cls-3" points="206.34 502.93 206.34 493.4 284.41 430.71 284.41 582.05 206.34 502.93"/></svg>