<svg xmlns="http://www.w3.org/2000/svg" viewBox="0 0 411.36 653.5"><defs><style>.cls-1{fill:#d48c9a;}.cls-2{fill:#414560;}.cls-3{fill:#b7bbc7;}</style></defs><g id="Layer_1" data-name="Layer 1"><path class="cls-1" d="M158.78,96.48l-32.33.69v28.21H89.3L97.55,658.5h42V686h33v31.65L275,721.1V689.45h48.84l2.75,31.65H428.43V681.89l32.33-1.38V656.43l39.9-1.37L493.1,187.29H458l-2.75-31.65-33.71.69-.68-24.76-32.33-1.38V96.48h-31L356.2,67.59h-64l-.69,33.71-63.29-1.38-.68-29.58H160.15Z" transform="translate(-89.3 -67.59)"/><path class="cls-2" d="M165.66,128.82v31.64H127.13V282.22l5.51,338.44h38.52v31.65h34.39v35.08h33V653l121.76-1.37V684l35.08-.69v-33l32.34-.69V620l37.83-.68-6.19-406.55-38.52-.69-1.38-29.58H389.22L387.85,155l-32.33.68V126.06Z" transform="translate(-89.3 -67.59)"/><path class="cls-3" d="M231.69,135.69l.69,19.27h19.26V135.69Z" transform="translate(-89.3 -67.59)"/><rect class="cls-3" x="176.1" y="68.1" width="21.32" height="16.51"/></g></svg>