<svg id="Layer_1" data-name="Layer 1" xmlns="http://www.w3.org/2000/svg" viewBox="0 0 249.5 644.91"><defs><style>.cls-1{fill:#3e3b4c;}.cls-2{fill:#ac6d75;}.cls-3{fill:#555869;}.cls-4{fill:#c28278;}.cls-5{fill:#ca7d77;}.cls-6{fill:#ad5553;}.cls-7{fill:#c96565;}.cls-8{fill:#a3a1a6;}.cls-9{fill:#57617a;}</style></defs><path class="cls-1" d="M213.32,39.5H273a2.78,2.78,0,0,1,2.78,2.78V173.05a2.79,2.79,0,0,1-2.78,2.78H109.64a2.78,2.78,0,0,0-2.7,3.43l6.4,26.57a2.89,2.89,0,0,1,0,1.34L107,232a2.78,2.78,0,0,0,2.69,3.47h8.82a2.77,2.77,0,0,1,2.78,2.73l.17,10.58a2.78,2.78,0,0,0,2.78,2.74h10.7a2.78,2.78,0,0,0,2.78-2.82l-.18-11.38a2.78,2.78,0,0,1,2.76-2.82l144.4-1a2.78,2.78,0,0,1,2.8,2.78v67a2.77,2.77,0,0,1-2.78,2.78H280.9a2.77,2.77,0,0,0-2.78,2.81l1.35,139.87a2.79,2.79,0,0,0,2.78,2.75h2.47a2.77,2.77,0,0,1,2.78,2.78V624.74a2.73,2.73,0,0,0,.61,1.73l4.78,6a2.77,2.77,0,0,1-.29,3.77l-48.23,44.52a2.77,2.77,0,0,1-3.75,0l-8.31-7.55a2.74,2.74,0,0,0-1.91-.72L90.32,674.46a2.78,2.78,0,0,1-2.82-2.78V608.76A2.78,2.78,0,0,1,90.27,606l89.07-.47a2.77,2.77,0,0,1,2,.81l4.37,4.37a2.76,2.76,0,0,0,2,.81h14.7a2.76,2.76,0,0,0,2-.81l16.26-16.26a2.78,2.78,0,0,0,.8-2.24l-.76-7.54a2.77,2.77,0,0,0-1-1.88l-9.12-7.46a2.74,2.74,0,0,1-1-2.1l-1.93-102a2.78,2.78,0,0,0-2.78-2.73H145.25a2.79,2.79,0,0,1-2.78-2.75l-.94-95.44a2.77,2.77,0,0,1,2.78-2.81h40.41a2.77,2.77,0,0,1,2.78,2.78v13.44a2.77,2.77,0,0,0,2.78,2.78h12.4a2.78,2.78,0,0,0,2.78-2.82l-.93-73.47a2.77,2.77,0,0,0-2.74-2.75l-63.55-.92a2.78,2.78,0,0,1-2.74-2.78V275.28a2.77,2.77,0,0,0-2.78-2.78H117.33a2.79,2.79,0,0,0-2.78,2.83l1.6,82.84a2.78,2.78,0,0,1-2.78,2.83H49.73A2.78,2.78,0,0,1,47,358.22l-.45-300a2.78,2.78,0,0,1,2.74-2.78l58.48-.92a2.79,2.79,0,0,1,2.83,2.74l.9,54.46a2.78,2.78,0,0,0,2.81,2.73l94.45-.94a2.78,2.78,0,0,0,2.75-2.82l-.92-68.39A2.78,2.78,0,0,1,213.32,39.5Z" transform="translate(-46.5 -39.5)"/><polygon class="cls-2" points="168.5 5.5 219.5 5.5 221.5 128.5 81.62 128.5 81.62 80.84 169.5 80.5 168.5 5.5"/><polygon class="cls-3" points="184.5 19.5 204.99 19.5 206.5 112.5 99.5 112.5 99.5 90.93 185.5 90.5 184.5 19.5"/><polygon class="cls-4" points="243.5 190.5 204.5 228.5 243.5 268.5 243.5 190.5"/><polygon class="cls-5" points="204.5 228.5 124.27 228.5 88.5 268.5 155.29 268.5 232.04 268.5 243.5 268.5 204.5 228.5"/><polygon class="cls-6" points="124.27 228.5 90.5 190.5 88.5 268.5 124.27 228.5"/><polygon class="cls-4" points="195.36 268.5 232.04 268.5 235.75 412 241.67 412.5 241.5 591.5 202.5 556.5 195.36 268.5"/><polygon class="cls-4" points="158.96 344.19 141 344.22 141 327.11 94.5 327.5 94.5 430.75 161.05 431.73 158.96 344.19"/><polygon class="cls-7" points="161.5 344.5 160.45 393.14 94.5 393.14 92.63 327.11 141 327.11 141 344.22 161.5 344.5"/><polygon class="cls-6" points="162.5 533.5 158.21 268.5 195.36 268.5 202.5 556.5 174.06 554.93 173.1 543.27 162.5 533.5"/><polygon class="cls-6" points="93.12 344.5 141 344.22 141 327.11 92.63 327.11 93.12 344.5"/><polygon class="cls-7" points="174.06 554.93 155.84 572 174.06 595.38 170.5 616.5 195.36 644.91 249.5 593.5 202.5 556.5 174.06 554.93"/><polygon class="cls-4" points="249.5 593.5 195.36 591.5 195.36 644.91 249.5 593.5"/><polygon class="cls-7" points="195.36 644.91 195.36 591.5 155.84 572 174.06 595.38 170.5 616.5 195.36 644.91"/><polygon class="cls-6" points="195.36 591.5 190.67 555.85 174.06 554.93 155.84 572 195.36 591.5"/><polygon class="cls-4" points="189.5 635.5 38.5 635.5 38.5 565.12 134.82 566.82 141.15 572 155.84 572 174.06 595.38 170.5 616.5 189.5 635.5"/><polygon class="cls-7" points="90.5 190.5 243.5 190.5 204.5 228.5 124.27 228.5 90.5 190.5"/><polygon class="cls-7" points="38.5 635.5 67.86 599.92 38.5 565.12 38.5 635.5"/><polygon class="cls-6" points="38.5 565.12 134.82 566.82 141.15 572 155.84 572 174.06 595.38 173.23 600.31 67.86 599.92 38.5 565.12"/><polygon class="cls-8" points="61.22 15.04 65.11 15.04 64.95 72.24 65.11 136.33 60.44 139.76 66.83 167.67 60.49 192.48 63.19 195.95 74.74 195.95 74.95 209.26 88.5 209.5 89 235.78 68.05 235.83 70.62 321 0 321 0 15.04 61.22 15.04"/><polygon class="cls-9" points="66.83 167.67 60.44 139.76 68.5 136.5 66.5 85.5 25.22 85.42 28.43 248.5 68.43 248.5 68.05 235.83 89 235.78 90.5 209.5 74.95 209.26 74.74 195.95 63.19 195.95 60.49 192.48 66.83 167.67"/></svg>