<svg xmlns="http://www.w3.org/2000/svg" viewBox="0 0 642.5 645.5"><defs><style>.cls-1{fill:#eae6d8;}.cls-2,.cls-4{fill:#afd375;}.cls-3{fill:none;}.cls-3,.cls-4{stroke:#bfe089;stroke-miterlimit:10;stroke-width:2px;}</style></defs><g id="Layer_2" data-name="Layer 2"><rect class="cls-1" width="642.5" height="645.5"/></g><g id="Layer_1" data-name="Layer 1"><path class="cls-2" d="M47.8,49.06c-2.37-1.41-3.56-.44-2.65,2.16L56.69,84.28c.91,2.6,3.28,3.17,5.27,1.27l14.5-13.84a3.61,3.61,0,0,0-.68-6Z" transform="translate(-0.5 -0.5)"/><path class="cls-3" d="M47.8,49.06c-2.37-1.41-3.56-.44-2.65,2.16L56.69,84.28c.91,2.6,3.28,3.17,5.27,1.27l14.5-13.84a3.61,3.61,0,0,0-.68-6Z" transform="translate(-0.5 -0.5)"/><path class="cls-2" d="M66.27,91.22a12.1,12.1,0,0,0-3.65,8.28l.76,33A9,9,0,0,0,68,139.66l14,6.68a4.25,4.25,0,0,0,6-2.6L104,94.26a7.53,7.53,0,0,0-2.47-7.76l-12-9a6.48,6.48,0,0,0-7.77.28Z" transform="translate(-0.5 -0.5)"/><path class="cls-3" d="M66.27,91.22a12.1,12.1,0,0,0-3.65,8.28l.76,33A9,9,0,0,0,68,139.66l14,6.68a4.25,4.25,0,0,0,6-2.6L104,94.26a7.53,7.53,0,0,0-2.47-7.76l-12-9a6.48,6.48,0,0,0-7.77.28Z" transform="translate(-0.5 -0.5)"/><path class="cls-2" d="M35,123c-2.5-1.15-2.83-3.56-.74-5.34L50,104.25c2.09-1.79,3.92-1,4.08,1.74l1.23,21.52c.16,2.74-1.75,4-4.25,2.9Z" transform="translate(-0.5 -0.5)"/><path class="cls-3" d="M35,123c-2.5-1.15-2.83-3.56-.74-5.34L50,104.25c2.09-1.79,3.92-1,4.08,1.74l1.23,21.52c.16,2.74-1.75,4-4.25,2.9Z" transform="translate(-0.5 -0.5)"/><path class="cls-2" d="M116.8,98a4,4,0,0,0-6,2.17L94.18,146.79a5.34,5.34,0,0,0,2.94,6.63l26.76,11.16a9,9,0,0,0,8.44-1.31l18.36-15.54a14,14,0,0,0,4.25-8.21l1.14-13A8.7,8.7,0,0,0,152.2,119Z" transform="translate(-0.5 -0.5)"/><path class="cls-3" d="M116.8,98a4,4,0,0,0-6,2.17L94.18,146.79a5.34,5.34,0,0,0,2.94,6.63l26.76,11.16a9,9,0,0,0,8.44-1.31l18.36-15.54a14,14,0,0,0,4.25-8.21l1.14-13A8.7,8.7,0,0,0,152.2,119Z" transform="translate(-0.5 -0.5)"/><path class="cls-2" d="M91.1,158.47A5.29,5.29,0,0,0,84.33,161l-8.66,18c-1.19,2.48.08,4.44,2.83,4.36l24-.7a5.2,5.2,0,0,0,5-5.15v-7a8.24,8.24,0,0,0-4.6-7Z" transform="translate(-0.5 -0.5)"/><path class="cls-3" d="M91.1,158.47A5.29,5.29,0,0,0,84.33,161l-8.66,18c-1.19,2.48.08,4.44,2.83,4.36l24-.7a5.2,5.2,0,0,0,5-5.15v-7a8.24,8.24,0,0,0-4.6-7Z" transform="translate(-0.5 -0.5)"/><path class="cls-2" d="M256.71,190.34l36.53,42.37a5.23,5.23,0,0,0,7.16.67l7.2-5.76a11.7,11.7,0,0,0,3.87-8.12l-.17-28a8.74,8.74,0,0,0-8.8-8.93l-41,.29C257.56,182.71,254.27,187.25,256.71,190.34Z" transform="translate(-0.5 -0.5)"/><path class="cls-3" d="M256.71,190.34l36.53,42.37a5.23,5.23,0,0,0,7.16.67l7.2-5.76a11.7,11.7,0,0,0,3.87-8.12l-.17-28a8.74,8.74,0,0,0-8.8-8.93l-41,.29C257.56,182.71,254.27,187.25,256.71,190.34Z" transform="translate(-0.5 -0.5)"/><path class="cls-2" d="M234.76,197.14l1.65,88.36c.05,2.75,1.81,3.54,3.9,1.76l45.38-38.52a4.74,4.74,0,0,0,.39-6.89l-44.07-47C239.06,191.6,234.67,192.76,234.76,197.14Z" transform="translate(-0.5 -0.5)"/><path class="cls-3" d="M234.76,197.14l1.65,88.36c.05,2.75,1.81,3.54,3.9,1.76l45.38-38.52a4.74,4.74,0,0,0,.39-6.89l-44.07-47C239.06,191.6,234.67,192.76,234.76,197.14Z" transform="translate(-0.5 -0.5)"/><path class="cls-2" d="M299.6,252.42a4.64,4.64,0,0,0-6.81-.57l-53.58,48.3a12.88,12.88,0,0,0-3.71,8.35v9a4.73,4.73,0,0,0,5,4.76l50.37-2.47c12-1.33,18.38-10,19.4-22l1-25.31a15.66,15.66,0,0,0-2.9-8.92Z" transform="translate(-0.5 -0.5)"/><path class="cls-3" d="M299.6,252.42a4.64,4.64,0,0,0-6.81-.57l-53.58,48.3a12.88,12.88,0,0,0-3.71,8.35v9a4.73,4.73,0,0,0,5,4.76l50.37-2.47c12-1.33,18.38-10,19.4-22l1-25.31a15.66,15.66,0,0,0-2.9-8.92Z" transform="translate(-0.5 -0.5)"/><path class="cls-2" d="M16.5,345.5a5,5,0,0,1,5-5h32a5,5,0,0,1,5,5v52.1a19.52,19.52,0,0,1-2.77,9.16L44.27,424a10.94,10.94,0,0,1-7.77,4.33l-15,.5a4.82,4.82,0,0,1-5-4.84Z" transform="translate(-0.5 -0.5)"/><path class="cls-3" d="M16.5,345.5a5,5,0,0,1,5-5h32a5,5,0,0,1,5,5v52.1a19.52,19.52,0,0,1-2.77,9.16L44.27,424a10.94,10.94,0,0,1-7.77,4.33l-15,.5a4.82,4.82,0,0,1-5-4.84Z" transform="translate(-0.5 -0.5)"/><path class="cls-2" d="M19.57,440.5a5.59,5.59,0,0,1,4.9-5.52l9.06-1a12.81,12.81,0,0,1,8.67,2.84l14.6,13.28a12.24,12.24,0,0,1,3.51,8.36l-.62,16a12.13,12.13,0,0,1-4.15,8.05l-31.08,23.9c-2.18,1.68-4,.8-4-1.95Z" transform="translate(-0.5 -0.5)"/><path class="cls-3" d="M19.57,440.5a5.59,5.59,0,0,1,4.9-5.52l9.06-1a12.81,12.81,0,0,1,8.67,2.84l14.6,13.28a12.24,12.24,0,0,1,3.51,8.36l-.62,16a12.13,12.13,0,0,1-4.15,8.05l-31.08,23.9c-2.18,1.68-4,.8-4-1.95Z" transform="translate(-0.5 -0.5)"/><path class="cls-2" d="M17.5,524.5a10.22,10.22,0,0,1,4.21-7.7l30.58-19.6c2.32-1.49,4.21-.45,4.21,2.3v58a5,5,0,0,1-5,5h-29a5,5,0,0,1-5-5Z" transform="translate(-0.5 -0.5)"/><path class="cls-3" d="M17.5,524.5a10.22,10.22,0,0,1,4.21-7.7l30.58-19.6c2.32-1.49,4.21-.45,4.21,2.3v58a5,5,0,0,1-5,5h-29a5,5,0,0,1-5-5Z" transform="translate(-0.5 -0.5)"/><path class="cls-2" d="M20.5,576.5a5,5,0,0,1,5-5h29a3.34,3.34,0,0,1,3.36,4.72l-4.72,13.56a8.87,8.87,0,0,1-6.6,5.36l-21.08,2.72a4.29,4.29,0,0,1-5-4.36Z" transform="translate(-0.5 -0.5)"/><path class="cls-3" d="M20.5,576.5a5,5,0,0,1,5-5h29a3.34,3.34,0,0,1,3.36,4.72l-4.72,13.56a8.87,8.87,0,0,1-6.6,5.36l-21.08,2.72a4.29,4.29,0,0,1-5-4.36Z" transform="translate(-0.5 -0.5)"/><path class="cls-2" d="M327.43,28.59a3.3,3.3,0,0,1,0,5.76l-4.78,3.3c-2.26,1.57-4.23.6-4.37-2.14l-.48-9c-.14-2.74,1.57-3.68,3.81-2.08Z" transform="translate(-0.5 -0.5)"/><path class="cls-3" d="M327.43,28.59a3.3,3.3,0,0,1,0,5.76l-4.78,3.3c-2.26,1.57-4.23.6-4.37-2.14l-.48-9c-.14-2.74,1.57-3.68,3.81-2.08Z" transform="translate(-0.5 -0.5)"/><path class="cls-2" d="M430.51,177.27a8,8,0,0,1,7.09,4.27l1.8,3.92a6.85,6.85,0,0,1-1.75,7.73l-51.3,42.62a6.62,6.62,0,0,1-7.83.16l-13-9.94a11.84,11.84,0,0,1-4.1-8l-.76-32a5.2,5.2,0,0,1,4.87-5.27Z" transform="translate(-0.5 -0.5)"/><path class="cls-3" d="M430.51,177.27a8,8,0,0,1,7.09,4.27l1.8,3.92a6.85,6.85,0,0,1-1.75,7.73l-51.3,42.62a6.62,6.62,0,0,1-7.83.16l-13-9.94a11.84,11.84,0,0,1-4.1-8l-.76-32a5.2,5.2,0,0,1,4.87-5.27Z" transform="translate(-0.5 -0.5)"/><path class="cls-2" d="M463.53,186c-2.22,1.64-2.13,4.18.19,5.65l24.56,15.64c2.32,1.47,4.06.44,3.86-2.31l-1.28-18a10.64,10.64,0,0,0-4.68-7.51l-3.36-2a8.25,8.25,0,0,0-8.35.45Z" transform="translate(-0.5 -0.5)"/><path class="cls-3" d="M463.53,186c-2.22,1.64-2.13,4.18.19,5.65l24.56,15.64c2.32,1.47,4.06.44,3.86-2.31l-1.28-18a10.64,10.64,0,0,0-4.68-7.51l-3.36-2a8.25,8.25,0,0,0-8.35.45Z" transform="translate(-0.5 -0.5)"/><path class="cls-2" d="M427.54,272.06a3.76,3.76,0,0,0-.24,6.18l60.4,51.52c2.09,1.78,3.76,1,3.71-1.76l-1.82-96c0-2.75-1.91-3.68-4.13-2.06Z" transform="translate(-0.5 -0.5)"/><path class="cls-3" d="M427.54,272.06a3.76,3.76,0,0,0-.24,6.18l60.4,51.52c2.09,1.78,3.76,1,3.71-1.76l-1.82-96c0-2.75-1.91-3.68-4.13-2.06Z" transform="translate(-0.5 -0.5)"/><path class="cls-2" d="M391.88,242.84a4,4,0,0,0-.08,6.41l20.4,17.5a6.75,6.75,0,0,0,7.87.35l64.86-46.2a3.29,3.29,0,0,0,0-5.75l-27.78-19.3a7.06,7.06,0,0,0-8,.31Z" transform="translate(-0.5 -0.5)"/><path class="cls-3" d="M391.88,242.84a4,4,0,0,0-.08,6.41l20.4,17.5a6.75,6.75,0,0,0,7.87.35l64.86-46.2a3.29,3.29,0,0,0,0-5.75l-27.78-19.3a7.06,7.06,0,0,0-8,.31Z" transform="translate(-0.5 -0.5)"/><path class="cls-2" d="M376,308.05a4.94,4.94,0,0,0-1,6.95l3,4a15.26,15.26,0,0,0,7.9,5l95.7,19.5a32.11,32.11,0,0,0,7.29.74h0c1.16.08,2.75-1.35,1.88-2.11L420.3,281.75a6.65,6.65,0,0,0-7.84-.3Z" transform="translate(-0.5 -0.5)"/><path class="cls-3" d="M376,308.05a4.94,4.94,0,0,0-1,6.95l3,4a15.26,15.26,0,0,0,7.9,5l95.7,19.5a32.11,32.11,0,0,0,7.29.74h0c1.16.08,2.75-1.35,1.88-2.11L420.3,281.75a6.65,6.65,0,0,0-7.84-.3Z" transform="translate(-0.5 -0.5)"/><path class="cls-2" d="M369,304.05c-2.22,1.62-4.15.7-4.28-2l-1.52-31a11.05,11.05,0,0,1,3.66-8.11l12.2-9.76a6,6,0,0,1,7.57.27l19.16,17.72a4,4,0,0,1-.37,6.34Z" transform="translate(-0.5 -0.5)"/><path class="cls-3" d="M369,304.05c-2.22,1.62-4.15.7-4.28-2l-1.52-31a11.05,11.05,0,0,1,3.66-8.11l12.2-9.76a6,6,0,0,1,7.57.27l19.16,17.72a4,4,0,0,1-.37,6.34Z" transform="translate(-0.5 -0.5)"/><path class="cls-2" d="M361.28,250c.12,2.75,2,3.67,4.25,2l6.94-5.08a3.51,3.51,0,0,0,0-6l-8-6c-2.2-1.65-3.9-.75-3.78,2Z" transform="translate(-0.5 -0.5)"/><path class="cls-3" d="M361.28,250c.12,2.75,2,3.67,4.25,2l6.94-5.08a3.51,3.51,0,0,0,0-6l-8-6c-2.2-1.65-3.9-.75-3.78,2Z" transform="translate(-0.5 -0.5)"/><path class="cls-2" d="M402,342.14l43.74,45.24a5.57,5.57,0,0,0,7.86.39L486.1,359.1c3.43-3.1,4.8-5.79.25-6.61l-80.22-17.58C400.9,334,398.45,338.2,402,342.14Z" transform="translate(-0.5 -0.5)"/><path class="cls-3" d="M402,342.14l43.74,45.24a5.57,5.57,0,0,0,7.86.39L486.1,359.1c3.43-3.1,4.8-5.79.25-6.61l-80.22-17.58C400.9,334,398.45,338.2,402,342.14Z" transform="translate(-0.5 -0.5)"/><path class="cls-2" d="M240.5,331.31a5.26,5.26,0,0,0-5,5.19v16a20.56,20.56,0,0,0,2.65,9.24l9.7,15.52c1.46,2.33,4,2.44,5.65.24l33-44c1.65-2.2.75-3.92-2-3.81Z" transform="translate(-0.5 -0.5)"/><path class="cls-3" d="M240.5,331.31a5.26,5.26,0,0,0-5,5.19v16a20.56,20.56,0,0,0,2.65,9.24l9.7,15.52c1.46,2.33,4,2.44,5.65.24l33-44c1.65-2.2.75-3.92-2-3.81Z" transform="translate(-0.5 -0.5)"/><path class="cls-2" d="M256.91,397.38a9.33,9.33,0,0,1,.27-8.6l20.64-32.56c1.48-2.32,2.7-2,2.74.78l.88,80c0,2.75-1,3-2.35.62Z" transform="translate(-0.5 -0.5)"/><path class="cls-3" d="M256.91,397.38a9.33,9.33,0,0,1,.27-8.6l20.64-32.56c1.48-2.32,2.7-2,2.74.78l.88,80c0,2.75-1,3-2.35.62Z" transform="translate(-0.5 -0.5)"/><path class="cls-2" d="M253.83,403.92c-1.28-2.43-3.58-2.55-5.1-.26l-8.46,12.68a6.62,6.62,0,0,0,.65,7.8l24.16,25.72a15.11,15.11,0,0,0,8.4,4.06l2,.16c2.74.23,3.93-1.57,2.65-4Z" transform="translate(-0.5 -0.5)"/><path class="cls-3" d="M253.83,403.92c-1.28-2.43-3.58-2.55-5.1-.26l-8.46,12.68a6.62,6.62,0,0,0,.65,7.8l24.16,25.72a15.11,15.11,0,0,0,8.4,4.06l2,.16c2.74.23,3.93-1.57,2.65-4Z" transform="translate(-0.5 -0.5)"/><path class="cls-2" d="M493.36,368.34l-15.27,33.12A15.25,15.25,0,0,1,471.5,408a7.41,7.41,0,0,1-7.89-1.67l-5.22-5.66a4.94,4.94,0,0,1,.33-7l31.23-28A2.22,2.22,0,0,1,493.36,368.34Z" transform="translate(-0.5 -0.5)"/><path class="cls-3" d="M493.36,368.34l-15.27,33.12A15.25,15.25,0,0,1,471.5,408a7.41,7.41,0,0,1-7.89-1.67l-5.22-5.66a4.94,4.94,0,0,1,.33-7l31.23-28A2.22,2.22,0,0,1,493.36,368.34Z" transform="translate(-0.5 -0.5)"/><path class="cls-2" d="M340.4,199.34a5.23,5.23,0,0,1-7.18.39l-7.44-6.46a4.18,4.18,0,0,1,0-6.52l6.4-5.5a6.36,6.36,0,0,1,7.73-.16l6.14,4.82a4.54,4.54,0,0,1,.53,6.75Z" transform="translate(-0.5 -0.5)"/><path class="cls-3" d="M340.4,199.34a5.23,5.23,0,0,1-7.18.39l-7.44-6.46a4.18,4.18,0,0,1,0-6.52l6.4-5.5a6.36,6.36,0,0,1,7.73-.16l6.14,4.82a4.54,4.54,0,0,1,.53,6.75Z" transform="translate(-0.5 -0.5)"/><path class="cls-2" d="M340,213a5,5,0,0,0-7.08,0L325,221a13.91,13.91,0,0,0-3.54,8.54v25a5,5,0,0,0,5,5h20a5,5,0,0,0,5-5v-25A13.91,13.91,0,0,0,348,221Z" transform="translate(-0.5 -0.5)"/><path class="cls-3" d="M340,213a5,5,0,0,0-7.08,0L325,221a13.91,13.91,0,0,0-3.54,8.54v25a5,5,0,0,0,5,5h20a5,5,0,0,0,5-5v-25A13.91,13.91,0,0,0,348,221Z" transform="translate(-0.5 -0.5)"/><path class="cls-2" d="M628.5,625.5a5,5,0,0,0,5-5v-14a15.26,15.26,0,0,0-3.32-8.74l-1.36-1.52a5.12,5.12,0,0,0-7.12-.49l-20.4,17.5a11.79,11.79,0,0,0-3.8,7.75,4.78,4.78,0,0,0,5,4.5Z" transform="translate(-0.5 -0.5)"/><path class="cls-3" d="M628.5,625.5a5,5,0,0,0,5-5v-14a15.26,15.26,0,0,0-3.32-8.74l-1.36-1.52a5.12,5.12,0,0,0-7.12-.49l-20.4,17.5a11.79,11.79,0,0,0-3.8,7.75,4.78,4.78,0,0,0,5,4.5Z" transform="translate(-0.5 -0.5)"/><path class="cls-2" d="M494.55,164.54c-1.68,2.18-.8,4,1.95,4h11c2.75,0,3.55-1.72,1.77-3.82l-4.54-5.36a3.87,3.87,0,0,0-6.28.14Z" transform="translate(-0.5 -0.5)"/><path class="cls-3" d="M494.55,164.54c-1.68,2.18-.8,4,1.95,4h11c2.75,0,3.55-1.72,1.77-3.82l-4.54-5.36a3.87,3.87,0,0,0-6.28.14Z" transform="translate(-0.5 -0.5)"/><rect class="cls-2" x="18" y="304" width="28" height="10.5" rx="2"/><rect class="cls-3" x="18" y="304" width="28" height="10.5" rx="2"/><rect class="cls-2" x="18" y="319.5" width="28" height="11.5" rx="2"/><rect class="cls-3" x="18" y="319.5" width="28" height="11.5" rx="2"/><path class="cls-2" d="M57.32,418.36c1.75-2.12,3.18-1.61,3.18,1.14v18c0,2.75-1.77,3.61-3.93,1.91l-6.14-4.82a4.88,4.88,0,0,1-.75-6.95Z" transform="translate(-0.5 -0.5)"/><path class="cls-3" d="M57.32,418.36c1.75-2.12,3.18-1.61,3.18,1.14v18c0,2.75-1.77,3.61-3.93,1.91l-6.14-4.82a4.88,4.88,0,0,1-.75-6.95Z" transform="translate(-0.5 -0.5)"/><path class="cls-2" d="M240.07,401.21c-1.41,2.36-2.57,2-2.57-.71v-20c0-2.75,1.16-3.07,2.57-.71l3.86,6.42a9.23,9.23,0,0,1,0,8.58Z" transform="translate(-0.5 -0.5)"/><path class="cls-3" d="M240.07,401.21c-1.41,2.36-2.57,2-2.57-.71v-20c0-2.75,1.16-3.07,2.57-.71l3.86,6.42a9.23,9.23,0,0,1,0,8.58Z" transform="translate(-0.5 -0.5)"/><path class="cls-2" d="M252.05,593.86c1.35-2.4,2.45-2.11,2.45.64v28a4.52,4.52,0,1,1-9,0v-12a22.64,22.64,0,0,1,2.45-9.36Z" transform="translate(-0.5 -0.5)"/><path class="cls-3" d="M252.05,593.86c1.35-2.4,2.45-2.11,2.45.64v28a4.52,4.52,0,1,1-9,0v-12a22.64,22.64,0,0,1,2.45-9.36Z" transform="translate(-0.5 -0.5)"/><path class="cls-2" d="M236.22,622.51a4.68,4.68,0,0,1-4.72,5h-8a5,5,0,0,1-5-5v-26c0-2.75,1.54-3.36,3.43-1.36l10.14,10.72a16,16,0,0,1,3.71,8.63Z" transform="translate(-0.5 -0.5)"/><path class="cls-3" d="M236.22,622.51a4.68,4.68,0,0,1-4.72,5h-8a5,5,0,0,1-5-5v-26c0-2.75,1.54-3.36,3.43-1.36l10.14,10.72a16,16,0,0,1,3.71,8.63Z" transform="translate(-0.5 -0.5)"/><path class="cls-2" d="M230.86,435.93a5.38,5.38,0,0,1,7.28,0l19.76,18.66c3.71,3.44,2.59,7.64-2.44,8.1l-34,1.58a4.74,4.74,0,0,1-5-4.77v-5a13.32,13.32,0,0,1,3.64-8.43Z" transform="translate(-0.5 -0.5)"/><path class="cls-3" d="M230.86,435.93a5.38,5.38,0,0,1,7.28,0l19.76,18.66c3.71,3.44,2.59,7.64-2.44,8.1l-34,1.58a4.74,4.74,0,0,1-5-4.77v-5a13.32,13.32,0,0,1,3.64-8.43Z" transform="translate(-0.5 -0.5)"/><rect class="cls-2" x="121" y="431" width="22" height="19" rx="5"/><rect class="cls-3" x="121" y="431" width="22" height="19" rx="5"/><path class="cls-2" d="M153.88,153c2-1.9,3.81-1.21,4.05,1.53l1.14,13c.24,2.74-.69,6.1-2.07,7.48s-4.61,1.72-7.19.77l-9.62-3.54c-2.58-.95-3.06-3.28-1.07-5.18Z" transform="translate(-0.5 -0.5)"/><path class="cls-3" d="M153.88,153c2-1.9,3.81-1.21,4.05,1.53l1.14,13c.24,2.74-.69,6.1-2.07,7.48s-4.61,1.72-7.19.77l-9.62-3.54c-2.58-.95-3.06-3.28-1.07-5.18Z" transform="translate(-0.5 -0.5)"/><path class="cls-2" d="M120.86,39.93c2-1.89,2.88-1.31,2,1.28L111.18,73.79a4.55,4.55,0,0,1-6.24,2.66l-10.88-4.9c-2.51-1.13-2.92-3.59-.92-5.48Z" transform="translate(-0.5 -0.5)"/><path class="cls-3" d="M120.86,39.93c2-1.89,2.88-1.31,2,1.28L111.18,73.79a4.55,4.55,0,0,1-6.24,2.66l-10.88-4.9c-2.51-1.13-2.92-3.59-.92-5.48Z" transform="translate(-0.5 -0.5)"/><path class="cls-2" d="M135.5,12.41c2.75.05,3.37,1.64,1.37,3.53L89.13,61.06a6.44,6.44,0,0,1-7.74.59L40.61,33.35c-2.26-1.57-2-3.69.53-4.72L78.86,13.37a29.37,29.37,0,0,1,9.64-1.78Z" transform="translate(-0.5 -0.5)"/><path class="cls-3" d="M135.5,12.41c2.75.05,3.37,1.64,1.37,3.53L89.13,61.06a6.44,6.44,0,0,1-7.74.59L40.61,33.35c-2.26-1.57-2-3.69.53-4.72L78.86,13.37a29.37,29.37,0,0,1,9.64-1.78Z" transform="translate(-0.5 -0.5)"/><path class="cls-2" d="M30.5,37.5a46.19,46.19,0,0,1,4.87,8.64L52.63,88.86a6.64,6.64,0,0,1-2.22,7.52L27.5,112.5c-8.93,5.21-12.62-6.37-12.33-16.71l.3-51.29a15.38,15.38,0,0,1,3.37-8.72l2.32-2.56a4,4,0,0,1,6.34.28Z" transform="translate(-0.5 -0.5)"/><path class="cls-3" d="M30.5,37.5a46.19,46.19,0,0,1,4.87,8.64L52.63,88.86a6.64,6.64,0,0,1-2.22,7.52L27.5,112.5c-8.93,5.21-12.62-6.37-12.33-16.71l.3-51.29a15.38,15.38,0,0,1,3.37-8.72l2.32-2.56a4,4,0,0,1,6.34.28Z" transform="translate(-0.5 -0.5)"/><path class="cls-2" d="M144.21,19.27c1.81-2.07,3.39-1.52,3.52,1.22l.54,12a8.75,8.75,0,0,1-4.16,7.38l-2.22,1.22a9.57,9.57,0,0,0-4.5,7.39l-.78,36a6.56,6.56,0,0,0,4.74,6.21l6.3,1.58a7.31,7.31,0,0,1,5.18,6.2l.34,5c.18,2.74-1.59,3.82-3.94,2.39L116.77,86.1a5.94,5.94,0,0,1-2.29-7.19l20-46.12a38.26,38.26,0,0,1,5.27-8.36Z" transform="translate(-0.5 -0.5)"/><path class="cls-3" d="M144.21,19.27c1.81-2.07,3.39-1.52,3.52,1.22l.54,12a8.75,8.75,0,0,1-4.16,7.38l-2.22,1.22a9.57,9.57,0,0,0-4.5,7.39l-.78,36a6.56,6.56,0,0,0,4.74,6.21l6.3,1.58a7.31,7.31,0,0,1,5.18,6.2l.34,5c.18,2.74-1.59,3.82-3.94,2.39L116.77,86.1a5.94,5.94,0,0,1-2.29-7.19l20-46.12a38.26,38.26,0,0,1,5.27-8.36Z" transform="translate(-0.5 -0.5)"/><path class="cls-2" d="M327.78,203.11a4.41,4.41,0,0,1,0,6.69l-2.56,2.31c-2.05,1.84-3.72,1.1-3.72-1.65v-8c0-2.75,1.67-3.5,3.72-1.66Z" transform="translate(-0.5 -0.5)"/><path class="cls-3" d="M327.78,203.11a4.41,4.41,0,0,1,0,6.69l-2.56,2.31c-2.05,1.84-3.72,1.1-3.72-1.65v-8c0-2.75,1.67-3.5,3.72-1.66Z" transform="translate(-0.5 -0.5)"/><path class="cls-2" d="M23.5,608.5a4.51,4.51,0,0,1,5-4.56L56,606.4c4.84.7,13.21,5.28,16.17,9.17l5.93,10.57c1.35,2.4.2,4.4-2.55,4.45l-47,.82a4.91,4.91,0,0,1-5-4.91Z" transform="translate(-0.5 -0.5)"/><path class="cls-3" d="M23.5,608.5a4.51,4.51,0,0,1,5-4.56L56,606.4c4.84.7,13.21,5.28,16.17,9.17l5.93,10.57c1.35,2.4.2,4.4-2.55,4.45l-47,.82a4.91,4.91,0,0,1-5-4.91Z" transform="translate(-0.5 -0.5)"/><path class="cls-2" d="M339.77,28.1a3.29,3.29,0,0,0,0,5.75l4.78,3.31c2.26,1.57,4.23.6,4.37-2.14l.48-9c.14-2.74-1.57-3.68-3.81-2.09Z" transform="translate(-0.5 -0.5)"/><path class="cls-3" d="M339.77,28.1a3.29,3.29,0,0,0,0,5.75l4.78,3.31c2.26,1.57,4.23.6,4.37-2.14l.48-9c.14-2.74-1.57-3.68-3.81-2.09Z" transform="translate(-0.5 -0.5)"/><rect class="cls-2" x="156" y="431" width="22" height="19" rx="5"/><rect class="cls-3" x="156" y="431" width="22" height="19" rx="5"/><path class="cls-2" d="M345.22,203.12a4.41,4.41,0,0,0,0,6.69l2.56,2.31c2.05,1.84,3.72,1.09,3.72-1.66v-8c0-2.75-1.67-3.49-3.72-1.65Z" transform="translate(-0.5 -0.5)"/><path class="cls-3" d="M345.22,203.12a4.41,4.41,0,0,0,0,6.69l2.56,2.31c2.05,1.84,3.72,1.09,3.72-1.66v-8c0-2.75-1.67-3.49-3.72-1.65Z" transform="translate(-0.5 -0.5)"/><path class="cls-2" d="M78.62,366.5c-.06-2.75-1.9-3.63-4.08-1.95l-5.08,3.9a11.5,11.5,0,0,0-4,8.05v67a12.91,12.91,0,0,0,3.7,8.36l3.6,3.28a15,15,0,0,0,8.7,3.36h27a5,5,0,0,0,5-5v-6a5,5,0,0,0-5-5h-23a5.16,5.16,0,0,1-5.12-5Z" transform="translate(-0.5 -0.5)"/><path class="cls-3" d="M78.62,366.5c-.06-2.75-1.9-3.63-4.08-1.95l-5.08,3.9a11.5,11.5,0,0,0-4,8.05v67a12.91,12.91,0,0,0,3.7,8.36l3.6,3.28a15,15,0,0,0,8.7,3.36h27a5,5,0,0,0,5-5v-6a5,5,0,0,0-5-5h-23a5.16,5.16,0,0,1-5.12-5Z" transform="translate(-0.5 -0.5)"/><rect class="cls-2" x="86" y="635" width="48" height="7" rx="2"/><rect class="cls-3" x="86" y="635" width="48" height="7" rx="2"/><rect class="cls-2" x="49" y="635" width="21" height="7" rx="2"/><rect class="cls-3" x="49" y="635" width="21" height="7" rx="2"/><path class="cls-4" d="M176.5,634.5h60l-2.7,3.78a7.68,7.68,0,0,1-6.26,3.22h-51Z" transform="translate(-0.5 -0.5)"/><path class="cls-4" d="M244.5,634.5h36v6H252.45a7.36,7.36,0,0,1-6.14-3.29Z" transform="translate(-0.5 -0.5)"/><path class="cls-2" d="M174.5,94.5c0,2.75-2,4.1-4.5,3a14.8,14.8,0,0,1-6.5-6.5,28,28,0,0,1-2-9.5v-61a21,21,0,0,1,1-7,7.86,7.86,0,0,1,3-3,21,21,0,0,1,7-1h55a5,5,0,0,1,5,5v4a5,5,0,0,1-5,5h-48a5,5,0,0,0-5,5Z" transform="translate(-0.5 -0.5)"/><path class="cls-3" d="M174.5,94.5c0,2.75-2,4.1-4.5,3a14.8,14.8,0,0,1-6.5-6.5,28,28,0,0,1-2-9.5v-61a21,21,0,0,1,1-7,7.86,7.86,0,0,1,3-3,21,21,0,0,1,7-1h55a5,5,0,0,1,5,5v4a5,5,0,0,1-5,5h-48a5,5,0,0,0-5,5Z" transform="translate(-0.5 -0.5)"/><path class="cls-2" d="M309.13,325.19c1.85-2,3.76-1.47,4.23,1.24l2.28,13.14a4.07,4.07,0,0,1-4.14,4.93h-15c-2.75,0-3.48-1.66-1.63-3.69Z" transform="translate(-0.5 -0.5)"/><path class="cls-3" d="M309.13,325.19c1.85-2,3.76-1.47,4.23,1.24l2.28,13.14a4.07,4.07,0,0,1-4.14,4.93h-15c-2.75,0-3.48-1.66-1.63-3.69Z" transform="translate(-0.5 -0.5)"/><path class="cls-2" d="M366.57,325.19c-1.85-2-3.76-1.47-4.23,1.24l-2.29,13.14a4.08,4.08,0,0,0,4.15,4.93h15c2.75,0,3.48-1.66,1.63-3.69Z" transform="translate(-0.5 -0.5)"/><path class="cls-3" d="M366.57,325.19c-1.85-2-3.76-1.47-4.23,1.24l-2.29,13.14a4.08,4.08,0,0,0,4.15,4.93h15c2.75,0,3.48-1.66,1.63-3.69Z" transform="translate(-0.5 -0.5)"/><path class="cls-2" d="M315.5,249.61c-.12,2.75-2,3.67-4.25,2l-6.94-5.08a3.51,3.51,0,0,1,0-6l8-6c2.2-1.65,3.9-.75,3.78,2Z" transform="translate(-0.5 -0.5)"/><path class="cls-3" d="M315.5,249.61c-.12,2.75-2,3.67-4.25,2l-6.94-5.08a3.51,3.51,0,0,1,0-6l8-6c2.2-1.65,3.9-.75,3.78,2Z" transform="translate(-0.5 -0.5)"/><path class="cls-2" d="M341.8,136.57a3.29,3.29,0,0,0,0,5.75l4.78,3.31c2.26,1.56,4.23.6,4.37-2.15l.48-9c.14-2.75-1.57-3.69-3.81-2.09Z" transform="translate(-0.5 -0.5)"/><path class="cls-3" d="M341.8,136.57a3.29,3.29,0,0,0,0,5.75l4.78,3.31c2.26,1.56,4.23.6,4.37-2.15l.48-9c.14-2.75-1.57-3.69-3.81-2.09Z" transform="translate(-0.5 -0.5)"/><path class="cls-2" d="M329.35,136.57a3.3,3.3,0,0,1-.05,5.75l-4.78,3.31c-2.26,1.56-4.22.6-4.37-2.15l-.47-9c-.15-2.75,1.56-3.69,3.8-2.09Z" transform="translate(-0.5 -0.5)"/><path class="cls-3" d="M329.35,136.57a3.3,3.3,0,0,1-.05,5.75l-4.78,3.31c-2.26,1.56-4.22.6-4.37-2.15l-.47-9c-.15-2.75,1.56-3.69,3.8-2.09Z" transform="translate(-0.5 -0.5)"/><path class="cls-2" d="M491.87,392.75c1.45-2.34,2.68-2,2.75.75l.76,32a4.87,4.87,0,0,1-4.88,5h0a8.33,8.33,0,0,1-7-4.5,28,28,0,0,1-2-9.5v-2a20.74,20.74,0,0,1,2.63-9.25Z" transform="translate(-0.5 -0.5)"/><path class="cls-3" d="M491.87,392.75c1.45-2.34,2.68-2,2.75.75l.76,32a4.87,4.87,0,0,1-4.88,5h0a8.33,8.33,0,0,1-7-4.5,28,28,0,0,1-2-9.5v-2a20.74,20.74,0,0,1,2.63-9.25Z" transform="translate(-0.5 -0.5)"/><rect class="cls-2" x="465" y="440" width="9" height="9" rx="2"/><rect class="cls-3" x="465" y="440" width="9" height="9" rx="2"/><path class="cls-2" d="M446.28,420.5c.12-2.75,1.12-5.67,2.22-6.5a5.14,5.14,0,0,1,4.5-.5c1.38.55,2.59,3.25,2.71,6l.58,14a4.77,4.77,0,0,1-4.79,5h-1a4.76,4.76,0,0,1-4.78-5Z" transform="translate(-0.5 -0.5)"/><path class="cls-3" d="M446.28,420.5c.12-2.75,1.12-5.67,2.22-6.5a5.14,5.14,0,0,1,4.5-.5c1.38.55,2.59,3.25,2.71,6l.58,14a4.77,4.77,0,0,1-4.79,5h-1a4.76,4.76,0,0,1-4.78-5Z" transform="translate(-0.5 -0.5)"/><path class="cls-2" d="M513.5,445.5a5,5,0,0,1,5-5h5a5,5,0,0,1,5,5v24c0,2.75-1.87,3.75-4.16,2.23l-6.68-4.46a10.45,10.45,0,0,1-4.16-7.77Z" transform="translate(-0.5 -0.5)"/><path class="cls-3" d="M513.5,445.5a5,5,0,0,1,5-5h5a5,5,0,0,1,5,5v24c0,2.75-1.87,3.75-4.16,2.23l-6.68-4.46a10.45,10.45,0,0,1-4.16-7.77Z" transform="translate(-0.5 -0.5)"/><path class="cls-2" d="M319,109a5,5,0,0,1,5-5h23a5,5,0,0,1,5,5v7a13.23,13.23,0,0,1-3.65,8.42l-8.7,8.16a5.63,5.63,0,0,1-7.4.11l-9.5-8.38A12.68,12.68,0,0,1,319,116Z" transform="translate(-0.5 -0.5)"/><path class="cls-3" d="M319,109a5,5,0,0,1,5-5h23a5,5,0,0,1,5,5v7a13.23,13.23,0,0,1-3.65,8.42l-8.7,8.16a5.63,5.63,0,0,1-7.4.11l-9.5-8.38A12.68,12.68,0,0,1,319,116Z" transform="translate(-0.5 -0.5)"/><path class="cls-2" d="M339.26,145.79a5.93,5.93,0,0,0-7.54,0l-7.44,6.46a7.44,7.44,0,0,0-1.88,7.89l3.2,7.76a8.08,8.08,0,0,0,6.9,4.62h5a9.46,9.46,0,0,0,7.45-4.36l4.1-7.28a6.44,6.44,0,0,0-1.31-7.65Z" transform="translate(-0.5 -0.5)"/><path class="cls-3" d="M339.26,145.79a5.93,5.93,0,0,0-7.54,0l-7.44,6.46a7.44,7.44,0,0,0-1.88,7.89l3.2,7.76a8.08,8.08,0,0,0,6.9,4.62h5a9.46,9.46,0,0,0,7.45-4.36l4.1-7.28a6.44,6.44,0,0,0-1.31-7.65Z" transform="translate(-0.5 -0.5)"/><circle class="cls-4" cx="363.5" cy="167.5" r="4.5"/><circle class="cls-4" cx="307.5" cy="167.5" r="4.5"/><path class="cls-2" d="M33.86,130.62,51,138.42a8.51,8.51,0,0,1,4.55,7.08v27c0,2.75-1.35,3.2-3,1L25.13,137.2C22.24,132.6,28.7,128.9,33.86,130.62Z" transform="translate(-0.5 -0.5)"/><path class="cls-3" d="M33.86,130.62,51,138.42a8.51,8.51,0,0,1,4.55,7.08v27c0,2.75-1.35,3.2-3,1L25.13,137.2C22.24,132.6,28.7,128.9,33.86,130.62Z" transform="translate(-0.5 -0.5)"/><path class="cls-2" d="M61.76,148.49c-.14-2.74,1.81-4.1,4.34-3l11.8,5.06a4.05,4.05,0,0,1,1.86,6.15L66.24,177.32c-1.51,2.3-2.86,1.93-3-.81Z" transform="translate(-0.5 -0.5)"/><path class="cls-3" d="M61.76,148.49c-.14-2.74,1.81-4.1,4.34-3l11.8,5.06a4.05,4.05,0,0,1,1.86,6.15L66.24,177.32c-1.51,2.3-2.86,1.93-3-.81Z" transform="translate(-0.5 -0.5)"/><path class="cls-2" d="M15.4,143.5c0-2.75,1.49-3.23,3.19-1.07l30.82,39.14c1.7,2.16.84,4-1.91,4.06l-28,.74a4.75,4.75,0,0,1-4.9-4.87Z" transform="translate(-0.5 -0.5)"/><path class="cls-3" d="M15.4,143.5c0-2.75,1.49-3.23,3.19-1.07l30.82,39.14c1.7,2.16.84,4-1.91,4.06l-28,.74a4.75,4.75,0,0,1-4.9-4.87Z" transform="translate(-0.5 -0.5)"/><path class="cls-2" d="M14.57,197.5a4.59,4.59,0,0,1,4.92-4.7l20.83,1.26c5.83,1.17,6.65,10.86,3.4,15.85l-20.64,28c-2.35,2.74-7.84,2.17-8-1.44Z" transform="translate(-0.5 -0.5)"/><path class="cls-3" d="M14.57,197.5a4.59,4.59,0,0,1,4.92-4.7l20.83,1.26c5.83,1.17,6.65,10.86,3.4,15.85l-20.64,28c-2.35,2.74-7.84,2.17-8-1.44Z" transform="translate(-0.5 -0.5)"/><path class="cls-2" d="M53.51,210.51c1.65-2.21,3-1.76,3,1v72.74c0,5.83-4.41,9.71-10.21,10.31l-24.79.79a5,5,0,0,1-5.15-4.84l-.7-24a16.75,16.75,0,0,1,2.84-9Z" transform="translate(-0.5 -0.5)"/><path class="cls-3" d="M53.51,210.51c1.65-2.21,3-1.76,3,1v72.74c0,5.83-4.41,9.71-10.21,10.31l-24.79.79a5,5,0,0,1-5.15-4.84l-.7-24a16.75,16.75,0,0,1,2.84-9Z" transform="translate(-0.5 -0.5)"/><path class="cls-2" d="M65.83,356.49a4.24,4.24,0,0,1,4.66-4.63l4,.28c2.75.2,3.46,2,1.59,4l-6.2,6.68c-1.87,2-3.55,1.41-3.73-1.33Z" transform="translate(-0.5 -0.5)"/><path class="cls-3" d="M65.83,356.49a4.24,4.24,0,0,1,4.66-4.63l4,.28c2.75.2,3.46,2,1.59,4l-6.2,6.68c-1.87,2-3.55,1.41-3.73-1.33Z" transform="translate(-0.5 -0.5)"/><path class="cls-2" d="M59.85,587.74c1.46-2.33,2.86-2,3.12.74l1.06,11c.26,2.74-1.61,4.11-4.15,3.06l-4-1.66a3.12,3.12,0,0,1-1.45-4.55Z" transform="translate(-0.5 -0.5)"/><path class="cls-3" d="M59.85,587.74c1.46-2.33,2.86-2,3.12.74l1.06,11c.26,2.74-1.61,4.11-4.15,3.06l-4-1.66a3.12,3.12,0,0,1-1.45-4.55Z" transform="translate(-0.5 -0.5)"/><path class="cls-2" d="M82.47,622.1c-1.08-2.53,0-3.59,2.5-2.36L102,628.26c2.46,1.23,2.22,2.35-.52,2.49l-10,.5a7.73,7.73,0,0,1-7-4.35Z" transform="translate(-0.5 -0.5)"/><path class="cls-3" d="M82.47,622.1c-1.08-2.53,0-3.59,2.5-2.36L102,628.26c2.46,1.23,2.22,2.35-.52,2.49l-10,.5a7.73,7.73,0,0,1-7-4.35Z" transform="translate(-0.5 -0.5)"/><path class="cls-2" d="M71.5,579.5a3.88,3.88,0,0,0-4,4.89l3,14.13a18.85,18.85,0,0,0,10.17,13L113,627.3a25.7,25.7,0,0,0,9.49,2.2h19a5,5,0,0,0,5-5v-15a5,5,0,0,0-5-5h-23c-2.75,0-5-1.8-5-4s-2.25-4.07-5-4.16l-21-.68a6.53,6.53,0,0,1-5.92-5.07l-1.16-6.18a6.28,6.28,0,0,0-5.92-4.91Z" transform="translate(-0.5 -0.5)"/><path class="cls-3" d="M71.5,579.5a3.88,3.88,0,0,0-4,4.89l3,14.13a18.85,18.85,0,0,0,10.17,13L113,627.3a25.7,25.7,0,0,0,9.49,2.2h19a5,5,0,0,0,5-5v-15a5,5,0,0,0-5-5h-23c-2.75,0-5-1.8-5-4s-2.25-4.07-5-4.16l-21-.68a6.53,6.53,0,0,1-5.92-5.07l-1.16-6.18a6.28,6.28,0,0,0-5.92-4.91Z" transform="translate(-0.5 -0.5)"/><ellipse class="cls-4" cx="238" cy="577.5" rx="5" ry="14.5"/><ellipse class="cls-4" cx="117.5" cy="174" rx="3.5" ry="4"/><circle class="cls-4" cx="205" cy="167" r="10"/><path class="cls-2" d="M444.5,162.5a4.55,4.55,0,0,1,5-4.6l15,1.2a20.13,20.13,0,0,1,8,2.4A4.65,4.65,0,0,1,474,167c-.82,1.93-3.75,3.5-6.5,3.5h-18a5,5,0,0,1-5-5Z" transform="translate(-0.5 -0.5)"/><path class="cls-3" d="M444.5,162.5a4.55,4.55,0,0,1,5-4.6l15,1.2a20.13,20.13,0,0,1,8,2.4A4.65,4.65,0,0,1,474,167c-.82,1.93-3.75,3.5-6.5,3.5h-18a5,5,0,0,1-5-5Z" transform="translate(-0.5 -0.5)"/><path class="cls-2" d="M447.5,181c0-1.93,2.25-3.5,5-3.5s3.87,1.57,2.5,3.5-3.62,3.5-5,3.5S447.5,182.93,447.5,181Z" transform="translate(-0.5 -0.5)"/><path class="cls-3" d="M447.5,181c0-1.93,2.25-3.5,5-3.5s3.87,1.57,2.5,3.5-3.62,3.5-5,3.5S447.5,182.93,447.5,181Z" transform="translate(-0.5 -0.5)"/><path class="cls-2" d="M324.5,8.5c-2.75,0-5,1.57-5,3.5s1.7,5,3.78,6.77l7.44,6.46a6,6,0,0,0,7.56,0l7.44-6.46c2.08-1.8,3.78-4.84,3.78-6.77s-2.25-3.5-5-3.5Z" transform="translate(-0.5 -0.5)"/><path class="cls-3" d="M324.5,8.5c-2.75,0-5,1.57-5,3.5s1.7,5,3.78,6.77l7.44,6.46a6,6,0,0,0,7.56,0l7.44-6.46c2.08-1.8,3.78-4.84,3.78-6.77s-2.25-3.5-5-3.5Z" transform="translate(-0.5 -0.5)"/><path class="cls-2" d="M338.16,37.91a5.48,5.48,0,0,0-7.32,0l-7.68,7.18a13.14,13.14,0,0,0-3.66,8.41h0a5,5,0,0,0,5,5h20a5,5,0,0,0,5-5h0a13.14,13.14,0,0,0-3.66-8.41Z" transform="translate(-0.5 -0.5)"/><path class="cls-3" d="M338.16,37.91a5.48,5.48,0,0,0-7.32,0l-7.68,7.18a13.14,13.14,0,0,0-3.66,8.41h0a5,5,0,0,0,5,5h20a5,5,0,0,0,5-5h0a13.14,13.14,0,0,0-3.66-8.41Z" transform="translate(-0.5 -0.5)"/><path class="cls-2" d="M172.5,116.5c1.65-2.2,4.8-3.1,7-2s2.84,3.93,1.43,6.29l-.86,1.42a4.42,4.42,0,0,1-6.57,1.29h0a5,5,0,0,1-1-7Z" transform="translate(-0.5 -0.5)"/><path class="cls-3" d="M172.5,116.5c1.65-2.2,4.8-3.1,7-2s2.84,3.93,1.43,6.29l-.86,1.42a4.42,4.42,0,0,1-6.57,1.29h0a5,5,0,0,1-1-7Z" transform="translate(-0.5 -0.5)"/><path class="cls-2" d="M171.5,147.5c-2.75,0-4-2-2.76-4.47l.43-.88c2.69-5.36,13.29-5.53,16.2-.28l.7,1.26c1.34,2.4.18,4.37-2.57,4.37Z" transform="translate(-0.5 -0.5)"/><path class="cls-3" d="M171.5,147.5c-2.75,0-4-2-2.76-4.47l.43-.88c2.69-5.36,13.29-5.53,16.2-.28l.7,1.26c1.34,2.4.18,4.37-2.57,4.37Z" transform="translate(-0.5 -0.5)"/><path class="cls-2" d="M172,168.5c-2.75,0-4,2-2.76,4.47l.43.88c2.69,5.36,13.29,5.53,16.2.28l.7-1.26c1.34-2.4.18-4.37-2.57-4.37Z" transform="translate(-0.5 -0.5)"/><path class="cls-3" d="M172,168.5c-2.75,0-4,2-2.76,4.47l.43.88c2.69,5.36,13.29,5.53,16.2.28l.7-1.26c1.34-2.4.18-4.37-2.57-4.37Z" transform="translate(-0.5 -0.5)"/><path class="cls-2" d="M189.73,118.66a4.85,4.85,0,0,1,6.85-1.28l25.84,18.24a4.9,4.9,0,0,1,1.12,6.91l-5.08,6.94a5,5,0,0,1-7,1.09l-24.92-18.12a5.28,5.28,0,0,1-1.27-7.1Z" transform="translate(-0.5 -0.5)"/><path class="cls-3" d="M189.73,118.66a4.85,4.85,0,0,1,6.85-1.28l25.84,18.24a4.9,4.9,0,0,1,1.12,6.91l-5.08,6.94a5,5,0,0,1-7,1.09l-24.92-18.12a5.28,5.28,0,0,1-1.27-7.1Z" transform="translate(-0.5 -0.5)"/><path class="cls-2" d="M224.83,161.23a6,6,0,0,1-.11-7.55l9.56-11.36a5.36,5.36,0,0,1,7.21-.81l41,31c2.19,1.65,1.74,3.06-1,3.11l-38,.8a12.43,12.43,0,0,1-8.33-3.63Z" transform="translate(-0.5 -0.5)"/><path class="cls-3" d="M224.83,161.23a6,6,0,0,1-.11-7.55l9.56-11.36a5.36,5.36,0,0,1,7.21-.81l41,31c2.19,1.65,1.74,3.06-1,3.11l-38,.8a12.43,12.43,0,0,1-8.33-3.63Z" transform="translate(-0.5 -0.5)"/><rect class="cls-2" x="300" y="91" width="12" height="62" rx="5"/><rect class="cls-3" x="300" y="91" width="12" height="62" rx="5"/><path class="cls-2" d="M300.5,69.5a5,5,0,0,0,5,5h2a5,5,0,0,0,5-5v-55a5,5,0,0,0-5-5h-63a5,5,0,0,0-5,5v2a5,5,0,0,0,5,5h51a5,5,0,0,1,5,5Z" transform="translate(-0.5 -0.5)"/><path class="cls-3" d="M300.5,69.5a5,5,0,0,0,5,5h2a5,5,0,0,0,5-5v-55a5,5,0,0,0-5-5h-63a5,5,0,0,0-5,5v2a5,5,0,0,0,5,5h51a5,5,0,0,1,5,5Z" transform="translate(-0.5 -0.5)"/><rect class="cls-4" x="340" y="492" width="49" height="27"/><rect class="cls-2" x="119" y="591" width="24" height="7" rx="2"/><rect class="cls-3" x="119" y="591" width="24" height="7" rx="2"/><path class="cls-4" d="M286.5,640.5h0c0-3.31,2.69-8,6-8h13c3.31,0,6,4.69,6,8h-25Z" transform="translate(-0.5 -0.5)"/><path class="cls-2" d="M528.22,496.49c.16-2.74,1.77-3.31,3.6-1.25l9.36,10.52c1.83,2.06,1.07,3.74-1.68,3.74h-7a4.68,4.68,0,0,1-4.72-5Z" transform="translate(-0.5 -0.5)"/><path class="cls-3" d="M528.22,496.49c.16-2.74,1.77-3.31,3.6-1.25l9.36,10.52c1.83,2.06,1.07,3.74-1.68,3.74h-7a4.68,4.68,0,0,1-4.72-5Z" transform="translate(-0.5 -0.5)"/><path class="cls-2" d="M539,488c-1.95-2-1.29-3.54,1.46-3.54h6a5,5,0,0,1,5,5v6c0,2.75-1.59,3.41-3.54,1.46Z" transform="translate(-0.5 -0.5)"/><path class="cls-3" d="M539,488c-1.95-2-1.29-3.54,1.46-3.54h6a5,5,0,0,1,5,5v6c0,2.75-1.59,3.41-3.54,1.46Z" transform="translate(-0.5 -0.5)"/><rect class="cls-2" x="533" y="440" width="19" height="38" rx="2"/><rect class="cls-3" x="533" y="440" width="19" height="38" rx="2"/><path class="cls-2" d="M263.5,627.5a5,5,0,0,1-5-5v-28a3.82,3.82,0,0,1,4.88-3.89l12.24,2.78a6.57,6.57,0,0,1,4.88,6.11v23a5,5,0,0,1-5,5Z" transform="translate(-0.5 -0.5)"/><path class="cls-3" d="M263.5,627.5a5,5,0,0,1-5-5v-28a3.82,3.82,0,0,1,4.88-3.89l12.24,2.78a6.57,6.57,0,0,1,4.88,6.11v23a5,5,0,0,1-5,5Z" transform="translate(-0.5 -0.5)"/><path class="cls-2" d="M184.5,477.5a5.17,5.17,0,0,1,5-5.12l74-1.76a4.87,4.87,0,0,1,5,4.88h0a4.78,4.78,0,0,0,4.5,5,4.28,4.28,0,0,1,4.5,4c0,2.2,2.25,4,5,4h36a5,5,0,0,1,5,5v128a5.19,5.19,0,0,1-5,5.14l-27,.72a4.85,4.85,0,0,1-5-4.86v-23a5,5,0,0,1,5-5h12a5,5,0,0,0,5-5v-34a4.94,4.94,0,0,0-5-4.94l-79,.88a5.08,5.08,0,0,1-5.11-4.94l-.78-34a5.15,5.15,0,0,0-5.11-5h-24a5,5,0,0,1-5-5Z" transform="translate(-0.5 -0.5)"/><path class="cls-3" d="M184.5,477.5a5.17,5.17,0,0,1,5-5.12l74-1.76a4.87,4.87,0,0,1,5,4.88h0a4.78,4.78,0,0,0,4.5,5,4.28,4.28,0,0,1,4.5,4c0,2.2,2.25,4,5,4h36a5,5,0,0,1,5,5v128a5.19,5.19,0,0,1-5,5.14l-27,.72a4.85,4.85,0,0,1-5-4.86v-23a5,5,0,0,1,5-5h12a5,5,0,0,0,5-5v-34a4.94,4.94,0,0,0-5-4.94l-79,.88a5.08,5.08,0,0,1-5.11-4.94l-.78-34a5.15,5.15,0,0,0-5.11-5h-24a5,5,0,0,1-5-5Z" transform="translate(-0.5 -0.5)"/><rect class="cls-2" x="173" y="596" width="41" height="33" rx="5"/><rect class="cls-3" x="173" y="596" width="41" height="33" rx="5"/><path class="cls-4" d="M365.5,612.5v13H337.75a6.25,6.25,0,0,1-6.25-6.25V541.54a10,10,0,0,1,10-10h72.1a4.85,4.85,0,0,1,4.86,4.86V578.5h5.34a5.65,5.65,0,0,1,5.66,5.66v34.29a7.05,7.05,0,0,1-7.05,7H372.5v-13h8v-21h19v-17h-64v17h20v21Z" transform="translate(-0.5 -0.5)"/><circle class="cls-4" cx="330.5" cy="492.5" r="2.5"/><circle class="cls-4" cx="330.5" cy="501.5" r="2.5"/><circle class="cls-4" cx="330.5" cy="510.5" r="2.5"/><circle class="cls-4" cx="330.5" cy="519.5" r="2.5"/><circle class="cls-4" cx="396.5" cy="491.5" r="2.5"/><circle class="cls-4" cx="407.5" cy="491.5" r="2.5"/><circle class="cls-4" cx="396.5" cy="500.5" r="2.5"/><circle class="cls-4" cx="407.5" cy="500.5" r="2.5"/><circle class="cls-4" cx="396.5" cy="509.5" r="2.5"/><circle class="cls-4" cx="407.5" cy="509.5" r="2.5"/><circle class="cls-4" cx="396.5" cy="518.5" r="2.5"/><circle class="cls-4" cx="407.5" cy="518.5" r="2.5"/><rect class="cls-2" x="414" y="478" width="9" height="11" rx="2"/><rect class="cls-3" x="414" y="478" width="9" height="11" rx="2"/><rect class="cls-2" x="62" y="268" width="12" height="15" rx="2"/><rect class="cls-3" x="62" y="268" width="12" height="15" rx="2"/><path class="cls-2" d="M72,264.5H67a4.49,4.49,0,0,1-4.5-4.5V200.64A11.14,11.14,0,0,1,73.64,189.5H110a4.49,4.49,0,0,1,4.5,4.5h0a4.49,4.49,0,0,1-4.5,4.5H81a4.49,4.49,0,0,0-4.5,4.5v57A4.49,4.49,0,0,1,72,264.5Z" transform="translate(-0.5 -0.5)"/><path class="cls-3" d="M72,264.5H67a4.49,4.49,0,0,1-4.5-4.5V200.64A11.14,11.14,0,0,1,73.64,189.5H110a4.49,4.49,0,0,1,4.5,4.5h0a4.49,4.49,0,0,1-4.5,4.5H81a4.49,4.49,0,0,0-4.5,4.5v57A4.49,4.49,0,0,1,72,264.5Z" transform="translate(-0.5 -0.5)"/><path class="cls-2" d="M199.5,187.5a2,2,0,0,1,2-2h23a2,2,0,0,1,2,2v129a2,2,0,0,1-2,2h-7a2,2,0,0,1-2-2v-110a2,2,0,0,0-2-2h-12a2,2,0,0,1-2-2Z" transform="translate(-0.5 -0.5)"/><path class="cls-3" d="M199.5,187.5a2,2,0,0,1,2-2h23a2,2,0,0,1,2,2v129a2,2,0,0,1-2,2h-7a2,2,0,0,1-2-2v-110a2,2,0,0,0-2-2h-12a2,2,0,0,1-2-2Z" transform="translate(-0.5 -0.5)"/><path class="cls-2" d="M187.86,447.47a1.61,1.61,0,0,1,1.64-2h10c1.1,0,1.34.61.53,1.35l-5.79,5.31a3.55,3.55,0,0,1-5.89-2Z" transform="translate(-0.5 -0.5)"/><path class="cls-3" d="M187.86,447.47a1.61,1.61,0,0,1,1.64-2h10c1.1,0,1.34.61.53,1.35l-5.79,5.31a3.55,3.55,0,0,1-5.89-2Z" transform="translate(-0.5 -0.5)"/><path class="cls-2" d="M358.5,15.5a2,2,0,0,1,2-2h2a2,2,0,0,0,2-2v-2a2,2,0,0,1,2-2h74a2,2,0,0,1,2,2v13a2,2,0,0,1-2,2h-67a2,2,0,0,0-2,2v15a2,2,0,0,1-2,2h-9a2,2,0,0,1-2-2Z" transform="translate(-0.5 -0.5)"/><path class="cls-3" d="M358.5,15.5a2,2,0,0,1,2-2h2a2,2,0,0,0,2-2v-2a2,2,0,0,1,2-2h74a2,2,0,0,1,2,2v13a2,2,0,0,1-2,2h-67a2,2,0,0,0-2,2v15a2,2,0,0,1-2,2h-9a2,2,0,0,1-2-2Z" transform="translate(-0.5 -0.5)"/><path class="cls-2" d="M450.5,5.5a2,2,0,0,0-2,2v9a2,2,0,0,0,2,2h46a4.57,4.57,0,0,0,3.22-1.59l7.56-9.82c.67-.88.32-1.59-.78-1.59Z" transform="translate(-0.5 -0.5)"/><path class="cls-3" d="M450.5,5.5a2,2,0,0,0-2,2v9a2,2,0,0,0,2,2h46a4.57,4.57,0,0,0,3.22-1.59l7.56-9.82c.67-.88.32-1.59-.78-1.59Z" transform="translate(-0.5 -0.5)"/><path class="cls-2" d="M358.5,52.5a2,2,0,0,1,2-2h3a2,2,0,0,1,2,2v1a2,2,0,0,0,2,2h4a2,2,0,0,1,2,2v17a2,2,0,0,1-2,2h-11a2,2,0,0,1-2-2Z" transform="translate(-0.5 -0.5)"/><path class="cls-3" d="M358.5,52.5a2,2,0,0,1,2-2h3a2,2,0,0,1,2,2v1a2,2,0,0,0,2,2h4a2,2,0,0,1,2,2v17a2,2,0,0,1-2,2h-11a2,2,0,0,1-2-2Z" transform="translate(-0.5 -0.5)"/><path class="cls-2" d="M358.5,114.5a2,2,0,0,0,2,2h3a2,2,0,0,0,2-2v-1a2,2,0,0,1,2-2h4a2,2,0,0,0,2-2v-17a2,2,0,0,0-2-2h-11a2,2,0,0,0-2,2Z" transform="translate(-0.5 -0.5)"/><path class="cls-3" d="M358.5,114.5a2,2,0,0,0,2,2h3a2,2,0,0,0,2-2v-1a2,2,0,0,1,2-2h4a2,2,0,0,0,2-2v-17a2,2,0,0,0-2-2h-11a2,2,0,0,0-2,2Z" transform="translate(-0.5 -0.5)"/><path class="cls-2" d="M360.55,128.5a1.94,1.94,0,0,1,1.95-2h19a2,2,0,0,1,2,2v26.29a5.55,5.55,0,0,1-6.59,5.45l-2.45-.46a16.8,16.8,0,0,1-13.52-14.35Z" transform="translate(-0.5 -0.5)"/><path class="cls-3" d="M360.55,128.5a1.94,1.94,0,0,1,1.95-2h19a2,2,0,0,1,2,2v26.29a5.55,5.55,0,0,1-6.59,5.45l-2.45-.46a16.8,16.8,0,0,1-13.52-14.35Z" transform="translate(-0.5 -0.5)"/><path class="cls-2" d="M390.5,149.5a5,5,0,0,1,5-5h38a5,5,0,0,1,5,5v15a5.17,5.17,0,0,1-5,5.13l-32.43.87a10.57,10.57,0,0,1-10.57-10.57Z" transform="translate(-0.5 -0.5)"/><path class="cls-3" d="M390.5,149.5a5,5,0,0,1,5-5h38a5,5,0,0,1,5,5v15a5.17,5.17,0,0,1-5,5.13l-32.43.87a10.57,10.57,0,0,1-10.57-10.57Z" transform="translate(-0.5 -0.5)"/><path class="cls-2" d="M444.5,141.5a2,2,0,0,1,2-2h4a2,2,0,0,1,2,2v6a2,2,0,0,0,2,2h35c1.1,0,1.39.67.65,1.48l-7.3,8a2.35,2.35,0,0,1-3,.33l-6.72-4.7a7.47,7.47,0,0,0-3.64-1.15h-23a2,2,0,0,1-2-2Z" transform="translate(-0.5 -0.5)"/><path class="cls-3" d="M444.5,141.5a2,2,0,0,1,2-2h4a2,2,0,0,1,2,2v6a2,2,0,0,0,2,2h35c1.1,0,1.39.67.65,1.48l-7.3,8a2.35,2.35,0,0,1-3,.33l-6.72-4.7a7.47,7.47,0,0,0-3.64-1.15h-23a2,2,0,0,1-2-2Z" transform="translate(-0.5 -0.5)"/><path class="cls-2" d="M528.5,517.5a2,2,0,0,1,2-2h15a2,2,0,0,1,2,2v2a2,2,0,0,0,2,2h6a5.2,5.2,0,0,1,3.35,1.47l12.76,13.87a2.84,2.84,0,0,1-2.18,4.66H530.5a2,2,0,0,1-2-2Z" transform="translate(-0.5 -0.5)"/><path class="cls-3" d="M528.5,517.5a2,2,0,0,1,2-2h15a2,2,0,0,1,2,2v2a2,2,0,0,0,2,2h6a5.2,5.2,0,0,1,3.35,1.47l12.76,13.87a2.84,2.84,0,0,1-2.18,4.66H530.5a2,2,0,0,1-2-2Z" transform="translate(-0.5 -0.5)"/><path class="cls-2" d="M558.5,483.5a2,2,0,0,0-2,2v16a2,2,0,0,0,2,2h3a2,2,0,0,1,2,2v8a5.79,5.79,0,0,0,1.38,3.45L576.3,529a3,3,0,0,0,5.2-2.07V485.5a2,2,0,0,0-2-2Z" transform="translate(-0.5 -0.5)"/><path class="cls-3" d="M558.5,483.5a2,2,0,0,0-2,2v16a2,2,0,0,0,2,2h3a2,2,0,0,1,2,2v8a5.79,5.79,0,0,0,1.38,3.45L576.3,529a3,3,0,0,0,5.2-2.07V485.5a2,2,0,0,0-2-2Z" transform="translate(-0.5 -0.5)"/><circle class="cls-4" cx="51" cy="13" r="4.5"/><path class="cls-2" d="M10.5,76.5a2,2,0,0,0-2-2h-3a2,2,0,0,0-2,2h0a2,2,0,0,0,2,2h3a2,2,0,0,0,2-2Z" transform="translate(-0.5 -0.5)"/><path class="cls-3" d="M10.5,76.5a2,2,0,0,0-2-2h-3a2,2,0,0,0-2,2h0a2,2,0,0,0,2,2h3a2,2,0,0,0,2-2Z" transform="translate(-0.5 -0.5)"/><path class="cls-2" d="M10.5,99.5a2,2,0,0,0-2-2h-3a2,2,0,0,0-2,2h0a2,2,0,0,0,2,2h3a2,2,0,0,0,2-2Z" transform="translate(-0.5 -0.5)"/><path class="cls-3" d="M10.5,99.5a2,2,0,0,0-2-2h-3a2,2,0,0,0-2,2h0a2,2,0,0,0,2,2h3a2,2,0,0,0,2-2Z" transform="translate(-0.5 -0.5)"/><path class="cls-2" d="M10.5,124.5a2,2,0,0,0-2-2h-3a2,2,0,0,0-2,2h0a2,2,0,0,0,2,2h3a2,2,0,0,0,2-2Z" transform="translate(-0.5 -0.5)"/><path class="cls-3" d="M10.5,124.5a2,2,0,0,0-2-2h-3a2,2,0,0,0-2,2h0a2,2,0,0,0,2,2h3a2,2,0,0,0,2-2Z" transform="translate(-0.5 -0.5)"/><path class="cls-2" d="M135.5,215.5a2,2,0,0,1-2,2h-10a2,2,0,0,1-2-2v-25a2,2,0,0,1,2-2h33a2,2,0,0,1,2,2h0a2,2,0,0,1-2,2h-19a2,2,0,0,0-2,2v7a2.07,2.07,0,0,0,2,2.05l6.18.16c2.12,1.18,1.47,5.38-.94,5.65l-5.24.1a2.05,2.05,0,0,0-2,2Z" transform="translate(-0.5 -0.5)"/><path class="cls-3" d="M135.5,215.5a2,2,0,0,1-2,2h-10a2,2,0,0,1-2-2v-25a2,2,0,0,1,2-2h33a2,2,0,0,1,2,2h0a2,2,0,0,1-2,2h-19a2,2,0,0,0-2,2v7a2.07,2.07,0,0,0,2,2.05l6.18.16c2.12,1.18,1.47,5.38-.94,5.65l-5.24.1a2.05,2.05,0,0,0-2,2Z" transform="translate(-0.5 -0.5)"/><rect class="cls-2" x="174" y="186" width="14" height="15" rx="2"/><rect class="cls-3" x="174" y="186" width="14" height="15" rx="2"/><rect class="cls-2" x="286" y="392" width="11" height="17" rx="2"/><rect class="cls-3" x="286" y="392" width="11" height="17" rx="2"/><path class="cls-2" d="M286.5,430.5a5.11,5.11,0,0,1,5-5.08l116-1.84a5.11,5.11,0,0,0,5-5.08v-4c0-2.75,1.66-3.49,3.7-1.64l3.6,3.28a13.42,13.42,0,0,1,3.83,8.36l.83,32.59c-1.06,6.26-8.23,7-11.76,1.71l-2.14-4.74a8.44,8.44,0,0,0-7.06-4.56h-112a5,5,0,0,1-5-5Z" transform="translate(-0.5 -0.5)"/><path class="cls-3" d="M286.5,430.5a5.11,5.11,0,0,1,5-5.08l116-1.84a5.11,5.11,0,0,0,5-5.08v-4c0-2.75,1.66-3.49,3.7-1.64l3.6,3.28a13.42,13.42,0,0,1,3.83,8.36l.83,32.59c-1.06,6.26-8.23,7-11.76,1.71l-2.14-4.74a8.44,8.44,0,0,0-7.06-4.56h-112a5,5,0,0,1-5-5Z" transform="translate(-0.5 -0.5)"/><path class="cls-2" d="M515.5,480.5c0-1.1.55-1.29,1.23-.42l4.54,5.84c.68.87.33,1.58-.77,1.58h-3a2,2,0,0,1-2-2Z" transform="translate(-0.5 -0.5)"/><path class="cls-3" d="M515.5,480.5c0-1.1.55-1.29,1.23-.42l4.54,5.84c.68.87.33,1.58-.77,1.58h-3a2,2,0,0,1-2-2Z" transform="translate(-0.5 -0.5)"/><rect class="cls-2" x="515" y="529" width="7" height="11" rx="2"/><rect class="cls-3" x="515" y="529" width="7" height="11" rx="2"/><path class="cls-2" d="M83.5,548.5a2,2,0,0,1-2,2h-13a2,2,0,0,1-2-2v-15a2,2,0,0,1,2-2h40a2,2,0,0,1,2,2v1a2,2,0,0,1-2,2h-23a2,2,0,0,0-2,2Z" transform="translate(-0.5 -0.5)"/><path class="cls-3" d="M83.5,548.5a2,2,0,0,1-2,2h-13a2,2,0,0,1-2-2v-15a2,2,0,0,1,2-2h40a2,2,0,0,1,2,2v1a2,2,0,0,1-2,2h-23a2,2,0,0,0-2,2Z" transform="translate(-0.5 -0.5)"/><rect class="cls-2" x="286" y="352" width="8" height="32" rx="2"/><rect class="cls-3" x="286" y="352" width="8" height="32" rx="2"/><rect class="cls-2" x="558" y="412" width="20" height="18" rx="2"/><rect class="cls-3" x="558" y="412" width="20" height="18" rx="2"/><path class="cls-2" d="M509.56,220.5a2.08,2.08,0,0,0-2.06-2h-3a2,2,0,0,0-2,2h0c0,1.1-.68,2-1.5,2s-1.48.9-1.47,2l1.94,111a4.72,4.72,0,0,0,1.61,3.23l5.84,4.54c.87.68,1.58.33,1.58-.77v-62a2,2,0,0,1,2-2h2a2,2,0,0,0,2-2v-10a2,2,0,0,1,2-2h9a2,2,0,0,0,2-2v-9a2,2,0,0,0-2-2h-15a2.08,2.08,0,0,1-2.06-2Z" transform="translate(-0.5 -0.5)"/><path class="cls-3" d="M509.56,220.5a2.08,2.08,0,0,0-2.06-2h-3a2,2,0,0,0-2,2h0c0,1.1-.68,2-1.5,2s-1.48.9-1.47,2l1.94,111a4.72,4.72,0,0,0,1.61,3.23l5.84,4.54c.87.68,1.58.33,1.58-.77v-62a2,2,0,0,1,2-2h2a2,2,0,0,0,2-2v-10a2,2,0,0,1,2-2h9a2,2,0,0,0,2-2v-9a2,2,0,0,0-2-2h-15a2.08,2.08,0,0,1-2.06-2Z" transform="translate(-0.5 -0.5)"/><path class="cls-2" d="M588.5,272.5h10a2,2,0,0,0,2-2v-4a1.78,1.78,0,0,0-2-1.8l-3.46.34c-4.14.93-6.55,2.46-6.55,7.46Z" transform="translate(-0.5 -0.5)"/><path class="cls-3" d="M588.5,272.5h10a2,2,0,0,0,2-2v-4a1.78,1.78,0,0,0-2-1.8l-3.46.34c-4.14.93-6.55,2.46-6.55,7.46Z" transform="translate(-0.5 -0.5)"/><path class="cls-2" d="M516.57,157.33l64.93-.81a2,2,0,0,0,2-2v-7a2,2,0,0,1,2-2h39a2,2,0,0,1,2,2v7.59a10.71,10.71,0,0,1-10.41,10.71l-91.59.69a7,7,0,0,1-3.6-1.19l-5.54-4.15A2.12,2.12,0,0,1,516.57,157.33Z" transform="translate(-0.5 -0.5)"/><path class="cls-3" d="M516.57,157.33l64.93-.81a2,2,0,0,0,2-2v-7a2,2,0,0,1,2-2h39a2,2,0,0,1,2,2v7.59a10.71,10.71,0,0,1-10.41,10.71l-91.59.69a7,7,0,0,1-3.6-1.19l-5.54-4.15A2.12,2.12,0,0,1,516.57,157.33Z" transform="translate(-0.5 -0.5)"/><path class="cls-2" d="M159.48,629.5c0,1.1.79,1.54,1.73,1l6.58-3.94a3.84,3.84,0,0,0,1.67-3l-1.92-90a2.05,2.05,0,0,0-2-2h-32a2,2,0,0,0-2,2v1a2,2,0,0,0,2,2h23a2,2,0,0,1,2,2Z" transform="translate(-0.5 -0.5)"/><path class="cls-3" d="M159.48,629.5c0,1.1.79,1.54,1.73,1l6.58-3.94a3.84,3.84,0,0,0,1.67-3l-1.92-90a2.05,2.05,0,0,0-2-2h-32a2,2,0,0,0-2,2v1a2,2,0,0,0,2,2h23a2,2,0,0,1,2,2Z" transform="translate(-0.5 -0.5)"/><path class="cls-2" d="M434.76,400.52a3.83,3.83,0,0,1,1.76,3l2,217c0,1.1.69,2,1.52,2s1.49-.9,1.48-2l-2-219a6.19,6.19,0,0,0-1.35-3.49l-39.34-44a5.1,5.1,0,0,0-3.33-1.49h-9a1.9,1.9,0,0,0-1.91,2l.82,19c0,1.1.79,1.44,1.65.75l11.88-9.5a2.22,2.22,0,0,1,2.94.2l17.24,18.1a5.79,5.79,0,0,1,1.38,3.45v4a3.78,3.78,0,0,0,1.74,3Z" transform="translate(-0.5 -0.5)"/><path class="cls-3" d="M434.76,400.52a3.83,3.83,0,0,1,1.76,3l2,217c0,1.1.69,2,1.52,2s1.49-.9,1.48-2l-2-219a6.19,6.19,0,0,0-1.35-3.49l-39.34-44a5.1,5.1,0,0,0-3.33-1.49h-9a1.9,1.9,0,0,0-1.91,2l.82,19c0,1.1.79,1.44,1.65.75l11.88-9.5a2.22,2.22,0,0,1,2.94.2l17.24,18.1a5.79,5.79,0,0,1,1.38,3.45v4a3.78,3.78,0,0,0,1.74,3Z" transform="translate(-0.5 -0.5)"/><path class="cls-2" d="M447.5,586.5a2,2,0,0,1,2-2h1a2,2,0,0,1,2,2v4a2,2,0,0,0,2,2h48a2,2,0,0,0,2-2v-4a2,2,0,0,1,2-2h1a2,2,0,0,1,2,2v21a2,2,0,0,1-2,2h-1a2,2,0,0,0-2,2v1a2,2,0,0,1-2,2h-1a2,2,0,0,0-2,2v4a2,2,0,0,1-2,2h-37a2,2,0,0,1-2-2v-4a2,2,0,0,0-2-2h-2a2,2,0,0,1-2-2v-2a2,2,0,0,0-2-2h-1a2,2,0,0,1-2-2Z" transform="translate(-0.5 -0.5)"/><path class="cls-3" d="M447.5,586.5a2,2,0,0,1,2-2h1a2,2,0,0,1,2,2v4a2,2,0,0,0,2,2h48a2,2,0,0,0,2-2v-4a2,2,0,0,1,2-2h1a2,2,0,0,1,2,2v21a2,2,0,0,1-2,2h-1a2,2,0,0,0-2,2v1a2,2,0,0,1-2,2h-1a2,2,0,0,0-2,2v4a2,2,0,0,1-2,2h-37a2,2,0,0,1-2-2v-4a2,2,0,0,0-2-2h-2a2,2,0,0,1-2-2v-2a2,2,0,0,0-2-2h-1a2,2,0,0,1-2-2Z" transform="translate(-0.5 -0.5)"/><path class="cls-2" d="M626.68,15.14c.1-1.87-1.43-3.52-2.85-4.43L604.42,5.06a16.78,16.78,0,0,0-3.92-.56h-58A5.91,5.91,0,0,0,539,5.86L529,15.14c-.81.75-.57,1.35.53,1.33l66-.94a13.1,13.1,0,0,1,3.88.65l7.24,2.64c1,.37,2.75.93,3.8,1.23l3.79,1.08a10.38,10.38,0,0,0,12.14-5.34Z" transform="translate(-0.5 -0.5)"/><path class="cls-3" d="M626.68,15.14c.1-1.87-1.43-3.52-2.85-4.43L604.42,5.06a16.78,16.78,0,0,0-3.92-.56h-58A5.91,5.91,0,0,0,539,5.86L529,15.14c-.81.75-.57,1.35.53,1.33l66-.94a13.1,13.1,0,0,1,3.88.65l7.24,2.64c1,.37,2.75.93,3.8,1.23l3.79,1.08a10.38,10.38,0,0,0,12.14-5.34Z" transform="translate(-0.5 -0.5)"/><path class="cls-2" d="M510.25,366a1.08,1.08,0,0,1,1.75,1v61a2,2,0,0,1-2,2h-5a2,2,0,0,1-2-2V372a3.76,3.76,0,0,1,1.75-3Z" transform="translate(-0.5 -0.5)"/><path class="cls-3" d="M510.25,366a1.08,1.08,0,0,1,1.75,1v61a2,2,0,0,1-2,2h-5a2,2,0,0,1-2-2V372a3.76,3.76,0,0,1,1.75-3Z" transform="translate(-0.5 -0.5)"/><path class="cls-2" d="M556.5,359.5a2,2,0,0,1,2-2l64-.94c1.1,0,2.9.05,4,.15l.61.06a10.31,10.31,0,0,1,9.33,9.14h0c0,.34.08,1.52.09,2.62l2.05,180.08c0,1.1,0,2.89-.07,4,0,0-.74,16.08-8,21.87l-3.49,2.81a2.29,2.29,0,0,1-3-.16l-5.18-5.18a1.82,1.82,0,0,1,.11-2.71l4-3.4a4.86,4.86,0,0,0,1.5-3.3l-2-192a2,2,0,0,0-2-2h-62a2,2,0,0,1-2-2Z" transform="translate(-0.5 -0.5)"/><path class="cls-3" d="M556.5,359.5a2,2,0,0,1,2-2l64-.94c1.1,0,2.9.05,4,.15l.61.06a10.31,10.31,0,0,1,9.33,9.14h0c0,.34.08,1.52.09,2.62l2.05,180.08c0,1.1,0,2.89-.07,4,0,0-.74,16.08-8,21.87l-3.49,2.81a2.29,2.29,0,0,1-3-.16l-5.18-5.18a1.82,1.82,0,0,1,.11-2.71l4-3.4a4.86,4.86,0,0,0,1.5-3.3l-2-192a2,2,0,0,0-2-2h-62a2,2,0,0,1-2-2Z" transform="translate(-0.5 -0.5)"/><path class="cls-2" d="M509.5,207.5a2,2,0,0,1-2,2h-2a2,2,0,0,1-2-2h0a2,2,0,0,0-2-2h-1a2,2,0,0,1-2-2v-2a2,2,0,0,1,2-2h1a2,2,0,0,0,2-2v-21a2,2,0,0,1,2-2h48a2,2,0,0,1,2,2h0a2,2,0,0,1-2,2h-42a2,2,0,0,0-2,2Z" transform="translate(-0.5 -0.5)"/><path class="cls-3" d="M509.5,207.5a2,2,0,0,1-2,2h-2a2,2,0,0,1-2-2h0a2,2,0,0,0-2-2h-1a2,2,0,0,1-2-2v-2a2,2,0,0,1,2-2h1a2,2,0,0,0,2-2v-21a2,2,0,0,1,2-2h48a2,2,0,0,1,2,2h0a2,2,0,0,1-2,2h-42a2,2,0,0,0-2,2Z" transform="translate(-0.5 -0.5)"/><path class="cls-2" d="M560.5,176.5a2,2,0,0,1,2-2h55c7.19,0,10,3.83,10,11v15a2,2,0,0,1-2,2h-27a2,2,0,0,1-2-2v-20a2,2,0,0,0-2-2h-32a2,2,0,0,1-2-2Z" transform="translate(-0.5 -0.5)"/><path class="cls-3" d="M560.5,176.5a2,2,0,0,1,2-2h55c7.19,0,10,3.83,10,11v15a2,2,0,0,1-2,2h-27a2,2,0,0,1-2-2v-20a2,2,0,0,0-2-2h-32a2,2,0,0,1-2-2Z" transform="translate(-0.5 -0.5)"/><path class="cls-2" d="M608.62,263.5h15.59a11.08,11.08,0,0,1,11.08,11.28l-.73,39.66a3.12,3.12,0,0,1-3.12,3.06h-7.82a3.11,3.11,0,0,1-3.12-3.12V275.62a3.11,3.11,0,0,0-3.12-3.12h-8.76a3.11,3.11,0,0,1-3.12-3.12v-2.76A3.11,3.11,0,0,1,608.62,263.5Z" transform="translate(-0.5 -0.5)"/><path class="cls-3" d="M608.62,263.5h15.59a11.08,11.08,0,0,1,11.08,11.28l-.73,39.66a3.12,3.12,0,0,1-3.12,3.06h-7.82a3.11,3.11,0,0,1-3.12-3.12V275.62a3.11,3.11,0,0,0-3.12-3.12h-8.76a3.11,3.11,0,0,1-3.12-3.12v-2.76A3.11,3.11,0,0,1,608.62,263.5Z" transform="translate(-0.5 -0.5)"/><path class="cls-2" d="M555.5,344.5a2,2,0,0,1,2-2h61a2,2,0,0,0,2-2v-12a2,2,0,0,1,2-2h4a2,2,0,0,1,2,2v20a2,2,0,0,1-2,2h-69a2,2,0,0,1-2-2Z" transform="translate(-0.5 -0.5)"/><path class="cls-3" d="M555.5,344.5a2,2,0,0,1,2-2h61a2,2,0,0,0,2-2v-12a2,2,0,0,1,2-2h4a2,2,0,0,1,2,2v20a2,2,0,0,1-2,2h-69a2,2,0,0,1-2-2Z" transform="translate(-0.5 -0.5)"/><rect class="cls-2" x="595" y="215" width="8" height="33" rx="2"/><rect class="cls-3" x="595" y="215" width="8" height="33" rx="2"/><path class="cls-2" d="M609.5,218.46v26.08a3,3,0,0,0,3,3h8.34a3.09,3.09,0,0,1,1.33.31l3.08,1.55a3,3,0,0,0,4.29-2.65V218.46a3,3,0,0,0-3-3H612.46A3,3,0,0,0,609.5,218.46Z" transform="translate(-0.5 -0.5)"/><path class="cls-3" d="M609.5,218.46v26.08a3,3,0,0,0,3,3h8.34a3.09,3.09,0,0,1,1.33.31l3.08,1.55a3,3,0,0,0,4.29-2.65V218.46a3,3,0,0,0-3-3H612.46A3,3,0,0,0,609.5,218.46Z" transform="translate(-0.5 -0.5)"/><path class="cls-2" d="M530.5,598.5a2,2,0,0,0-2,2v18a2,2,0,0,0,2,2h50a5.58,5.58,0,0,0,3.41-1.41l33.18-33.18a2,2,0,0,0,0-2.82l-5.18-5.18a2,2,0,0,0-2.82,0l-5.18,5.18a5.58,5.58,0,0,1-3.41,1.41h-28a2,2,0,0,0-2,2v9a2,2,0,0,1-2,2h-2a2,2,0,0,0-2,2v6a2,2,0,0,1-2,2h-27a2,2,0,0,1-2-2v-5a2,2,0,0,0-2-2Z" transform="translate(-0.5 -0.5)"/><path class="cls-3" d="M530.5,598.5a2,2,0,0,0-2,2v18a2,2,0,0,0,2,2h50a5.58,5.58,0,0,0,3.41-1.41l33.18-33.18a2,2,0,0,0,0-2.82l-5.18-5.18a2,2,0,0,0-2.82,0l-5.18,5.18a5.58,5.58,0,0,1-3.41,1.41h-28a2,2,0,0,0-2,2v9a2,2,0,0,1-2,2h-2a2,2,0,0,0-2,2v6a2,2,0,0,1-2,2h-27a2,2,0,0,1-2-2v-5a2,2,0,0,0-2-2Z" transform="translate(-0.5 -0.5)"/><path class="cls-2" d="M519.5,546.5a2,2,0,0,0-2,2v13a2,2,0,0,0,2,2h11a2,2,0,0,0,2-2v-9a2,2,0,0,1,2-2h36a5.58,5.58,0,0,1,3.41,1.41l.18.18a5.58,5.58,0,0,0,3.41,1.41h2c1.1,0,1.41-.68.7-1.52l-3.4-4a4.92,4.92,0,0,0-3.3-1.52Z" transform="translate(-0.5 -0.5)"/><path class="cls-3" d="M519.5,546.5a2,2,0,0,0-2,2v13a2,2,0,0,0,2,2h11a2,2,0,0,0,2-2v-9a2,2,0,0,1,2-2h36a5.58,5.58,0,0,1,3.41,1.41l.18.18a5.58,5.58,0,0,0,3.41,1.41h2c1.1,0,1.41-.68.7-1.52l-3.4-4a4.92,4.92,0,0,0-3.3-1.52Z" transform="translate(-0.5 -0.5)"/></g></svg>