<svg id="Layer_1" data-name="Layer 1" xmlns="http://www.w3.org/2000/svg" viewBox="0 0 1247.96 1000.02"><defs><style>.cls-1{fill:#eae6d8;}.cls-2,.cls-4,.cls-6{fill:#afd375;}.cls-3,.cls-5{fill:none;}.cls-3,.cls-4,.cls-5,.cls-6{stroke:#bfe089;}.cls-3,.cls-4,.cls-5,.cls-6,.cls-7,.cls-8{stroke-miterlimit:10;}.cls-3,.cls-4{stroke-width:2px;}.cls-7{fill:#7b7f73;}.cls-7,.cls-8{stroke:#3d3f3a;}.cls-8{fill:#cfd1cb;}</style></defs><g id="Layer_2" data-name="Layer 2"><rect class="cls-1" y="2.51" width="1246.87" height="997.51"/></g><g id="Layer_1-2" data-name="Layer 1"><path class="cls-2" d="M76.22,76.34c-3.66-2.18-5.5-.68-4.09,3.34L90,130.77c1.41,4,5.07,4.9,8.14,2l22.41-21.39a5.58,5.58,0,0,0-1.05-9.27Z" transform="translate(-3.13 1.21)"/><path class="cls-3" d="M76.22,76.34c-3.66-2.18-5.5-.68-4.09,3.34L90,130.77c1.41,4,5.07,4.9,8.14,2l22.41-21.39a5.58,5.58,0,0,0-1.05-9.27Z" transform="translate(-3.13 1.21)"/><path class="cls-2" d="M104.76,141.49a18.75,18.75,0,0,0-5.64,12.8l1.18,51a13.91,13.91,0,0,0,7.14,11.07l21.63,10.32a6.57,6.57,0,0,0,8.83-2.89,6.45,6.45,0,0,0,.44-1.13l24.73-76.46a11.64,11.64,0,0,0-3.82-12l-18.54-13.91a10,10,0,0,0-12,.43Z" transform="translate(-3.13 1.21)"/><path class="cls-3" d="M104.76,141.49a18.75,18.75,0,0,0-5.64,12.8l1.18,51a13.91,13.91,0,0,0,7.14,11.07l21.63,10.32a6.57,6.57,0,0,0,8.83-2.89,6.45,6.45,0,0,0,.44-1.13l24.73-76.46a11.64,11.64,0,0,0-3.82-12l-18.54-13.91a10,10,0,0,0-12,.43Z" transform="translate(-3.13 1.21)"/><path class="cls-2" d="M56.44,190.6c-3.86-1.78-4.37-5.5-1.14-8.25l24.32-20.72c3.23-2.77,6.06-1.55,6.31,2.69l1.9,33.25c.24,4.24-2.71,6.18-6.57,4.48Z" transform="translate(-3.13 1.21)"/><path class="cls-3" d="M56.44,190.6c-3.86-1.78-4.37-5.5-1.14-8.25l24.32-20.72c3.23-2.77,6.06-1.55,6.31,2.69l1.9,33.25c.24,4.24-2.71,6.18-6.57,4.48Z" transform="translate(-3.13 1.21)"/><path class="cls-2" d="M182.85,152a6.18,6.18,0,0,0-8.55,1.81,6.36,6.36,0,0,0-.72,1.54l-25.69,72.05a8.25,8.25,0,0,0,4.55,10.24l41.35,17.25a13.9,13.9,0,0,0,13-2l28.37-24a21.63,21.63,0,0,0,6.57-12.69L243.53,196a13.44,13.44,0,0,0-6-11.62Z" transform="translate(-3.13 1.21)"/><path class="cls-3" d="M182.85,152a6.18,6.18,0,0,0-8.55,1.81,6.36,6.36,0,0,0-.72,1.54l-25.69,72.05a8.25,8.25,0,0,0,4.55,10.24l41.35,17.25a13.9,13.9,0,0,0,13-2l28.37-24a21.63,21.63,0,0,0,6.57-12.69L243.53,196a13.44,13.44,0,0,0-6-11.62Z" transform="translate(-3.13 1.21)"/><path class="cls-2" d="M143.13,245.41a8.18,8.18,0,0,0-10.46,3.91l-13.38,27.82c-1.84,3.83.12,6.86,4.37,6.74l37.09-1.08a8,8,0,0,0,7.73-8V264a12.77,12.77,0,0,0-7.11-10.82Z" transform="translate(-3.13 1.21)"/><path class="cls-3" d="M143.13,245.41a8.18,8.18,0,0,0-10.46,3.91l-13.38,27.82c-1.84,3.83.12,6.86,4.37,6.74l37.09-1.08a8,8,0,0,0,7.73-8V264a12.77,12.77,0,0,0-7.11-10.82Z" transform="translate(-3.13 1.21)"/><path class="cls-2" d="M399.06,294.66l56.45,65.48a8.08,8.08,0,0,0,11.06,1l11.13-8.91a18.07,18.07,0,0,0,6-12.54l-.27-43.27a13.5,13.5,0,0,0-13.2-13.8h-.39l-63.36.45C400.37,282.87,395.28,289.89,399.06,294.66Z" transform="translate(-3.13 1.21)"/><path class="cls-3" d="M399.06,294.66l56.45,65.48a8.08,8.08,0,0,0,11.06,1l11.13-8.91a18.07,18.07,0,0,0,6-12.54l-.27-43.27a13.5,13.5,0,0,0-13.2-13.8h-.39l-63.36.45C400.37,282.87,395.28,289.89,399.06,294.66Z" transform="translate(-3.13 1.21)"/><path class="cls-2" d="M365.14,305.17l2.55,136.55c.07,4.25,2.79,5.47,6,2.72l70.13-59.53a7.31,7.31,0,0,0,.89-10.32l-.29-.33-68.1-72.63C371.78,296.61,365,298.4,365.14,305.17Z" transform="translate(-3.13 1.21)"/><path class="cls-3" d="M365.14,305.17l2.55,136.55c.07,4.25,2.79,5.47,6,2.72l70.13-59.53a7.31,7.31,0,0,0,.89-10.32l-.29-.33-68.1-72.63C371.78,296.61,365,298.4,365.14,305.17Z" transform="translate(-3.13 1.21)"/><path class="cls-2" d="M465.33,390.6a7.17,7.17,0,0,0-10.06-1.27,5.58,5.58,0,0,0-.46.39L372,464.36a19.89,19.89,0,0,0-5.73,12.9v13.91a7.32,7.32,0,0,0,7.25,7.37l.48,0,77.83-3.81c18.55-2.06,28.41-15.46,30-34l1.55-39.11a24.26,24.26,0,0,0-4.48-13.79Z" transform="translate(-3.13 1.21)"/><path class="cls-3" d="M465.33,390.6a7.17,7.17,0,0,0-10.06-1.27,5.58,5.58,0,0,0-.46.39L372,464.36a19.89,19.89,0,0,0-5.73,12.9v13.91a7.32,7.32,0,0,0,7.25,7.37l.48,0,77.83-3.81c18.55-2.06,28.41-15.46,30-34l1.55-39.11a24.26,24.26,0,0,0-4.48-13.79Z" transform="translate(-3.13 1.21)"/><path class="cls-2" d="M27.85,534.44a7.73,7.73,0,0,1,7.73-7.73H85a7.73,7.73,0,0,1,7.73,7.73V615a30.25,30.25,0,0,1-4.28,14.15L70.77,655.75a16.92,16.92,0,0,1-12,6.69l-23.18.77A7.45,7.45,0,0,1,27.86,656c0-.1,0-.21,0-.31Z" transform="translate(-3.13 1.21)"/><path class="cls-3" d="M27.85,534.44a7.73,7.73,0,0,1,7.73-7.73H85a7.73,7.73,0,0,1,7.73,7.73V615a30.25,30.25,0,0,1-4.28,14.15L70.77,655.75a16.92,16.92,0,0,1-12,6.69l-23.18.77A7.45,7.45,0,0,1,27.86,656c0-.1,0-.21,0-.31Z" transform="translate(-3.13 1.21)"/><path class="cls-2" d="M32.6,681.24a8.64,8.64,0,0,1,7.57-8.53l14-1.54a19.81,19.81,0,0,1,13.4,4.39l22.56,20.52A18.9,18.9,0,0,1,95.55,709l-1,24.72a18.7,18.7,0,0,1-6.41,12.44l-48,36.94c-3.37,2.59-6.18,1.23-6.18-3Z" transform="translate(-3.13 1.21)"/><path class="cls-3" d="M32.6,681.24a8.64,8.64,0,0,1,7.57-8.53l14-1.54a19.81,19.81,0,0,1,13.4,4.39l22.56,20.52A18.9,18.9,0,0,1,95.55,709l-1,24.72a18.7,18.7,0,0,1-6.41,12.44l-48,36.94c-3.37,2.59-6.18,1.23-6.18-3Z" transform="translate(-3.13 1.21)"/><path class="cls-2" d="M29.4,811.05a15.83,15.83,0,0,1,6.5-11.9l47.26-30.29c3.58-2.3,6.51-.69,6.51,3.56v89.63a7.73,7.73,0,0,1-7.73,7.72H37.12a7.72,7.72,0,0,1-7.72-7.72Z" transform="translate(-3.13 1.21)"/><path class="cls-3" d="M29.4,811.05a15.83,15.83,0,0,1,6.5-11.9l47.26-30.29c3.58-2.3,6.51-.69,6.51,3.56v89.63a7.73,7.73,0,0,1-7.73,7.72H37.12a7.72,7.72,0,0,1-7.72-7.72Z" transform="translate(-3.13 1.21)"/><path class="cls-2" d="M34,891.41a7.73,7.73,0,0,1,7.73-7.73H86.57a5.16,5.16,0,0,1,5.64,4.63,5.21,5.21,0,0,1-.44,2.67l-7.3,20.95a13.68,13.68,0,0,1-10.2,8.28L41.7,924.42A6.64,6.64,0,0,1,34.06,919a7.11,7.11,0,0,1-.09-1.3Z" transform="translate(-3.13 1.21)"/><path class="cls-3" d="M34,891.41a7.73,7.73,0,0,1,7.73-7.73H86.57a5.16,5.16,0,0,1,5.64,4.63,5.21,5.21,0,0,1-.44,2.67l-7.3,20.95a13.68,13.68,0,0,1-10.2,8.28L41.7,924.42A6.64,6.64,0,0,1,34.06,919a7.11,7.11,0,0,1-.09-1.3Z" transform="translate(-3.13 1.21)"/><path class="cls-2" d="M508.34,44.71a5.1,5.1,0,0,1,0,8.9L501,58.71c-3.49,2.42-6.53.93-6.75-3.31l-.74-13.91c-.22-4.23,2.43-5.68,5.89-3.21Z" transform="translate(-3.13 1.21)"/><path class="cls-3" d="M508.34,44.71a5.1,5.1,0,0,1,0,8.9L501,58.71c-3.49,2.42-6.53.93-6.75-3.31l-.74-13.91c-.22-4.23,2.43-5.68,5.89-3.21Z" transform="translate(-3.13 1.21)"/><path class="cls-2" d="M667.63,274.47a12.35,12.35,0,0,1,11,6.6l2.78,6.05a10.6,10.6,0,0,1-2.7,11.95l-79.28,65.86a10.22,10.22,0,0,1-12.1.25L567.2,349.82a18.3,18.3,0,0,1-6.33-12.37L559.69,288a8,8,0,0,1,7.53-8.14Z" transform="translate(-3.13 1.21)"/><path class="cls-3" d="M667.63,274.47a12.35,12.35,0,0,1,11,6.6l2.78,6.05a10.6,10.6,0,0,1-2.7,11.95l-79.28,65.86a10.22,10.22,0,0,1-12.1.25L567.2,349.82a18.3,18.3,0,0,1-6.33-12.37L559.69,288a8,8,0,0,1,7.53-8.14Z" transform="translate(-3.13 1.21)"/><path class="cls-2" d="M718.66,288c-3.43,2.53-3.29,6.46.29,8.73l38,24.17c3.58,2.27,6.27.68,6-3.57l-2-27.82a16.43,16.43,0,0,0-7.23-11.6l-5.19-3.09a12.75,12.75,0,0,0-12.9.69Z" transform="translate(-3.13 1.21)"/><path class="cls-3" d="M718.66,288c-3.43,2.53-3.29,6.46.29,8.73l38,24.17c3.58,2.27,6.27.68,6-3.57l-2-27.82a16.43,16.43,0,0,0-7.23-11.6l-5.19-3.09a12.75,12.75,0,0,0-12.9.69Z" transform="translate(-3.13 1.21)"/><path class="cls-2" d="M663,421a5.82,5.82,0,0,0-1.78,8,5.71,5.71,0,0,0,1.41,1.53L756,510.11c3.23,2.75,5.81,1.55,5.73-2.72L758.93,359c0-4.25-2.95-5.68-6.38-3.18Z" transform="translate(-3.13 1.21)"/><path class="cls-3" d="M663,421a5.82,5.82,0,0,0-1.78,8,5.71,5.71,0,0,0,1.41,1.53L756,510.11c3.23,2.75,5.81,1.55,5.73-2.72L758.93,359c0-4.25-2.95-5.68-6.38-3.18Z" transform="translate(-3.13 1.21)"/><path class="cls-2" d="M607.94,375.79a6.18,6.18,0,0,0-.13,9.91l31.53,27a10.42,10.42,0,0,0,12.16.54l100.23-71.39a5.09,5.09,0,0,0,0-8.89L708.8,303.18a10.9,10.9,0,0,0-12.36.48Z" transform="translate(-3.13 1.21)"/><path class="cls-3" d="M607.94,375.79a6.18,6.18,0,0,0-.13,9.91l31.53,27a10.42,10.42,0,0,0,12.16.54l100.23-71.39a5.09,5.09,0,0,0,0-8.89L708.8,303.18a10.9,10.9,0,0,0-12.36.48Z" transform="translate(-3.13 1.21)"/><path class="cls-2" d="M583.4,476.56a7.63,7.63,0,0,0-1.59,10.68l0,.06,4.64,6.19a23.53,23.53,0,0,0,12.21,7.72l147.88,30.14a49.63,49.63,0,0,0,11.27,1.14h0c1.79.12,4.25-2.09,2.9-3.26L651.86,435.92a10.29,10.29,0,0,0-12.12-.46Z" transform="translate(-3.13 1.21)"/><path class="cls-3" d="M583.4,476.56a7.63,7.63,0,0,0-1.59,10.68l0,.06,4.64,6.19a23.53,23.53,0,0,0,12.21,7.72l147.88,30.14a49.63,49.63,0,0,0,11.27,1.14h0c1.79.12,4.25-2.09,2.9-3.26L651.86,435.92a10.29,10.29,0,0,0-12.12-.46Z" transform="translate(-3.13 1.21)"/><path class="cls-2" d="M572.58,470.38c-3.43,2.51-6.41,1.09-6.61-3.09l-2.35-47.9a17.1,17.1,0,0,1,5.65-12.54l18.86-15.08a9.27,9.27,0,0,1,11.69.42l29.61,27.38a6.18,6.18,0,0,1,.64,8.72,5.93,5.93,0,0,1-1.21,1.08Z" transform="translate(-3.13 1.21)"/><path class="cls-3" d="M572.58,470.38c-3.43,2.51-6.41,1.09-6.61-3.09l-2.35-47.9a17.1,17.1,0,0,1,5.65-12.54l18.86-15.08a9.27,9.27,0,0,1,11.69.42l29.61,27.38a6.18,6.18,0,0,1,.64,8.72,5.93,5.93,0,0,1-1.21,1.08Z" transform="translate(-3.13 1.21)"/><path class="cls-2" d="M560.65,386.86c.19,4.25,3.09,5.67,6.57,3.09l10.72-7.85a5.42,5.42,0,0,0,1.82-7.45,5.28,5.28,0,0,0-1.82-1.82l-12.36-9.28c-3.4-2.54-6-1.15-5.84,3.1Z" transform="translate(-3.13 1.21)"/><path class="cls-3" d="M560.65,386.86c.19,4.25,3.09,5.67,6.57,3.09l10.72-7.85a5.42,5.42,0,0,0,1.82-7.45,5.28,5.28,0,0,0-1.82-1.82l-12.36-9.28c-3.4-2.54-6-1.15-5.84,3.1Z" transform="translate(-3.13 1.21)"/><path class="cls-2" d="M623.58,529.24l67.59,69.92a8.61,8.61,0,0,0,12.14.6l50.23-44.31c5.3-4.79,7.42-8.94.38-10.21L630,518.07C621.88,516.67,618.09,523.16,623.58,529.24Z" transform="translate(-3.13 1.21)"/><path class="cls-3" d="M623.58,529.24l67.59,69.92a8.61,8.61,0,0,0,12.14.6l50.23-44.31c5.3-4.79,7.42-8.94.38-10.21L630,518.07C621.88,516.67,618.09,523.16,623.58,529.24Z" transform="translate(-3.13 1.21)"/><path class="cls-2" d="M374,512.51a8.12,8.12,0,0,0-7.73,8v24.72a31.84,31.84,0,0,0,4.09,14.28l15,24c2.26,3.6,6.19,3.77,8.73.37l51-68c2.55-3.4,1.16-6.05-3.09-5.88Z" transform="translate(-3.13 1.21)"/><path class="cls-3" d="M374,512.51a8.12,8.12,0,0,0-7.73,8v24.72a31.84,31.84,0,0,0,4.09,14.28l15,24c2.26,3.6,6.19,3.77,8.73.37l51-68c2.55-3.4,1.16-6.05-3.09-5.88Z" transform="translate(-3.13 1.21)"/><path class="cls-2" d="M399.36,614.61a14.45,14.45,0,0,1,.42-13.29L431.68,551c2.28-3.58,4.17-3.09,4.23,1.21l1.36,123.62c0,4.25-1.54,4.64-3.63,1Z" transform="translate(-3.13 1.21)"/><path class="cls-3" d="M399.36,614.61a14.45,14.45,0,0,1,.42-13.29L431.68,551c2.28-3.58,4.17-3.09,4.23,1.21l1.36,123.62c0,4.25-1.54,4.64-3.63,1Z" transform="translate(-3.13 1.21)"/><path class="cls-2" d="M394.6,624.72c-2-3.76-5.53-4-7.88-.41l-13.07,19.6a10.24,10.24,0,0,0,1,12.05L412,695.71A23.34,23.34,0,0,0,425,702l3.09.25c4.24.35,6.07-2.43,4.1-6.18Z" transform="translate(-3.13 1.21)"/><path class="cls-3" d="M394.6,624.72c-2-3.76-5.53-4-7.88-.41l-13.07,19.6a10.24,10.24,0,0,0,1,12.05L412,695.71A23.34,23.34,0,0,0,425,702l3.09.25c4.24.35,6.07-2.43,4.1-6.18Z" transform="translate(-3.13 1.21)"/><path class="cls-2" d="M764.76,569.73l-23.6,51.18A23.55,23.55,0,0,1,731,631a11.46,11.46,0,0,1-12.2-2.58l-8.06-8.75a7.62,7.62,0,0,1,.47-10.78l0,0,48.26-43.27a3.43,3.43,0,0,1,5.27,4.12Z" transform="translate(-3.13 1.21)"/><path class="cls-3" d="M764.76,569.73l-23.6,51.18A23.55,23.55,0,0,1,731,631a11.46,11.46,0,0,1-12.2-2.58l-8.06-8.75a7.62,7.62,0,0,1,.47-10.78l0,0,48.26-43.27a3.43,3.43,0,0,1,5.27,4.12Z" transform="translate(-3.13 1.21)"/><path class="cls-2" d="M528.38,308.57a8.07,8.07,0,0,1-11.09.6l-11.5-10a6.45,6.45,0,0,1-1-9.08,5.8,5.8,0,0,1,1-1l9.89-8.5a9.83,9.83,0,0,1,12-.25l9.49,7.45a7,7,0,0,1,1.33,9.83,5.88,5.88,0,0,1-.52.6Z" transform="translate(-3.13 1.21)"/><path class="cls-3" d="M528.38,308.57a8.07,8.07,0,0,1-11.09.6l-11.5-10a6.45,6.45,0,0,1-1-9.08,5.8,5.8,0,0,1,1-1l9.89-8.5a9.83,9.83,0,0,1,12-.25l9.49,7.45a7,7,0,0,1,1.33,9.83,5.88,5.88,0,0,1-.52.6Z" transform="translate(-3.13 1.21)"/><path class="cls-2" d="M527.77,329.68a7.73,7.73,0,0,0-10.93,0h0L504.59,342a21.46,21.46,0,0,0-5.47,13.2v38.63a7.72,7.72,0,0,0,7.72,7.73h30.91a7.73,7.73,0,0,0,7.73-7.73V355.24a21.57,21.57,0,0,0-5.35-13.2Z" transform="translate(-3.13 1.21)"/><path class="cls-3" d="M527.77,329.68a7.73,7.73,0,0,0-10.93,0h0L504.59,342a21.46,21.46,0,0,0-5.47,13.2v38.63a7.72,7.72,0,0,0,7.72,7.73h30.91a7.73,7.73,0,0,0,7.73-7.73V355.24a21.57,21.57,0,0,0-5.35-13.2Z" transform="translate(-3.13 1.21)"/><path class="cls-2" d="M973.59,967.13a7.73,7.73,0,0,0,7.73-7.73V937.77a23.65,23.65,0,0,0-5.13-13.51l-2.1-2.35a7.92,7.92,0,0,0-11-.75l-31.52,27a18.18,18.18,0,0,0-5.87,12,7.39,7.39,0,0,0,7.72,7Z" transform="translate(-3.13 1.21)"/><path class="cls-3" d="M973.59,967.13a7.73,7.73,0,0,0,7.73-7.73V937.77a23.65,23.65,0,0,0-5.13-13.51l-2.1-2.35a7.92,7.92,0,0,0-11-.75l-31.52,27a18.18,18.18,0,0,0-5.87,12,7.39,7.39,0,0,0,7.72,7Z" transform="translate(-3.13 1.21)"/><path class="cls-2" d="M766.6,254.79c-2.6,3.37-1.24,6.19,3,6.19h17c4.25,0,5.48-2.66,2.73-5.91l-7-8.28a6,6,0,0,0-8.38-1.17,6.06,6.06,0,0,0-1.33,1.39Z" transform="translate(-3.13 1.21)"/><path class="cls-3" d="M766.6,254.79c-2.6,3.37-1.24,6.19,3,6.19h17c4.25,0,5.48-2.66,2.73-5.91l-7-8.28a6,6,0,0,0-8.38-1.17,6.06,6.06,0,0,0-1.33,1.39Z" transform="translate(-3.13 1.21)"/><rect class="cls-2" x="27.82" y="472.29" width="43.27" height="16.23" rx="3.09"/><rect class="cls-3" x="27.82" y="472.29" width="43.27" height="16.23" rx="3.09"/><rect class="cls-2" x="27.82" y="496.24" width="43.27" height="17.77" rx="3.09"/><rect class="cls-3" x="27.82" y="496.24" width="43.27" height="17.77" rx="3.09"/><path class="cls-2" d="M90.93,647c2.71-3.28,4.92-2.49,4.92,1.76v27.82c0,4.25-2.74,5.58-6.08,2.95l-9.48-7.45A7.54,7.54,0,0,1,79,661.52l.13-.15Z" transform="translate(-3.13 1.21)"/><path class="cls-3" d="M90.93,647c2.71-3.28,4.92-2.49,4.92,1.76v27.82c0,4.25-2.74,5.58-6.08,2.95l-9.48-7.45A7.54,7.54,0,0,1,79,661.52l.13-.15Z" transform="translate(-3.13 1.21)"/><path class="cls-2" d="M373.34,620.53c-2.18,3.64-4,3.09-4-1.1V588.52c0-4.25,1.79-4.74,4-1.09l6,9.92a14.26,14.26,0,0,1,0,13.26Z" transform="translate(-3.13 1.21)"/><path class="cls-3" d="M373.34,620.53c-2.18,3.64-4,3.09-4-1.1V588.52c0-4.25,1.79-4.74,4-1.09l6,9.92a14.26,14.26,0,0,1,0,13.26Z" transform="translate(-3.13 1.21)"/><path class="cls-2" d="M391.85,918.23c2.09-3.7,3.79-3.26,3.79,1v43.27a7,7,0,0,1-13.91,1.32,7.27,7.27,0,0,1,0-1.32V944a35.11,35.11,0,0,1,3.79-14.47Z" transform="translate(-3.13 1.21)"/><path class="cls-3" d="M391.85,918.23c2.09-3.7,3.79-3.26,3.79,1v43.27a7,7,0,0,1-13.91,1.32,7.27,7.27,0,0,1,0-1.32V944a35.11,35.11,0,0,1,3.79-14.47Z" transform="translate(-3.13 1.21)"/><path class="cls-2" d="M367.39,962.51a7.23,7.23,0,0,1-6.72,7.71l-.57,0H347.74a7.73,7.73,0,0,1-7.73-7.73V922.33c0-4.25,2.38-5.19,5.3-2.1L361,936.79a24.75,24.75,0,0,1,5.73,13.34Z" transform="translate(-3.13 1.21)"/><path class="cls-3" d="M367.39,962.51a7.23,7.23,0,0,1-6.72,7.71l-.57,0H347.74a7.73,7.73,0,0,1-7.73-7.73V922.33c0-4.25,2.38-5.19,5.3-2.1L361,936.79a24.75,24.75,0,0,1,5.73,13.34Z" transform="translate(-3.13 1.21)"/><path class="cls-2" d="M359.11,674.18a8.32,8.32,0,0,1,11.25,0L400.89,703c5.74,5.31,4,11.8-3.77,12.51L344.58,718a7.33,7.33,0,0,1-7.71-6.92,3.49,3.49,0,0,1,0-.46v-7.72a20.58,20.58,0,0,1,5.62-13Z" transform="translate(-3.13 1.21)"/><path class="cls-3" d="M359.11,674.18a8.32,8.32,0,0,1,11.25,0L400.89,703c5.74,5.31,4,11.8-3.77,12.51L344.58,718a7.33,7.33,0,0,1-7.71-6.92,3.49,3.49,0,0,1,0-.46v-7.72a20.58,20.58,0,0,1,5.62-13Z" transform="translate(-3.13 1.21)"/><rect class="cls-2" x="186.98" y="668.54" width="34" height="29.36" rx="7.73"/><rect class="cls-3" x="186.98" y="668.54" width="34" height="29.36" rx="7.73"/><path class="cls-2" d="M240.15,237c3.09-2.93,5.89-1.87,6.26,2.37l1.76,20.09c.37,4.23-1.07,9.42-3.2,11.55s-7.12,2.66-11.11,1.19L219,266.69c-4-1.46-4.72-5.06-1.65-8Z" transform="translate(-3.13 1.21)"/><path class="cls-3" d="M240.15,237c3.09-2.93,5.89-1.87,6.26,2.37l1.76,20.09c.37,4.23-1.07,9.42-3.2,11.55s-7.12,2.66-11.11,1.19L219,266.69c-4-1.46-4.72-5.06-1.65-8Z" transform="translate(-3.13 1.21)"/><path class="cls-2" d="M189.12,62.23c3.09-2.92,4.45-2,3.09,2l-18.05,50.35a7,7,0,0,1-8.91,4.4,6.52,6.52,0,0,1-.73-.29l-16.81-7.58c-3.88-1.74-4.51-5.54-1.42-8.46Z" transform="translate(-3.13 1.21)"/><path class="cls-3" d="M189.12,62.23c3.09-2.92,4.45-2,3.09,2l-18.05,50.35a7,7,0,0,1-8.91,4.4,6.52,6.52,0,0,1-.73-.29l-16.81-7.58c-3.88-1.74-4.51-5.54-1.42-8.46Z" transform="translate(-3.13 1.21)"/><path class="cls-2" d="M211.75,19.7c4.25.08,5.2,2.54,2.11,5.46L140.09,94.88a10,10,0,0,1-12,.92l-63-43.74c-3.49-2.42-3.09-5.7.82-7.29l58.29-23.58a45.11,45.11,0,0,1,14.9-2.75Z" transform="translate(-3.13 1.21)"/><path class="cls-3" d="M211.75,19.7c4.25.08,5.2,2.54,2.11,5.46L140.09,94.88a10,10,0,0,1-12,.92l-63-43.74c-3.49-2.42-3.09-5.7.82-7.29l58.29-23.58a45.11,45.11,0,0,1,14.9-2.75Z" transform="translate(-3.13 1.21)"/><path class="cls-2" d="M49.49,58.48A70.94,70.94,0,0,1,57,71.83l26.67,66a10.26,10.26,0,0,1-3.43,11.63l-35.4,24.91c-13.8,8.05-19.5-9.85-19-25.83l.46-79.26a23.8,23.8,0,0,1,5.21-13.47l3.58-4a6.18,6.18,0,0,1,8.71-.75,5.81,5.81,0,0,1,1.09,1.18Z" transform="translate(-3.13 1.21)"/><path class="cls-3" d="M49.49,58.48A70.94,70.94,0,0,1,57,71.83l26.67,66a10.26,10.26,0,0,1-3.43,11.63l-35.4,24.91c-13.8,8.05-19.5-9.85-19-25.83l.46-79.26a23.8,23.8,0,0,1,5.21-13.47l3.58-4a6.18,6.18,0,0,1,8.71-.75,5.81,5.81,0,0,1,1.09,1.18Z" transform="translate(-3.13 1.21)"/><path class="cls-2" d="M225.21,30.3c2.79-3.19,5.23-2.34,5.44,1.89l.83,18.54a13.54,13.54,0,0,1-6.43,11.41L221.62,64a14.8,14.8,0,0,0-7,11.42l-1.21,55.64a10.13,10.13,0,0,0,7.33,9.59l9.73,2.44a11.31,11.31,0,0,1,8,9.58l.52,7.73c.28,4.24-2.45,5.9-6.09,3.69L182.8,133.58a9.19,9.19,0,0,1-3.54-11.11L210.17,51.2a59.1,59.1,0,0,1,8.14-12.92Z" transform="translate(-3.13 1.21)"/><path class="cls-3" d="M225.21,30.3c2.79-3.19,5.23-2.34,5.44,1.89l.83,18.54a13.54,13.54,0,0,1-6.43,11.41L221.62,64a14.8,14.8,0,0,0-7,11.42l-1.21,55.64a10.13,10.13,0,0,0,7.33,9.59l9.73,2.44a11.31,11.31,0,0,1,8,9.58l.52,7.73c.28,4.24-2.45,5.9-6.09,3.69L182.8,133.58a9.19,9.19,0,0,1-3.54-11.11L210.17,51.2a59.1,59.1,0,0,1,8.14-12.92Z" transform="translate(-3.13 1.21)"/><path class="cls-2" d="M508.88,314.4a6.81,6.81,0,0,1,.73,9.61,7.19,7.19,0,0,1-.73.73l-3.95,3.57c-3.17,2.84-5.75,1.7-5.75-2.55V313.39c0-4.25,2.58-5.41,5.75-2.56Z" transform="translate(-3.13 1.21)"/><path class="cls-3" d="M508.88,314.4a6.81,6.81,0,0,1,.73,9.61,7.19,7.19,0,0,1-.73.73l-3.95,3.57c-3.17,2.84-5.75,1.7-5.75-2.55V313.39c0-4.25,2.58-5.41,5.75-2.56Z" transform="translate(-3.13 1.21)"/><path class="cls-2" d="M38.67,940.86a7,7,0,0,1,6.85-7.09,8.64,8.64,0,0,1,.88,0l42.49,3.8c7.48,1.08,20.42,8.16,25,14.17L123,968.12c2.09,3.71.31,6.8-3.94,6.87l-72.63,1.27a7.58,7.58,0,0,1-7.72-7.45v-.14Z" transform="translate(-3.13 1.21)"/><path class="cls-3" d="M38.67,940.86a7,7,0,0,1,6.85-7.09,8.64,8.64,0,0,1,.88,0l42.49,3.8c7.48,1.08,20.42,8.16,25,14.17L123,968.12c2.09,3.71.31,6.8-3.94,6.87l-72.63,1.27a7.58,7.58,0,0,1-7.72-7.45v-.14Z" transform="translate(-3.13 1.21)"/><path class="cls-2" d="M527.41,44a5.09,5.09,0,0,0,0,8.89L534.8,58c3.49,2.43,6.53.93,6.75-3.31l.74-13.9c.22-4.24-2.42-5.69-5.89-3.23Z" transform="translate(-3.13 1.21)"/><path class="cls-3" d="M527.41,44a5.09,5.09,0,0,0,0,8.89L534.8,58c3.49,2.43,6.53.93,6.75-3.31l.74-13.9c.22-4.24-2.42-5.69-5.89-3.23Z" transform="translate(-3.13 1.21)"/><rect class="cls-2" x="241.07" y="668.54" width="34" height="29.36" rx="7.73"/><rect class="cls-3" x="241.07" y="668.54" width="34" height="29.36" rx="7.73"/><path class="cls-2" d="M535.83,314.41a6.82,6.82,0,0,0-.73,9.61,7.19,7.19,0,0,0,.73.73l4,3.57c3.17,2.84,5.75,1.69,5.75-2.56V313.39c0-4.25-2.58-5.39-5.75-2.55Z" transform="translate(-3.13 1.21)"/><path class="cls-3" d="M535.83,314.41a6.82,6.82,0,0,0-.73,9.61,7.19,7.19,0,0,0,.73.73l4,3.57c3.17,2.84,5.75,1.69,5.75-2.56V313.39c0-4.25-2.58-5.39-5.75-2.55Z" transform="translate(-3.13 1.21)"/><path class="cls-2" d="M123.85,566.89c-.09-4.25-2.94-5.61-6.31-3l-7.85,6a17.81,17.81,0,0,0-6.18,12.44V685.88a20,20,0,0,0,5.72,12.92l5.56,5.07a23.25,23.25,0,0,0,13.45,5.19H170a7.73,7.73,0,0,0,7.73-7.73v-9.27a7.73,7.73,0,0,0-7.73-7.73H134.42a8,8,0,0,1-7.91-7.72Z" transform="translate(-3.13 1.21)"/><path class="cls-3" d="M123.85,566.89c-.09-4.25-2.94-5.61-6.31-3l-7.85,6a17.81,17.81,0,0,0-6.18,12.44V685.88a20,20,0,0,0,5.72,12.92l5.56,5.07a23.25,23.25,0,0,0,13.45,5.19H170a7.73,7.73,0,0,0,7.73-7.73v-9.27a7.73,7.73,0,0,0-7.73-7.73H134.42a8,8,0,0,1-7.91-7.72Z" transform="translate(-3.13 1.21)"/><rect class="cls-2" x="132.9" y="983.79" width="74.18" height="10.82" rx="3.09"/><rect class="cls-3" x="132.9" y="983.79" width="74.18" height="10.82" rx="3.09"/><rect class="cls-2" x="75.72" y="983.79" width="32.45" height="10.82" rx="3.09"/><rect class="cls-3" x="75.72" y="983.79" width="32.45" height="10.82" rx="3.09"/><path class="cls-4" d="M275.1,981h92.72l-4.17,5.84a11.85,11.85,0,0,1-9.67,5H275.17Z" transform="translate(-3.13 1.21)"/><path class="cls-4" d="M380.19,981h55.63v9.27H392.47a11.4,11.4,0,0,1-9.49-5.09Z" transform="translate(-3.13 1.21)"/><path class="cls-2" d="M272,146.56c0,4.25-3.09,6.34-6.95,4.64a22.85,22.85,0,0,1-10-10,43.22,43.22,0,0,1-3.1-14.68V32.21a32.53,32.53,0,0,1,1.55-10.82,12.17,12.17,0,0,1,4.64-4.64,32.5,32.5,0,0,1,10.81-1.54h85a7.72,7.72,0,0,1,7.72,7.72v6.19a7.72,7.72,0,0,1-7.72,7.72H279.74A7.73,7.73,0,0,0,272,44.57Z" transform="translate(-3.13 1.21)"/><path class="cls-3" d="M272,146.56c0,4.25-3.09,6.34-6.95,4.64a22.85,22.85,0,0,1-10-10,43.22,43.22,0,0,1-3.1-14.68V32.21a32.53,32.53,0,0,1,1.55-10.82,12.17,12.17,0,0,1,4.64-4.64,32.5,32.5,0,0,1,10.81-1.54h85a7.72,7.72,0,0,1,7.72,7.72v6.19a7.72,7.72,0,0,1-7.72,7.72H279.74A7.73,7.73,0,0,0,272,44.57Z" transform="translate(-3.13 1.21)"/><path class="cls-2" d="M480.06,503.05c2.86-3.09,5.81-2.27,6.54,1.92l3.52,20.3a6.28,6.28,0,0,1-4.81,7.48,6,6,0,0,1-1.59.14H460.54c-4.25,0-5.37-2.56-2.51-5.7Z" transform="translate(-3.13 1.21)"/><path class="cls-3" d="M480.06,503.05c2.86-3.09,5.81-2.27,6.54,1.92l3.52,20.3a6.28,6.28,0,0,1-4.81,7.48,6,6,0,0,1-1.59.14H460.54c-4.25,0-5.37-2.56-2.51-5.7Z" transform="translate(-3.13 1.21)"/><path class="cls-2" d="M568.83,503.05C566,500,563,500.78,562.29,505l-3.54,20.3a6.29,6.29,0,0,0,6.41,7.62h23.18c4.25,0,5.38-2.56,2.52-5.7Z" transform="translate(-3.13 1.21)"/><path class="cls-3" d="M568.83,503.05C566,500,563,500.78,562.29,505l-3.54,20.3a6.29,6.29,0,0,0,6.41,7.62h23.18c4.25,0,5.38-2.56,2.52-5.7Z" transform="translate(-3.13 1.21)"/><path class="cls-2" d="M489.91,386.26c-.19,4.25-3.1,5.67-6.57,3.09l-10.73-7.85a5.44,5.44,0,0,1-1.82-7.46,5.55,5.55,0,0,1,1.82-1.82L485,363c3.4-2.55,6-1.16,5.84,3.09Z" transform="translate(-3.13 1.21)"/><path class="cls-3" d="M489.91,386.26c-.19,4.25-3.1,5.67-6.57,3.09l-10.73-7.85a5.44,5.44,0,0,1-1.82-7.46,5.55,5.55,0,0,1,1.82-1.82L485,363c3.4-2.55,6-1.16,5.84,3.09Z" transform="translate(-3.13 1.21)"/><path class="cls-2" d="M530.55,211.57a5.09,5.09,0,0,0,0,8.89l7.38,5.11c3.5,2.41,6.54.93,6.76-3.32l.74-13.91c.22-4.25-2.43-5.7-5.89-3.23Z" transform="translate(-3.13 1.21)"/><path class="cls-3" d="M530.55,211.57a5.09,5.09,0,0,0,0,8.89l7.38,5.11c3.5,2.41,6.54.93,6.76-3.32l.74-13.91c.22-4.25-2.43-5.7-5.89-3.23Z" transform="translate(-3.13 1.21)"/><path class="cls-2" d="M511.31,211.57a5.1,5.1,0,0,1-.08,8.89l-7.39,5.11c-3.49,2.41-6.52.93-6.75-3.32l-.73-13.91c-.23-4.25,2.42-5.7,5.88-3.23Z" transform="translate(-3.13 1.21)"/><path class="cls-3" d="M511.31,211.57a5.1,5.1,0,0,1-.08,8.89l-7.39,5.11c-3.49,2.41-6.52.93-6.75-3.32l-.73-13.91c-.23-4.25,2.42-5.7,5.88-3.23Z" transform="translate(-3.13 1.21)"/><path class="cls-2" d="M762.45,607.45c2.25-3.61,4.15-3.09,4.25,1.16l1.18,49.45a7.53,7.53,0,0,1-7.32,7.73h-.22a12.88,12.88,0,0,1-10.82-6.95,43.31,43.31,0,0,1-3.09-14.68v-3.1a32.18,32.18,0,0,1,4.06-14.29Z" transform="translate(-3.13 1.21)"/><path class="cls-3" d="M762.45,607.45c2.25-3.61,4.15-3.09,4.25,1.16l1.18,49.45a7.53,7.53,0,0,1-7.32,7.73h-.22a12.88,12.88,0,0,1-10.82-6.95,43.31,43.31,0,0,1-3.09-14.68v-3.1a32.18,32.18,0,0,1,4.06-14.29Z" transform="translate(-3.13 1.21)"/><rect class="cls-2" x="718.58" y="682.45" width="13.91" height="13.91" rx="3.09"/><rect class="cls-3" x="718.58" y="682.45" width="13.91" height="13.91" rx="3.09"/><path class="cls-2" d="M692,650.34c.19-4.25,1.73-8.77,3.43-10.05a8,8,0,0,1,7-.77c2.13.85,4,5,4.19,9.27l.89,21.64a7.36,7.36,0,0,1-7,7.71h-1.94a7.35,7.35,0,0,1-7.39-7.31c0-.14,0-.28,0-.41Z" transform="translate(-3.13 1.21)"/><path class="cls-3" d="M692,650.34c.19-4.25,1.73-8.77,3.43-10.05a8,8,0,0,1,7-.77c2.13.85,4,5,4.19,9.27l.89,21.64a7.36,7.36,0,0,1-7,7.71h-1.94a7.35,7.35,0,0,1-7.39-7.31c0-.14,0-.28,0-.41Z" transform="translate(-3.13 1.21)"/><path class="cls-2" d="M795.88,689a7.73,7.73,0,0,1,7.73-7.73h7.72a7.73,7.73,0,0,1,7.73,7.73v37.09c0,4.25-2.89,5.79-6.43,3.44l-10.32-6.89a16.15,16.15,0,0,1-6.43-12Z" transform="translate(-3.13 1.21)"/><path class="cls-3" d="M795.88,689a7.73,7.73,0,0,1,7.73-7.73h7.72a7.73,7.73,0,0,1,7.73,7.73v37.09c0,4.25-2.89,5.79-6.43,3.44l-10.32-6.89a16.15,16.15,0,0,1-6.43-12Z" transform="translate(-3.13 1.21)"/><path class="cls-2" d="M495.31,169a7.73,7.73,0,0,1,7.73-7.73h35.54a7.73,7.73,0,0,1,7.73,7.73v10.81a20.48,20.48,0,0,1-5.64,13l-13.45,12.61a8.71,8.71,0,0,1-11.43.17l-14.68-13a19.63,19.63,0,0,1-5.8-12.85Z" transform="translate(-3.13 1.21)"/><path class="cls-3" d="M495.31,169a7.73,7.73,0,0,1,7.73-7.73h35.54a7.73,7.73,0,0,1,7.73,7.73v10.81a20.48,20.48,0,0,1-5.64,13l-13.45,12.61a8.71,8.71,0,0,1-11.43.17l-14.68-13a19.63,19.63,0,0,1-5.8-12.85Z" transform="translate(-3.13 1.21)"/><path class="cls-2" d="M526.62,225.82a9.15,9.15,0,0,0-11.65,0l-11.5,10a11.51,11.51,0,0,0-2.9,12.2l4.94,12a12.52,12.52,0,0,0,10.67,7.14h7.72a14.65,14.65,0,0,0,11.52-6.74l6.33-11.25a10,10,0,0,0-2-11.82Z" transform="translate(-3.13 1.21)"/><path class="cls-3" d="M526.62,225.82a9.15,9.15,0,0,0-11.65,0l-11.5,10a11.51,11.51,0,0,0-2.9,12.2l4.94,12a12.52,12.52,0,0,0,10.67,7.14h7.72a14.65,14.65,0,0,0,11.52-6.74l6.33-11.25a10,10,0,0,0-2-11.82Z" transform="translate(-3.13 1.21)"/><circle class="cls-4" cx="561.73" cy="261.35" r="6.95"/><circle class="cls-4" cx="475.19" cy="261.35" r="6.95"/><path class="cls-2" d="M54.68,202.38l26.49,12.05a13.15,13.15,0,0,1,7,10.94V267.1c0,4.25-2.09,4.94-4.64,1.54L41.19,212.55C36.72,205.44,46.71,199.72,54.68,202.38Z" transform="translate(-3.13 1.21)"/><path class="cls-3" d="M54.68,202.38l26.49,12.05a13.15,13.15,0,0,1,7,10.94V267.1c0,4.25-2.09,4.94-4.64,1.54L41.19,212.55C36.72,205.44,46.71,199.72,54.68,202.38Z" transform="translate(-3.13 1.21)"/><path class="cls-2" d="M97.79,230c-.21-4.23,2.8-6.33,6.71-4.63l18.24,7.82a6.25,6.25,0,0,1,3.64,8.06,6,6,0,0,1-.77,1.44l-20.89,31.86c-2.34,3.56-4.42,3-4.64-1.25Z" transform="translate(-3.13 1.21)"/><path class="cls-3" d="M97.79,230c-.21-4.23,2.8-6.33,6.71-4.63l18.24,7.82a6.25,6.25,0,0,1,3.64,8.06,6,6,0,0,1-.77,1.44l-20.89,31.86c-2.34,3.56-4.42,3-4.64-1.25Z" transform="translate(-3.13 1.21)"/><path class="cls-2" d="M26.15,222.28c0-4.25,2.3-5,4.93-1.65l47.63,60.48c2.63,3.34,1.3,6.18-2.95,6.28l-43.27,1.14a7.34,7.34,0,0,1-7.57-7.1,3.09,3.09,0,0,1,0-.43Z" transform="translate(-3.13 1.21)"/><path class="cls-3" d="M26.15,222.28c0-4.25,2.3-5,4.93-1.65l47.63,60.48c2.63,3.34,1.3,6.18-2.95,6.28l-43.27,1.14a7.34,7.34,0,0,1-7.57-7.1,3.09,3.09,0,0,1,0-.43Z" transform="translate(-3.13 1.21)"/><path class="cls-2" d="M24.87,305.73a7.09,7.09,0,0,1,6.9-7.28,5.4,5.4,0,0,1,.7,0l32.19,1.94c9,1.81,10.28,16.79,5.26,24.5L38,368.18c-3.63,4.23-12.11,3.35-12.36-2.23Z" transform="translate(-3.13 1.21)"/><path class="cls-3" d="M24.87,305.73a7.09,7.09,0,0,1,6.9-7.28,5.4,5.4,0,0,1,.7,0l32.19,1.94c9,1.81,10.28,16.79,5.26,24.5L38,368.18c-3.63,4.23-12.11,3.35-12.36-2.23Z" transform="translate(-3.13 1.21)"/><path class="cls-2" d="M85,325.83c2.55-3.41,4.64-2.72,4.64,1.55V439.79c0,9-6.81,15-15.78,15.93l-38.31,1.22a7.72,7.72,0,0,1-8-7.48l-1.09-37.09a26,26,0,0,1,4.39-13.91Z" transform="translate(-3.13 1.21)"/><path class="cls-3" d="M85,325.83c2.55-3.41,4.64-2.72,4.64,1.55V439.79c0,9-6.81,15-15.78,15.93l-38.31,1.22a7.72,7.72,0,0,1-8-7.48l-1.09-37.09a26,26,0,0,1,4.39-13.91Z" transform="translate(-3.13 1.21)"/><path class="cls-2" d="M104.08,551.42a6.55,6.55,0,0,1,5.89-7.16,6.37,6.37,0,0,1,1.31,0l6.19.43c4.25.31,5.34,3.09,2.45,6.18l-9.58,10.32c-2.89,3.09-5.48,2.18-5.76-2.05Z" transform="translate(-3.13 1.21)"/><path class="cls-3" d="M104.08,551.42a6.55,6.55,0,0,1,5.89-7.16,6.37,6.37,0,0,1,1.31,0l6.19.43c4.25.31,5.34,3.09,2.45,6.18l-9.58,10.32c-2.89,3.09-5.48,2.18-5.76-2.05Z" transform="translate(-3.13 1.21)"/><path class="cls-2" d="M94.84,908.78c2.26-3.6,4.42-3.09,4.82,1.14l1.64,17c.4,4.23-2.49,6.35-6.41,4.73l-6.18-2.57a4.81,4.81,0,0,1-2.62-6.29,4.31,4.31,0,0,1,.38-.74Z" transform="translate(-3.13 1.21)"/><path class="cls-3" d="M94.84,908.78c2.26-3.6,4.42-3.09,4.82,1.14l1.64,17c.4,4.23-2.49,6.35-6.41,4.73l-6.18-2.57a4.81,4.81,0,0,1-2.62-6.29,4.31,4.31,0,0,1,.38-.74Z" transform="translate(-3.13 1.21)"/><path class="cls-2" d="M129.8,961.87c-1.67-3.9,0-5.54,3.86-3.64L160,971.39c3.8,1.9,3.43,3.64-.81,3.85l-15.45.77a11.94,11.94,0,0,1-10.82-6.72Z" transform="translate(-3.13 1.21)"/><path class="cls-3" d="M129.8,961.87c-1.67-3.9,0-5.54,3.86-3.64L160,971.39c3.8,1.9,3.43,3.64-.81,3.85l-15.45.77a11.94,11.94,0,0,1-10.82-6.72Z" transform="translate(-3.13 1.21)"/><path class="cls-2" d="M112.85,896a6,6,0,0,0-6.19,7.56l4.64,21.84A29.15,29.15,0,0,0,127,945.53l50,24.38a39.66,39.66,0,0,0,14.66,3.4H221a7.73,7.73,0,0,0,7.73-7.73V942.4a7.73,7.73,0,0,0-7.73-7.72H185.46c-4.25,0-7.73-2.78-7.73-6.18s-3.47-6.29-7.72-6.43L137.56,921a10.09,10.09,0,0,1-9.15-7.84l-1.8-9.55a9.7,9.7,0,0,0-9.14-7.59Z" transform="translate(-3.13 1.21)"/><path class="cls-3" d="M112.85,896a6,6,0,0,0-6.19,7.56l4.64,21.84A29.15,29.15,0,0,0,127,945.53l50,24.38a39.66,39.66,0,0,0,14.66,3.4H221a7.73,7.73,0,0,0,7.73-7.73V942.4a7.73,7.73,0,0,0-7.73-7.72H185.46c-4.25,0-7.73-2.78-7.73-6.18s-3.47-6.29-7.72-6.43L137.56,921a10.09,10.09,0,0,1-9.15-7.84l-1.8-9.55a9.7,9.7,0,0,0-9.14-7.59Z" transform="translate(-3.13 1.21)"/><ellipse class="cls-4" cx="367.79" cy="894.94" rx="7.73" ry="22.41"/><ellipse class="cls-4" cx="181.58" cy="271.4" rx="5.41" ry="6.18"/><circle class="cls-4" cx="316.79" cy="260.58" r="15.45"/><path class="cls-2" d="M689.25,251.64a7,7,0,0,1,6.92-7.14q.41,0,.81,0l23.18,1.86a31.07,31.07,0,0,1,12.36,3.71,7.19,7.19,0,0,1,2.32,8.5c-1.27,3-5.8,5.4-10,5.4H697a7.72,7.72,0,0,1-7.73-7.72Z" transform="translate(-3.13 1.21)"/><path class="cls-3" d="M689.25,251.64a7,7,0,0,1,6.92-7.14q.41,0,.81,0l23.18,1.86a31.07,31.07,0,0,1,12.36,3.71,7.19,7.19,0,0,1,2.32,8.5c-1.27,3-5.8,5.4-10,5.4H697a7.72,7.72,0,0,1-7.73-7.72Z" transform="translate(-3.13 1.21)"/><path class="cls-2" d="M693.89,280.23c0-3,3.48-5.41,7.73-5.41s6,2.43,3.86,5.41-5.6,5.41-7.73,5.41S693.89,283.21,693.89,280.23Z" transform="translate(-3.13 1.21)"/><path class="cls-3" d="M693.89,280.23c0-3,3.48-5.41,7.73-5.41s6,2.43,3.86,5.41-5.6,5.41-7.73,5.41S693.89,283.21,693.89,280.23Z" transform="translate(-3.13 1.21)"/><path class="cls-2" d="M503.81,13.66c-4.25,0-7.72,2.43-7.72,5.41s2.62,7.73,5.84,10.46l11.5,10a9.27,9.27,0,0,0,11.68,0l11.5-10c3.21-2.78,5.84-7.48,5.84-10.46s-3.48-5.41-7.73-5.41Z" transform="translate(-3.13 1.21)"/><path class="cls-3" d="M503.81,13.66c-4.25,0-7.72,2.43-7.72,5.41s2.62,7.73,5.84,10.46l11.5,10a9.27,9.27,0,0,0,11.68,0l11.5-10c3.21-2.78,5.84-7.48,5.84-10.46s-3.48-5.41-7.73-5.41Z" transform="translate(-3.13 1.21)"/><path class="cls-2" d="M524.92,59.11a8.46,8.46,0,0,0-11.31,0l-11.87,11.1a20.29,20.29,0,0,0-5.65,13h0a7.73,7.73,0,0,0,7.72,7.73h30.91a7.73,7.73,0,0,0,7.73-7.73h0a20.3,20.3,0,0,0-5.66-13Z" transform="translate(-3.13 1.21)"/><path class="cls-3" d="M524.92,59.11a8.46,8.46,0,0,0-11.31,0l-11.87,11.1a20.29,20.29,0,0,0-5.65,13h0a7.73,7.73,0,0,0,7.72,7.73h30.91a7.73,7.73,0,0,0,7.73-7.73h0a20.3,20.3,0,0,0-5.66-13Z" transform="translate(-3.13 1.21)"/><path class="cls-2" d="M268.92,180.56c2.55-3.4,7.42-4.79,10.82-3.09s4.39,6.07,2.21,9.72l-1.33,2.19a6.83,6.83,0,0,1-9.31,2.56,6.19,6.19,0,0,1-.84-.57h0a7.71,7.71,0,0,1-1.55-10.81Z" transform="translate(-3.13 1.21)"/><path class="cls-3" d="M268.92,180.56c2.55-3.4,7.42-4.79,10.82-3.09s4.39,6.07,2.21,9.72l-1.33,2.19a6.83,6.83,0,0,1-9.31,2.56,6.19,6.19,0,0,1-.84-.57h0a7.71,7.71,0,0,1-1.55-10.81Z" transform="translate(-3.13 1.21)"/><path class="cls-2" d="M267.38,228.46c-4.25,0-6.18-3.09-4.27-6.91l.67-1.36c4.15-8.28,20.53-8.54,25-.43l1.08,2c2.07,3.71.28,6.75-4,6.75Z" transform="translate(-3.13 1.21)"/><path class="cls-3" d="M267.38,228.46c-4.25,0-6.18-3.09-4.27-6.91l.67-1.36c4.15-8.28,20.53-8.54,25-.43l1.08,2c2.07,3.71.28,6.75-4,6.75Z" transform="translate(-3.13 1.21)"/><path class="cls-2" d="M268.15,260.91c-4.25,0-6.18,3.09-4.26,6.91l.66,1.36c4.16,8.28,20.54,8.55,25,.43l1.09-1.94c2.07-3.71.27-6.76-4-6.76Z" transform="translate(-3.13 1.21)"/><path class="cls-3" d="M268.15,260.91c-4.25,0-6.18,3.09-4.26,6.91l.66,1.36c4.16,8.28,20.54,8.55,25,.43l1.09-1.94c2.07-3.71.27-6.76-4-6.76Z" transform="translate(-3.13 1.21)"/><path class="cls-2" d="M295.55,183.9a7.49,7.49,0,0,1,10.39-2.12l.19.14,39.94,28.18a7.59,7.59,0,0,1,1.82,10.56l-.09.12L340,231.51a7.73,7.73,0,0,1-10.8,1.7l0,0-38.51-28a8.15,8.15,0,0,1-2-11Z" transform="translate(-3.13 1.21)"/><path class="cls-3" d="M295.55,183.9a7.49,7.49,0,0,1,10.39-2.12l.19.14,39.94,28.18a7.59,7.59,0,0,1,1.82,10.56l-.09.12L340,231.51a7.73,7.73,0,0,1-10.8,1.7l0,0-38.51-28a8.15,8.15,0,0,1-2-11Z" transform="translate(-3.13 1.21)"/><path class="cls-2" d="M349.79,249.68a9.29,9.29,0,0,1-.17-11.67l14.77-17.55a8.28,8.28,0,0,1,11.15-1.25l63.35,47.9c3.39,2.55,2.69,4.73-1.54,4.81l-58.72,1.23a19.21,19.21,0,0,1-12.88-5.61Z" transform="translate(-3.13 1.21)"/><path class="cls-3" d="M349.79,249.68a9.29,9.29,0,0,1-.17-11.67l14.77-17.55a8.28,8.28,0,0,1,11.15-1.25l63.35,47.9c3.39,2.55,2.69,4.73-1.54,4.81l-58.72,1.23a19.21,19.21,0,0,1-12.88-5.61Z" transform="translate(-3.13 1.21)"/><rect class="cls-2" x="463.6" y="143.13" width="18.54" height="95.81" rx="7.73"/><rect class="cls-3" x="463.6" y="143.13" width="18.54" height="95.81" rx="7.73"/><path class="cls-2" d="M466.73,107.93a7.72,7.72,0,0,0,7.72,7.72h3.09a7.73,7.73,0,0,0,7.73-7.72v-85a7.73,7.73,0,0,0-7.73-7.72H380.19a7.73,7.73,0,0,0-7.73,7.72V26a7.73,7.73,0,0,0,7.73,7.73H459a7.73,7.73,0,0,1,7.73,7.73Z" transform="translate(-3.13 1.21)"/><path class="cls-3" d="M466.73,107.93a7.72,7.72,0,0,0,7.72,7.72h3.09a7.73,7.73,0,0,0,7.73-7.72v-85a7.73,7.73,0,0,0-7.73-7.72H380.19a7.73,7.73,0,0,0-7.73,7.72V26a7.73,7.73,0,0,0,7.73,7.73H459a7.73,7.73,0,0,1,7.73,7.73Z" transform="translate(-3.13 1.21)"/><rect class="cls-4" x="525.41" y="762.81" width="75.72" height="41.72"/><rect class="cls-2" x="183.89" y="915.8" width="37.09" height="10.82" rx="3.09"/><rect class="cls-3" x="183.89" y="915.8" width="37.09" height="10.82" rx="3.09"/><path class="cls-4" d="M445.09,990.31h0c0-5.12,4.16-12.36,9.27-12.36h20.09c5.12,0,9.27,7.24,9.27,12.36Z" transform="translate(-3.13 1.21)"/><path class="cls-2" d="M818.63,767.77c.24-4.24,2.73-5.12,5.56-1.94l14.46,16.26c2.83,3.18,1.66,5.78-2.59,5.78H825.24a7.23,7.23,0,0,1-7.31-7.15,5.72,5.72,0,0,1,0-.58Z" transform="translate(-3.13 1.21)"/><path class="cls-3" d="M818.63,767.77c.24-4.24,2.73-5.12,5.56-1.94l14.46,16.26c2.83,3.18,1.66,5.78-2.59,5.78H825.24a7.23,7.23,0,0,1-7.31-7.15,5.72,5.72,0,0,1,0-.58Z" transform="translate(-3.13 1.21)"/><path class="cls-2" d="M835.29,754.65c-3-3.09-2-5.47,2.25-5.47h9.27a7.73,7.73,0,0,1,7.73,7.72v9.27c0,4.25-2.46,5.27-5.47,2.26Z" transform="translate(-3.13 1.21)"/><path class="cls-3" d="M835.29,754.65c-3-3.09-2-5.47,2.25-5.47h9.27a7.73,7.73,0,0,1,7.73,7.72v9.27c0,4.25-2.46,5.27-5.47,2.26Z" transform="translate(-3.13 1.21)"/><rect class="cls-2" x="823.66" y="682.45" width="29.36" height="58.72" rx="3.09"/><rect class="cls-3" x="823.66" y="682.45" width="29.36" height="58.72" rx="3.09"/><path class="cls-2" d="M409.55,970.22a7.73,7.73,0,0,1-7.73-7.73V919.22a5.9,5.9,0,0,1,5.55-6.23,5.81,5.81,0,0,1,2,.22l18.92,4.3a10.15,10.15,0,0,1,7.54,9.44v35.54a7.73,7.73,0,0,1-7.73,7.73Z" transform="translate(-3.13 1.21)"/><path class="cls-3" d="M409.55,970.22a7.73,7.73,0,0,1-7.73-7.73V919.22a5.9,5.9,0,0,1,5.55-6.23,5.81,5.81,0,0,1,2,.22l18.92,4.3a10.15,10.15,0,0,1,7.54,9.44v35.54a7.73,7.73,0,0,1-7.73,7.73Z" transform="translate(-3.13 1.21)"/><path class="cls-2" d="M287.47,738.42a8,8,0,0,1,7.72-7.91l114.36-2.72a7.53,7.53,0,0,1,7.72,7.32,1.62,1.62,0,0,1,0,.22h0a7.4,7.4,0,0,0,7,7.73,6.6,6.6,0,0,1,6.95,6.18c0,3.4,3.48,6.18,7.73,6.18h55.63a7.73,7.73,0,0,1,7.73,7.73V961a8,8,0,0,1-7.73,7.94L452.82,970a7.5,7.5,0,0,1-7.73-7.26V927a7.73,7.73,0,0,1,7.73-7.73h18.54a7.73,7.73,0,0,0,7.73-7.72V859a7.64,7.64,0,0,0-7.64-7.64h-.09l-122.08,1.36a7.85,7.85,0,0,1-7.9-7.63l-1.2-52.54a8,8,0,0,0-7.9-7.73H295.19a7.73,7.73,0,0,1-7.72-7.73Z" transform="translate(-3.13 1.21)"/><path class="cls-3" d="M287.47,738.42a8,8,0,0,1,7.72-7.91l114.36-2.72a7.53,7.53,0,0,1,7.72,7.32,1.62,1.62,0,0,1,0,.22h0a7.4,7.4,0,0,0,7,7.73,6.6,6.6,0,0,1,6.95,6.18c0,3.4,3.48,6.18,7.73,6.18h55.63a7.73,7.73,0,0,1,7.73,7.73V961a8,8,0,0,1-7.73,7.94L452.82,970a7.5,7.5,0,0,1-7.73-7.26V927a7.73,7.73,0,0,1,7.73-7.73h18.54a7.73,7.73,0,0,0,7.73-7.72V859a7.64,7.64,0,0,0-7.64-7.64h-.09l-122.08,1.36a7.85,7.85,0,0,1-7.9-7.63l-1.2-52.54a8,8,0,0,0-7.9-7.73H295.19a7.73,7.73,0,0,1-7.72-7.73Z" transform="translate(-3.13 1.21)"/><rect class="cls-2" x="267.34" y="923.52" width="63.36" height="51" rx="7.73"/><rect class="cls-3" x="267.34" y="923.52" width="63.36" height="51" rx="7.73"/><path class="cls-4" d="M567.17,947v20.09H524.29a9.66,9.66,0,0,1-9.66-9.66V837.38a15.45,15.45,0,0,1,15.45-15.45H641.5a7.49,7.49,0,0,1,7.51,7.48V894.5h8.25a8.73,8.73,0,0,1,8.75,8.71v53a10.89,10.89,0,0,1-10.89,10.82H578V947h12.36V914.51h29.36V888.24h-98.9v26.27h30.91V947Z" transform="translate(-3.13 1.21)"/><circle class="cls-4" cx="510.73" cy="763.58" r="3.86"/><circle class="cls-4" cx="510.73" cy="777.49" r="3.86"/><circle class="cls-4" cx="510.73" cy="791.4" r="3.86"/><circle class="cls-4" cx="510.73" cy="805.31" r="3.86"/><circle class="cls-4" cx="612.72" cy="762.04" r="3.86"/><circle class="cls-4" cx="629.72" cy="762.04" r="3.86"/><circle class="cls-4" cx="612.72" cy="775.95" r="3.86"/><circle class="cls-4" cx="629.72" cy="775.95" r="3.86"/><circle class="cls-4" cx="612.72" cy="789.85" r="3.86"/><circle class="cls-4" cx="629.72" cy="789.85" r="3.86"/><circle class="cls-4" cx="612.72" cy="803.76" r="3.86"/><circle class="cls-4" cx="629.72" cy="803.76" r="3.86"/><rect class="cls-2" x="639.77" y="741.18" width="13.91" height="17" rx="3.09"/><rect class="cls-3" x="639.77" y="741.18" width="13.91" height="17" rx="3.09"/><rect class="cls-2" x="95.81" y="416.66" width="18.54" height="23.18" rx="3.09"/><rect class="cls-3" x="95.81" y="416.66" width="18.54" height="23.18" rx="3.09"/><path class="cls-2" d="M113.62,409.27h-7.73a7,7,0,0,1-7-6.93V310.58a17.2,17.2,0,0,1,17.21-17.21h56.19a6.93,6.93,0,0,1,6.95,6.92v0h0a6.93,6.93,0,0,1-6.92,6.95H127.53a7,7,0,0,0-7,6.93v88.11a6.94,6.94,0,0,1-6.92,7Z" transform="translate(-3.13 1.21)"/><path class="cls-3" d="M113.62,409.27h-7.73a7,7,0,0,1-7-6.93V310.58a17.2,17.2,0,0,1,17.21-17.21h56.19a6.93,6.93,0,0,1,6.95,6.92v0h0a6.93,6.93,0,0,1-6.92,6.95H127.53a7,7,0,0,0-7,6.93v88.11a6.94,6.94,0,0,1-6.92,7Z" transform="translate(-3.13 1.21)"/><path class="cls-2" d="M310.65,290.28a3.09,3.09,0,0,1,3.09-3.1h35.54a3.09,3.09,0,0,1,3.09,3.1V489.62a3.09,3.09,0,0,1-3.09,3.09H338.46a3.09,3.09,0,0,1-3.09-3.09v-170a3.09,3.09,0,0,0-3.09-3.09H313.74a3.09,3.09,0,0,1-3.09-3.09Z" transform="translate(-3.13 1.21)"/><path class="cls-3" d="M310.65,290.28a3.09,3.09,0,0,1,3.09-3.1h35.54a3.09,3.09,0,0,1,3.09,3.1V489.62a3.09,3.09,0,0,1-3.09,3.09H338.46a3.09,3.09,0,0,1-3.09-3.09v-170a3.09,3.09,0,0,0-3.09-3.09H313.74a3.09,3.09,0,0,1-3.09-3.09Z" transform="translate(-3.13 1.21)"/><path class="cls-2" d="M292.66,692a2.51,2.51,0,0,1,2.53-3.09h15.46c1.7,0,2.07,1,.82,2.09l-9,8.21a5.48,5.48,0,0,1-9.1-3.1Z" transform="translate(-3.13 1.21)"/><path class="cls-3" d="M292.66,692a2.51,2.51,0,0,1,2.53-3.09h15.46c1.7,0,2.07,1,.82,2.09l-9,8.21a5.48,5.48,0,0,1-9.1-3.1Z" transform="translate(-3.13 1.21)"/><path class="cls-2" d="M556.35,24.48a3.09,3.09,0,0,1,3.09-3.09h3.1a3.1,3.1,0,0,0,3.09-3.09V15.21a3.09,3.09,0,0,1,3.09-3.09H683.07a3.09,3.09,0,0,1,3.09,3.09V35.3a3.09,3.09,0,0,1-3.09,3.09H579.53a3.09,3.09,0,0,0-3.09,3.09V64.66a3.09,3.09,0,0,1-3.09,3.09H559.44a3.1,3.1,0,0,1-3.09-3.09Z" transform="translate(-3.13 1.21)"/><path class="cls-3" d="M556.35,24.48a3.09,3.09,0,0,1,3.09-3.09h3.1a3.1,3.1,0,0,0,3.09-3.09V15.21a3.09,3.09,0,0,1,3.09-3.09H683.07a3.09,3.09,0,0,1,3.09,3.09V35.3a3.09,3.09,0,0,1-3.09,3.09H579.53a3.09,3.09,0,0,0-3.09,3.09V64.66a3.09,3.09,0,0,1-3.09,3.09H559.44a3.1,3.1,0,0,1-3.09-3.09Z" transform="translate(-3.13 1.21)"/><path class="cls-2" d="M698.52,9a3.09,3.09,0,0,0-3.09,3.09V26a3.1,3.1,0,0,0,3.09,3.1h71.09a7.13,7.13,0,0,0,5-2.46l11.68-15.18c1-1.36.49-2.45-1.21-2.45Z" transform="translate(-3.13 1.21)"/><path class="cls-3" d="M698.52,9a3.09,3.09,0,0,0-3.09,3.09V26a3.1,3.1,0,0,0,3.09,3.1h71.09a7.13,7.13,0,0,0,5-2.46l11.68-15.18c1-1.36.49-2.45-1.21-2.45Z" transform="translate(-3.13 1.21)"/><path class="cls-2" d="M556.35,81.66a3.09,3.09,0,0,1,3.09-3.09h4.64a3.09,3.09,0,0,1,3.09,3.09V83.2a3.09,3.09,0,0,0,3.09,3.09h6.18a3.09,3.09,0,0,1,3.09,3.09v26.27a3.09,3.09,0,0,1-3.09,3.09h-17a3.09,3.09,0,0,1-3.09-3.09Z" transform="translate(-3.13 1.21)"/><path class="cls-3" d="M556.35,81.66a3.09,3.09,0,0,1,3.09-3.09h4.64a3.09,3.09,0,0,1,3.09,3.09V83.2a3.09,3.09,0,0,0,3.09,3.09h6.18a3.09,3.09,0,0,1,3.09,3.09v26.27a3.09,3.09,0,0,1-3.09,3.09h-17a3.09,3.09,0,0,1-3.09-3.09Z" transform="translate(-3.13 1.21)"/><path class="cls-2" d="M556.35,177.47a3.1,3.1,0,0,0,3.09,3.09h4.64a3.09,3.09,0,0,0,3.09-3.09v-1.55a3.09,3.09,0,0,1,3.09-3.09h6.18a3.09,3.09,0,0,0,3.09-3.09V143.47a3.09,3.09,0,0,0-3.09-3.09h-17a3.09,3.09,0,0,0-3.09,3.09Z" transform="translate(-3.13 1.21)"/><path class="cls-3" d="M556.35,177.47a3.1,3.1,0,0,0,3.09,3.09h4.64a3.09,3.09,0,0,0,3.09-3.09v-1.55a3.09,3.09,0,0,1,3.09-3.09h6.18a3.09,3.09,0,0,0,3.09-3.09V143.47a3.09,3.09,0,0,0-3.09-3.09h-17a3.09,3.09,0,0,0-3.09,3.09Z" transform="translate(-3.13 1.21)"/><path class="cls-2" d="M559.52,199.1a3,3,0,0,1,2.91-3.09H591.9A3.09,3.09,0,0,1,595,199.1v40.63a8.58,8.58,0,0,1-8.58,8.57,8.69,8.69,0,0,1-1.61-.15l-3.78-.71a26,26,0,0,1-20.9-22.18Z" transform="translate(-3.13 1.21)"/><path class="cls-3" d="M559.52,199.1a3,3,0,0,1,2.91-3.09H591.9A3.09,3.09,0,0,1,595,199.1v40.63a8.58,8.58,0,0,1-8.58,8.57,8.69,8.69,0,0,1-1.61-.15l-3.78-.71a26,26,0,0,1-20.9-22.18Z" transform="translate(-3.13 1.21)"/><path class="cls-2" d="M605.8,231.55a7.73,7.73,0,0,1,7.73-7.72h58.72a7.73,7.73,0,0,1,7.73,7.72v23.18a8,8,0,0,1-7.73,7.93L622.14,264a16.34,16.34,0,0,1-16.34-16.33h0Z" transform="translate(-3.13 1.21)"/><path class="cls-3" d="M605.8,231.55a7.73,7.73,0,0,1,7.73-7.72h58.72a7.73,7.73,0,0,1,7.73,7.72v23.18a8,8,0,0,1-7.73,7.93L622.14,264a16.34,16.34,0,0,1-16.34-16.33h0Z" transform="translate(-3.13 1.21)"/><path class="cls-2" d="M689.25,219.19a3.09,3.09,0,0,1,3.09-3.09h6.18a3.09,3.09,0,0,1,3.1,3.09v9.27a3.09,3.09,0,0,0,3.09,3.09h54.08c1.7,0,2.15,1,1,2.29L748.52,246.2a3.63,3.63,0,0,1-4.64.51l-10.38-7.26a11.6,11.6,0,0,0-5.63-1.78H692.33a3.09,3.09,0,0,1-3.09-3.09Z" transform="translate(-3.13 1.21)"/><path class="cls-3" d="M689.25,219.19a3.09,3.09,0,0,1,3.09-3.09h6.18a3.09,3.09,0,0,1,3.1,3.09v9.27a3.09,3.09,0,0,0,3.09,3.09h54.08c1.7,0,2.15,1,1,2.29L748.52,246.2a3.63,3.63,0,0,1-4.64.51l-10.38-7.26a11.6,11.6,0,0,0-5.63-1.78H692.33a3.09,3.09,0,0,1-3.09-3.09Z" transform="translate(-3.13 1.21)"/><path class="cls-2" d="M819.06,800.23a3.09,3.09,0,0,1,3.09-3.09h23.18a3.09,3.09,0,0,1,3.09,3.09v3.09a3.09,3.09,0,0,0,3.09,3.09h9.27a8.05,8.05,0,0,1,5.18,2.28l19.72,21.43a4.39,4.39,0,0,1-3.37,7.2H822.15a3.09,3.09,0,0,1-3.09-3.09Z" transform="translate(-3.13 1.21)"/><path class="cls-3" d="M819.06,800.23a3.09,3.09,0,0,1,3.09-3.09h23.18a3.09,3.09,0,0,1,3.09,3.09v3.09a3.09,3.09,0,0,0,3.09,3.09h9.27a8.05,8.05,0,0,1,5.18,2.28l19.72,21.43a4.39,4.39,0,0,1-3.37,7.2H822.15a3.09,3.09,0,0,1-3.09-3.09Z" transform="translate(-3.13 1.21)"/><path class="cls-2" d="M865.42,747.69a3.09,3.09,0,0,0-3.09,3.09v24.73a3.09,3.09,0,0,0,3.09,3.09h4.64a3.09,3.09,0,0,1,3.09,3.09v12.36a8.86,8.86,0,0,0,2.13,5.33L892.93,818a4.63,4.63,0,0,0,8-3.19v-64a3.09,3.09,0,0,0-3.09-3.09Z" transform="translate(-3.13 1.21)"/><path class="cls-3" d="M865.42,747.69a3.09,3.09,0,0,0-3.09,3.09v24.73a3.09,3.09,0,0,0,3.09,3.09h4.64a3.09,3.09,0,0,1,3.09,3.09v12.36a8.86,8.86,0,0,0,2.13,5.33L892.93,818a4.63,4.63,0,0,0,8-3.19v-64a3.09,3.09,0,0,0-3.09-3.09Z" transform="translate(-3.13 1.21)"/><circle class="cls-4" cx="78.81" cy="22.6" r="6.95"/><path class="cls-2" d="M18.58,118.74a3.09,3.09,0,0,0-3.09-3.09H10.85a3.1,3.1,0,0,0-3.09,3.09h0a3.09,3.09,0,0,0,3.09,3.09h4.64A3.09,3.09,0,0,0,18.58,118.74Z" transform="translate(-3.13 1.21)"/><path class="cls-3" d="M18.58,118.74a3.09,3.09,0,0,0-3.09-3.09H10.85a3.1,3.1,0,0,0-3.09,3.09h0a3.09,3.09,0,0,0,3.09,3.09h4.64A3.09,3.09,0,0,0,18.58,118.74Z" transform="translate(-3.13 1.21)"/><path class="cls-2" d="M18.58,154.29a3.09,3.09,0,0,0-3.09-3.09H10.85a3.09,3.09,0,0,0-3.09,3.09h0a3.1,3.1,0,0,0,3.09,3.09h4.64A3.09,3.09,0,0,0,18.58,154.29Z" transform="translate(-3.13 1.21)"/><path class="cls-3" d="M18.58,154.29a3.09,3.09,0,0,0-3.09-3.09H10.85a3.09,3.09,0,0,0-3.09,3.09h0a3.1,3.1,0,0,0,3.09,3.09h4.64A3.09,3.09,0,0,0,18.58,154.29Z" transform="translate(-3.13 1.21)"/><path class="cls-2" d="M18.58,192.92a3.09,3.09,0,0,0-3.09-3.09H10.85a3.09,3.09,0,0,0-3.09,3.09h0A3.09,3.09,0,0,0,10.85,196h4.64A3.09,3.09,0,0,0,18.58,192.92Z" transform="translate(-3.13 1.21)"/><path class="cls-3" d="M18.58,192.92a3.09,3.09,0,0,0-3.09-3.09H10.85a3.09,3.09,0,0,0-3.09,3.09h0A3.09,3.09,0,0,0,10.85,196h4.64A3.09,3.09,0,0,0,18.58,192.92Z" transform="translate(-3.13 1.21)"/><path class="cls-2" d="M211.75,333.54a3.1,3.1,0,0,1-3.09,3.1H193.2a3.1,3.1,0,0,1-3.09-3.1V294.91a3.09,3.09,0,0,1,3.09-3.09h51a3.09,3.09,0,0,1,3.09,3.09h0A3.09,3.09,0,0,1,244.2,298H214.84a3.09,3.09,0,0,0-3.09,3.09v10.82a3.19,3.19,0,0,0,3.09,3.17l9.55.25c3.27,1.82,2.27,8.31-1.46,8.73l-8.09.15a3.17,3.17,0,0,0-3.09,3.09Z" transform="translate(-3.13 1.21)"/><path class="cls-3" d="M211.75,333.54a3.1,3.1,0,0,1-3.09,3.1H193.2a3.1,3.1,0,0,1-3.09-3.1V294.91a3.09,3.09,0,0,1,3.09-3.09h51a3.09,3.09,0,0,1,3.09,3.09h0A3.09,3.09,0,0,1,244.2,298H214.84a3.09,3.09,0,0,0-3.09,3.09v10.82a3.19,3.19,0,0,0,3.09,3.17l9.55.25c3.27,1.82,2.27,8.31-1.46,8.73l-8.09.15a3.17,3.17,0,0,0-3.09,3.09Z" transform="translate(-3.13 1.21)"/><rect class="cls-2" x="268.89" y="289.94" width="21.63" height="23.18" rx="3.09"/><rect class="cls-3" x="268.89" y="289.94" width="21.63" height="23.18" rx="3.09"/><rect class="cls-2" x="441.96" y="608.28" width="17" height="26.27" rx="3.09"/><rect class="cls-3" x="441.96" y="608.28" width="17" height="26.27" rx="3.09"/><path class="cls-2" d="M445.09,665.79a7.89,7.89,0,0,1,7.73-7.85l179.26-2.84a7.9,7.9,0,0,0,7.72-7.85v-6.19c0-4.24,2.57-5.39,5.72-2.53l5.56,5.07A20.69,20.69,0,0,1,657,656.52l1.28,50.36c-1.63,9.67-12.71,10.82-18.17,2.64l-3.31-7.32a13,13,0,0,0-10.91-7.05H452.82a7.73,7.73,0,0,1-7.73-7.73Z" transform="translate(-3.13 1.21)"/><path class="cls-3" d="M445.09,665.79a7.89,7.89,0,0,1,7.73-7.85l179.26-2.84a7.9,7.9,0,0,0,7.72-7.85v-6.19c0-4.24,2.57-5.39,5.72-2.53l5.56,5.07A20.69,20.69,0,0,1,657,656.52l1.28,50.36c-1.63,9.67-12.71,10.82-18.17,2.64l-3.31-7.32a13,13,0,0,0-10.91-7.05H452.82a7.73,7.73,0,0,1-7.73-7.73Z" transform="translate(-3.13 1.21)"/><path class="cls-2" d="M799,743.06c0-1.7.85-2,1.9-.65l7,9c1.05,1.35.51,2.44-1.19,2.44h-4.64a3.09,3.09,0,0,1-3.09-3.09Z" transform="translate(-3.13 1.21)"/><path class="cls-3" d="M799,743.06c0-1.7.85-2,1.9-.65l7,9c1.05,1.35.51,2.44-1.19,2.44h-4.64a3.09,3.09,0,0,1-3.09-3.09Z" transform="translate(-3.13 1.21)"/><rect class="cls-2" x="795.84" y="819.99" width="10.82" height="17" rx="3.09"/><rect class="cls-3" x="795.84" y="819.99" width="10.82" height="17" rx="3.09"/><path class="cls-2" d="M131.39,848.14a3.09,3.09,0,0,1-3.09,3.09H108.21a3.09,3.09,0,0,1-3.09-3.09V825a3.09,3.09,0,0,1,3.09-3.09H170a3.09,3.09,0,0,1,3.09,3.09v1.54a3.09,3.09,0,0,1-3.09,3.09H134.48a3.09,3.09,0,0,0-3.09,3.1Z" transform="translate(-3.13 1.21)"/><path class="cls-3" d="M131.39,848.14a3.09,3.09,0,0,1-3.09,3.09H108.21a3.09,3.09,0,0,1-3.09-3.09V825a3.09,3.09,0,0,1,3.09-3.09H170a3.09,3.09,0,0,1,3.09,3.09v1.54a3.09,3.09,0,0,1-3.09,3.09H134.48a3.09,3.09,0,0,0-3.09,3.1Z" transform="translate(-3.13 1.21)"/><rect class="cls-2" x="441.96" y="546.46" width="12.36" height="49.45" rx="3.09"/><rect class="cls-3" x="441.96" y="546.46" width="12.36" height="49.45" rx="3.09"/><rect class="cls-2" x="862.29" y="639.18" width="30.91" height="27.82" rx="3.09"/><rect class="cls-3" x="862.29" y="639.18" width="30.91" height="27.82" rx="3.09"/><path class="cls-2" d="M789.79,341.27a3.22,3.22,0,0,0-3.18-3.09H782a3.09,3.09,0,0,0-3.09,3.09h0c0,1.7-1,3.09-2.32,3.09s-2.28,1.39-2.27,3.09l3,171.53a7.32,7.32,0,0,0,2.49,5l9,7c1.35,1,2.44.51,2.44-1.19V434a3.09,3.09,0,0,1,3.09-3.09h3.1a3.09,3.09,0,0,0,3.09-3.09V412.36a3.09,3.09,0,0,1,3.09-3.09h13.9a3.1,3.1,0,0,0,3.1-3.09V392.27a3.09,3.09,0,0,0-3.1-3.09H794.33a3.22,3.22,0,0,1-3.18-3.09Z" transform="translate(-3.13 1.21)"/><path class="cls-3" d="M789.79,341.27a3.22,3.22,0,0,0-3.18-3.09H782a3.09,3.09,0,0,0-3.09,3.09h0c0,1.7-1,3.09-2.32,3.09s-2.28,1.39-2.27,3.09l3,171.53a7.32,7.32,0,0,0,2.49,5l9,7c1.35,1,2.44.51,2.44-1.19V434a3.09,3.09,0,0,1,3.09-3.09h3.1a3.09,3.09,0,0,0,3.09-3.09V412.36a3.09,3.09,0,0,1,3.09-3.09h13.9a3.1,3.1,0,0,0,3.1-3.09V392.27a3.09,3.09,0,0,0-3.1-3.09H794.33a3.22,3.22,0,0,1-3.18-3.09Z" transform="translate(-3.13 1.21)"/><path class="cls-2" d="M911.78,421.63h15.45a3.09,3.09,0,0,0,3.09-3.09v-6.18a2.76,2.76,0,0,0-2.69-2.81l-.4,0-5.34.53c-6.4,1.44-10.13,3.8-10.13,11.53Z" transform="translate(-3.13 1.21)"/><path class="cls-3" d="M911.78,421.63h15.45a3.09,3.09,0,0,0,3.09-3.09v-6.18a2.76,2.76,0,0,0-2.69-2.81l-.4,0-5.34.53c-6.4,1.44-10.13,3.8-10.13,11.53Z" transform="translate(-3.13 1.21)"/><path class="cls-2" d="M800.62,243.65,901,242.4a3.09,3.09,0,0,0,3.09-3.09V228.49a3.1,3.1,0,0,1,3.09-3.09h60.27a3.09,3.09,0,0,1,3.09,3.09v11.73a16.55,16.55,0,0,1-16.08,16.55l-141.54,1.07a10.84,10.84,0,0,1-5.56-1.84l-8.57-6.41a3.28,3.28,0,0,1,1.87-5.94Z" transform="translate(-3.13 1.21)"/><path class="cls-3" d="M800.62,243.65,901,242.4a3.09,3.09,0,0,0,3.09-3.09V228.49a3.1,3.1,0,0,1,3.09-3.09h60.27a3.09,3.09,0,0,1,3.09,3.09v11.73a16.55,16.55,0,0,1-16.08,16.55l-141.54,1.07a10.84,10.84,0,0,1-5.56-1.84l-8.57-6.41a3.28,3.28,0,0,1,1.87-5.94Z" transform="translate(-3.13 1.21)"/><path class="cls-2" d="M248.8,973.31c0,1.7,1.22,2.38,2.68,1.55l10.16-6.09a6,6,0,0,0,2.59-4.64l-3-139.08a3.17,3.17,0,0,0-3.09-3.09H208.72a3.09,3.09,0,0,0-3.09,3.09v1.55a3.09,3.09,0,0,0,3.09,3.09h35.54a3.09,3.09,0,0,1,3.09,3.09Z" transform="translate(-3.13 1.21)"/><path class="cls-3" d="M248.8,973.31c0,1.7,1.22,2.38,2.68,1.55l10.16-6.09a6,6,0,0,0,2.59-4.64l-3-139.08a3.17,3.17,0,0,0-3.09-3.09H208.72a3.09,3.09,0,0,0-3.09,3.09v1.55a3.09,3.09,0,0,0,3.09,3.09h35.54a3.09,3.09,0,0,1,3.09,3.09Z" transform="translate(-3.13 1.21)"/><path class="cls-2" d="M674.2,619.46a5.91,5.91,0,0,1,2.72,4.64L680,959.43c0,1.7,1.07,3.09,2.35,3.09s2.3-1.39,2.29-3.09L681.56,621a9.61,9.61,0,0,0-2.09-5.4l-60.79-68a7.85,7.85,0,0,0-5.15-2.3H599.62a2.93,2.93,0,0,0-3,2.91v.18l1.27,29.36c0,1.7,1.22,2.22,2.55,1.16l18.36-14.68a3.42,3.42,0,0,1,4.54.31l26.64,28a8.86,8.86,0,0,1,2.13,5.33V604a5.85,5.85,0,0,0,2.69,4.63Z" transform="translate(-3.13 1.21)"/><path class="cls-3" d="M674.2,619.46a5.91,5.91,0,0,1,2.72,4.64L680,959.43c0,1.7,1.07,3.09,2.35,3.09s2.3-1.39,2.29-3.09L681.56,621a9.61,9.61,0,0,0-2.09-5.4l-60.79-68a7.85,7.85,0,0,0-5.15-2.3H599.62a2.93,2.93,0,0,0-3,2.91v.18l1.27,29.36c0,1.7,1.22,2.22,2.55,1.16l18.36-14.68a3.42,3.42,0,0,1,4.54.31l26.64,28a8.86,8.86,0,0,1,2.13,5.33V604a5.85,5.85,0,0,0,2.69,4.63Z" transform="translate(-3.13 1.21)"/><path class="cls-2" d="M693.89,906.86a3.09,3.09,0,0,1,3.09-3.09h1.54a3.09,3.09,0,0,1,3.1,3.09V913a3.09,3.09,0,0,0,3.09,3.09h74.17A3.09,3.09,0,0,0,782,913v-6.18a3.09,3.09,0,0,1,3.09-3.09h1.55a3.09,3.09,0,0,1,3.09,3.09v32.45a3.09,3.09,0,0,1-3.09,3.09h-1.55a3.1,3.1,0,0,0-3.09,3.09V947a3.09,3.09,0,0,1-3.09,3.09h-1.54a3.09,3.09,0,0,0-3.09,3.09v6.18a3.09,3.09,0,0,1-3.1,3.09H714a3.09,3.09,0,0,1-3.09-3.09v-6.18a3.09,3.09,0,0,0-3.09-3.09h-3.09a3.09,3.09,0,0,1-3.09-3.09V944a3.09,3.09,0,0,0-3.1-3.09H697a3.09,3.09,0,0,1-3.09-3.09Z" transform="translate(-3.13 1.21)"/><path class="cls-3" d="M693.89,906.86a3.09,3.09,0,0,1,3.09-3.09h1.54a3.09,3.09,0,0,1,3.1,3.09V913a3.09,3.09,0,0,0,3.09,3.09h74.17A3.09,3.09,0,0,0,782,913v-6.18a3.09,3.09,0,0,1,3.09-3.09h1.55a3.09,3.09,0,0,1,3.09,3.09v32.45a3.09,3.09,0,0,1-3.09,3.09h-1.55a3.1,3.1,0,0,0-3.09,3.09V947a3.09,3.09,0,0,1-3.09,3.09h-1.54a3.09,3.09,0,0,0-3.09,3.09v6.18a3.09,3.09,0,0,1-3.1,3.09H714a3.09,3.09,0,0,1-3.09-3.09v-6.18a3.09,3.09,0,0,0-3.09-3.09h-3.09a3.09,3.09,0,0,1-3.09-3.09V944a3.09,3.09,0,0,0-3.1-3.09H697a3.09,3.09,0,0,1-3.09-3.09Z" transform="translate(-3.13 1.21)"/><path class="cls-2" d="M970.78,23.92c.15-2.89-2.21-5.44-4.4-6.84l-30-8.73a25.85,25.85,0,0,0-6.06-.87H840.69a9.07,9.07,0,0,0-5.4,2.1L819.83,23.92c-1.25,1.16-.88,2.09.82,2.06l102-1.45a20.39,20.39,0,0,1,6,1l11.19,4.08c1.54.57,4.25,1.44,5.87,1.9l5.86,1.67a16,16,0,0,0,18.76-8.25Z" transform="translate(-3.13 1.21)"/><path class="cls-3" d="M970.78,23.92c.15-2.89-2.21-5.44-4.4-6.84l-30-8.73a25.85,25.85,0,0,0-6.06-.87H840.69a9.07,9.07,0,0,0-5.4,2.1L819.83,23.92c-1.25,1.16-.88,2.09.82,2.06l102-1.45a20.39,20.39,0,0,1,6,1l11.19,4.08c1.54.57,4.25,1.44,5.87,1.9l5.86,1.67a16,16,0,0,0,18.76-8.25Z" transform="translate(-3.13 1.21)"/><path class="cls-2" d="M790.86,566.12a1.66,1.66,0,0,1,2.35.24,1.69,1.69,0,0,1,.35,1.3v94.27a3.09,3.09,0,0,1-3.09,3.09h-7.73a3.1,3.1,0,0,1-3.09-3.09V575.39a5.82,5.82,0,0,1,2.71-4.64Z" transform="translate(-3.13 1.21)"/><path class="cls-3" d="M790.86,566.12a1.66,1.66,0,0,1,2.35.24,1.69,1.69,0,0,1,.35,1.3v94.27a3.09,3.09,0,0,1-3.09,3.09h-7.73a3.1,3.1,0,0,1-3.09-3.09V575.39a5.82,5.82,0,0,1,2.71-4.64Z" transform="translate(-3.13 1.21)"/><path class="cls-2" d="M862.33,556.07a3.09,3.09,0,0,1,3.09-3.09l98.9-1.45c1.7,0,4.48.08,6.18.23l.94.09A15.94,15.94,0,0,1,985.86,566h0c0,.52.13,2.35.14,4l3.17,278.28c0,1.7,0,4.46-.11,6.18,0,0-1.14,24.85-12.36,33.8l-5.39,4.34a3.54,3.54,0,0,1-4.64-.25l-8-8a2.81,2.81,0,0,1,0-4,2.18,2.18,0,0,1,.22-.21l6.19-5.26a7.45,7.45,0,0,0,2.31-5.09l-3.09-296.71a3.09,3.09,0,0,0-3.09-3.09H865.34a3.09,3.09,0,0,1-3.09-3.09Z" transform="translate(-3.13 1.21)"/><path class="cls-3" d="M862.33,556.07a3.09,3.09,0,0,1,3.09-3.09l98.9-1.45c1.7,0,4.48.08,6.18.23l.94.09A15.94,15.94,0,0,1,985.86,566h0c0,.52.13,2.35.14,4l3.17,278.28c0,1.7,0,4.46-.11,6.18,0,0-1.14,24.85-12.36,33.8l-5.39,4.34a3.54,3.54,0,0,1-4.64-.25l-8-8a2.81,2.81,0,0,1,0-4,2.18,2.18,0,0,1,.22-.21l6.19-5.26a7.45,7.45,0,0,0,2.31-5.09l-3.09-296.71a3.09,3.09,0,0,0-3.09-3.09H865.34a3.09,3.09,0,0,1-3.09-3.09Z" transform="translate(-3.13 1.21)"/><path class="cls-2" d="M789.7,321.18a3.09,3.09,0,0,1-3.09,3.09h-3.09a3.09,3.09,0,0,1-3.09-3.09h0a3.1,3.1,0,0,0-3.09-3.09h-1.55A3.09,3.09,0,0,1,772.7,315v-3.09a3.09,3.09,0,0,1,3.09-3.09h1.55a3.09,3.09,0,0,0,3.09-3.09V273.28a3.09,3.09,0,0,1,3.09-3.09h74.17a3.09,3.09,0,0,1,3.09,3.09h0a3.09,3.09,0,0,1-3.09,3.09h-64.9a3.09,3.09,0,0,0-3.09,3.09Z" transform="translate(-3.13 1.21)"/><path class="cls-3" d="M789.7,321.18a3.09,3.09,0,0,1-3.09,3.09h-3.09a3.09,3.09,0,0,1-3.09-3.09h0a3.1,3.1,0,0,0-3.09-3.09h-1.55A3.09,3.09,0,0,1,772.7,315v-3.09a3.09,3.09,0,0,1,3.09-3.09h1.55a3.09,3.09,0,0,0,3.09-3.09V273.28a3.09,3.09,0,0,1,3.09-3.09h74.17a3.09,3.09,0,0,1,3.09,3.09h0a3.09,3.09,0,0,1-3.09,3.09h-64.9a3.09,3.09,0,0,0-3.09,3.09Z" transform="translate(-3.13 1.21)"/><path class="cls-2" d="M868.51,273.28a3.09,3.09,0,0,1,3.09-3.09h85c11.12,0,15.46,5.91,15.46,17v23.18a3.1,3.1,0,0,1-3.09,3.1H927.23a3.1,3.1,0,0,1-3.09-3.1v-30.9a3.09,3.09,0,0,0-3.09-3.09H871.6A3.09,3.09,0,0,1,868.51,273.28Z" transform="translate(-3.13 1.21)"/><path class="cls-3" d="M868.51,273.28a3.09,3.09,0,0,1,3.09-3.09h85c11.12,0,15.46,5.91,15.46,17v23.18a3.1,3.1,0,0,1-3.09,3.1H927.23a3.1,3.1,0,0,1-3.09-3.1v-30.9a3.09,3.09,0,0,0-3.09-3.09H871.6A3.09,3.09,0,0,1,868.51,273.28Z" transform="translate(-3.13 1.21)"/><path class="cls-2" d="M942.87,407.72H967a17.12,17.12,0,0,1,17.13,17.12v.31L983,486.44a4.82,4.82,0,0,1-4.82,4.73H966.05a4.81,4.81,0,0,1-4.82-4.79V426.45a4.81,4.81,0,0,0-4.79-4.82H942.87a4.81,4.81,0,0,1-4.82-4.79v-4.3a4.81,4.81,0,0,1,4.79-4.82Z" transform="translate(-3.13 1.21)"/><path class="cls-3" d="M942.87,407.72H967a17.12,17.12,0,0,1,17.13,17.12v.31L983,486.44a4.82,4.82,0,0,1-4.82,4.73H966.05a4.81,4.81,0,0,1-4.82-4.79V426.45a4.81,4.81,0,0,0-4.79-4.82H942.87a4.81,4.81,0,0,1-4.82-4.79v-4.3a4.81,4.81,0,0,1,4.79-4.82Z" transform="translate(-3.13 1.21)"/><path class="cls-2" d="M860.78,532.89a3.09,3.09,0,0,1,3.09-3.09h94.27a3.09,3.09,0,0,0,3.09-3.09V508.17a3.09,3.09,0,0,1,3.09-3.09h6.18a3.09,3.09,0,0,1,3.09,3.09v30.9a3.09,3.09,0,0,1-3.09,3.09H863.87a3.09,3.09,0,0,1-3.09-3.09Z" transform="translate(-3.13 1.21)"/><path class="cls-3" d="M860.78,532.89a3.09,3.09,0,0,1,3.09-3.09h94.27a3.09,3.09,0,0,0,3.09-3.09V508.17a3.09,3.09,0,0,1,3.09-3.09h6.18a3.09,3.09,0,0,1,3.09,3.09v30.9a3.09,3.09,0,0,1-3.09,3.09H863.87a3.09,3.09,0,0,1-3.09-3.09Z" transform="translate(-3.13 1.21)"/><rect class="cls-2" x="919.47" y="334.75" width="12.36" height="51" rx="3.09"/><rect class="cls-3" x="919.47" y="334.75" width="12.36" height="51" rx="3.09"/><path class="cls-2" d="M944.23,338.12v40.3a4.64,4.64,0,0,0,4.64,4.64h12.89a4.57,4.57,0,0,1,2,.48l4.76,2.39a4.64,4.64,0,0,0,6.63-4.09V338.12a4.64,4.64,0,0,0-4.64-4.64H948.81A4.64,4.64,0,0,0,944.23,338.12Z" transform="translate(-3.13 1.21)"/><path class="cls-3" d="M944.23,338.12v40.3a4.64,4.64,0,0,0,4.64,4.64h12.89a4.57,4.57,0,0,1,2,.48l4.76,2.39a4.64,4.64,0,0,0,6.63-4.09V338.12a4.64,4.64,0,0,0-4.64-4.64H948.81A4.64,4.64,0,0,0,944.23,338.12Z" transform="translate(-3.13 1.21)"/><path class="cls-2" d="M822.15,925.41a3.09,3.09,0,0,0-3.09,3.09v27.81a3.09,3.09,0,0,0,3.09,3.09h77.27a8.61,8.61,0,0,0,5.27-2.18L956,906a3.09,3.09,0,0,0,0-4.36l-8-8a3.09,3.09,0,0,0-4.36,0l-8,8a8.64,8.64,0,0,1-5.27,2.18H887.05a3.09,3.09,0,0,0-3.09,3.09v13.91a3.09,3.09,0,0,1-3.09,3.09h-3.09a3.09,3.09,0,0,0-3.09,3.09v9.27a3.09,3.09,0,0,1-3.09,3.09H829.88a3.09,3.09,0,0,1-3.09-3.09V928.5a3.09,3.09,0,0,0-3.09-3.09Z" transform="translate(-3.13 1.21)"/><path class="cls-3" d="M822.15,925.41a3.09,3.09,0,0,0-3.09,3.09v27.81a3.09,3.09,0,0,0,3.09,3.09h77.27a8.61,8.61,0,0,0,5.27-2.18L956,906a3.09,3.09,0,0,0,0-4.36l-8-8a3.09,3.09,0,0,0-4.36,0l-8,8a8.64,8.64,0,0,1-5.27,2.18H887.05a3.09,3.09,0,0,0-3.09,3.09v13.91a3.09,3.09,0,0,1-3.09,3.09h-3.09a3.09,3.09,0,0,0-3.09,3.09v9.27a3.09,3.09,0,0,1-3.09,3.09H829.88a3.09,3.09,0,0,1-3.09-3.09V928.5a3.09,3.09,0,0,0-3.09-3.09Z" transform="translate(-3.13 1.21)"/><path class="cls-2" d="M805.15,845.05a3.09,3.09,0,0,0-3.09,3.09v20.09a3.1,3.1,0,0,0,3.09,3.09h17a3.09,3.09,0,0,0,3.09-3.09V854.32a3.09,3.09,0,0,1,3.09-3.09H884a8.64,8.64,0,0,1,5.27,2.18l.28.28a8.67,8.67,0,0,0,5.27,2.18h3.09c1.7,0,2.18-1.06,1.08-2.35l-5.25-6.19a7.6,7.6,0,0,0-5.1-2.34Z" transform="translate(-3.13 1.21)"/><path class="cls-3" d="M805.15,845.05a3.09,3.09,0,0,0-3.09,3.09v20.09a3.1,3.1,0,0,0,3.09,3.09h17a3.09,3.09,0,0,0,3.09-3.09V854.32a3.09,3.09,0,0,1,3.09-3.09H884a8.64,8.64,0,0,1,5.27,2.18l.28.28a8.67,8.67,0,0,0,5.27,2.18h3.09c1.7,0,2.18-1.06,1.08-2.35l-5.25-6.19a7.6,7.6,0,0,0-5.1-2.34Z" transform="translate(-3.13 1.21)"/></g><path class="cls-2" d="M972.73,83a1.47,1.47,0,0,0-.32,2.42l7.18,7.18a2.55,2.55,0,0,0,3.07.3l7.45-5a13.23,13.23,0,0,1,12.42-1.2l3.62,1.51a3.45,3.45,0,0,0,3.33-.58l8-7.3a1.13,1.13,0,0,0-.39-2l-10.65-4a25.82,25.82,0,0,0-22.07,1.88Z" transform="translate(-3.13 1.21)"/><path class="cls-5" d="M972.73,83a1.47,1.47,0,0,0-.32,2.42l7.18,7.18a2.55,2.55,0,0,0,3.07.3l7.45-5a13.23,13.23,0,0,1,12.42-1.2l3.62,1.51a3.45,3.45,0,0,0,3.33-.58l8-7.3a1.13,1.13,0,0,0-.39-2l-10.65-4a25.82,25.82,0,0,0-22.07,1.88Z" transform="translate(-3.13 1.21)"/><path class="cls-2" d="M1036.09,93.85a1.46,1.46,0,0,0-2.27-.89l-8.69,5.24a2.56,2.56,0,0,0-1,2.92l3,8.42a13.2,13.2,0,0,1-1.81,12.34L1023,125a3.46,3.46,0,0,0-.24,3.37l5.17,9.56a1.13,1.13,0,0,0,2.08.11l6.43-9.38a25.79,25.79,0,0,0,3.48-21.87Z" transform="translate(-3.13 1.21)"/><path class="cls-5" d="M1036.09,93.85a1.46,1.46,0,0,0-2.27-.89l-8.69,5.24a2.56,2.56,0,0,0-1,2.92l3,8.42a13.2,13.2,0,0,1-1.81,12.34L1023,125a3.46,3.46,0,0,0-.24,3.37l5.17,9.56a1.13,1.13,0,0,0,2.08.11l6.43-9.38a25.79,25.79,0,0,0,3.48-21.87Z" transform="translate(-3.13 1.21)"/><path class="cls-2" d="M1019,183.52c-.25,2.74,1.64,4.14,4.19,3.11l47.72-19.26a7,7,0,0,0,4.09-6.84l-.45-4c-2.25-6.74-14.39-10.62-21-8l-15,7c-11.25,6.36-13.75,10.19-19,22Z" transform="translate(-3.13 1.21)"/><path class="cls-5" d="M1019,183.52c-.25,2.74,1.64,4.14,4.19,3.11l47.72-19.26a7,7,0,0,0,4.09-6.84l-.45-4c-2.25-6.74-14.39-10.62-21-8l-15,7c-11.25,6.36-13.75,10.19-19,22Z" transform="translate(-3.13 1.21)"/><path class="cls-2" d="M1010.5,312.5a2,2,0,0,1-2,2h-18a2,2,0,0,1-2-2v-67a3.72,3.72,0,0,1,1.76-3l3.77-2.06a11.42,11.42,0,0,1,10.94,0l3.77,2.06a3.72,3.72,0,0,1,1.76,3Z" transform="translate(-3.13 1.21)"/><path class="cls-5" d="M1010.5,312.5a2,2,0,0,1-2,2h-18a2,2,0,0,1-2-2v-67a3.72,3.72,0,0,1,1.76-3l3.77-2.06a11.42,11.42,0,0,1,10.94,0l3.77,2.06a3.72,3.72,0,0,1,1.76,3Z" transform="translate(-3.13 1.21)"/><path class="cls-2" d="M1011.5,364.5a2,2,0,0,0-2-2h-18a2,2,0,0,0-2,2v58a3.72,3.72,0,0,0,1.76,3l3.77,2.06a11.42,11.42,0,0,0,10.94,0l3.77-2.06a3.72,3.72,0,0,0,1.76-3Z" transform="translate(-3.13 1.21)"/><path class="cls-5" d="M1011.5,364.5a2,2,0,0,0-2-2h-18a2,2,0,0,0-2,2v58a3.72,3.72,0,0,0,1.76,3l3.77,2.06a11.42,11.42,0,0,0,10.94,0l3.77-2.06a3.72,3.72,0,0,0,1.76-3Z" transform="translate(-3.13 1.21)"/><rect class="cls-6" x="986.37" y="326.71" width="5" height="5"/><rect class="cls-6" x="1002.37" y="326.71" width="5" height="5"/><rect class="cls-6" x="1002.37" y="348.71" width="5" height="5"/><rect class="cls-6" x="986.37" y="348.71" width="5" height="5"/><rect class="cls-6" x="990.37" y="524.71" width="5" height="5"/><rect class="cls-6" x="1014.37" y="524.71" width="5" height="5"/><rect class="cls-6" x="1014.37" y="542.71" width="5" height="5"/><rect class="cls-6" x="990.37" y="542.71" width="5" height="5"/><rect class="cls-6" x="1045.37" y="537.71" width="17.5" height="17.5"/><rect class="cls-6" x="991.37" y="586.71" width="5" height="5"/><rect class="cls-6" x="1014.37" y="586.71" width="5" height="5"/><rect class="cls-6" x="1014.37" y="602.71" width="5" height="5"/><rect class="cls-6" x="991.37" y="602.71" width="5" height="5"/><rect class="cls-6" x="1014.37" y="620.71" width="5" height="5"/><rect class="cls-6" x="991.37" y="620.71" width="5" height="5"/><rect class="cls-6" x="1031.37" y="577.71" width="37.5" height="33.5"/><path class="cls-2" d="M981.46,908.53a6.24,6.24,0,0,1,.47-7.67l9.14-9.72a13.32,13.32,0,0,1,8.43-3.64h24a5,5,0,0,1,5,5v22a5,5,0,0,1-5,5h-29a11.14,11.14,0,0,1-8-4Z" transform="translate(-3.13 1.21)"/><path class="cls-5" d="M981.46,908.53a6.24,6.24,0,0,1,.47-7.67l9.14-9.72a13.32,13.32,0,0,1,8.43-3.64h24a5,5,0,0,1,5,5v22a5,5,0,0,1-5,5h-29a11.14,11.14,0,0,1-8-4Z" transform="translate(-3.13 1.21)"/><polygon class="cls-6" points="1035.37 870.71 1048.37 870.71 1048.37 864.71 1065.37 864.71 1065.37 886.71 1035.37 886.71 1035.37 870.71"/><rect class="cls-6" x="997.37" y="768.71" width="25" height="55"/><path class="cls-6" d="M996.5,648.5l4.88-6.53c4.16-3.77,10.38-3.14,15,.12l5.17,6.41v55h-25Z" transform="translate(-3.13 1.21)"/><rect class="cls-6" x="1028.37" y="638.71" width="23" height="83"/><rect class="cls-6" x="1012.37" y="461.71" width="27" height="30"/><path class="cls-2" d="M1036.54,453.43a13.07,13.07,0,0,1-3-2.58l-7.74-9.69a14.89,14.89,0,0,1-2.28-4c-1.19-3.11-3.06-8.3-3.07-8.84l-1.89-91.64a4.13,4.13,0,0,1,4.13-4.22h22.64a4.14,4.14,0,0,1,4.14,4.14V447.21a6,6,0,0,0,1.34,3.48l4.4,4.87c2.37,3.43.76,8.81-3.06,7.15Z" transform="translate(-3.13 1.21)"/><path class="cls-5" d="M1036.54,453.43a13.07,13.07,0,0,1-3-2.58l-7.74-9.69a14.89,14.89,0,0,1-2.28-4c-1.19-3.11-3.06-8.3-3.07-8.84l-1.89-91.64a4.13,4.13,0,0,1,4.13-4.22h22.64a4.14,4.14,0,0,1,4.14,4.14V447.21a6,6,0,0,0,1.34,3.48l4.4,4.87c2.37,3.43.76,8.81-3.06,7.15Z" transform="translate(-3.13 1.21)"/><path class="cls-2" d="M1077.2,177a1.39,1.39,0,0,0-2-1.21l-48.32,20.44a6.28,6.28,0,0,0-2.73,2.57l-6.22,12.42A10.15,10.15,0,0,0,1017,215v99a2,2,0,0,0,2,2h29a2,2,0,0,0,2-2V202a3.67,3.67,0,0,1,1.76-2.94l24.48-13.12a3.24,3.24,0,0,0,1.56-2.93Z" transform="translate(-3.13 1.21)"/><path class="cls-5" d="M1077.2,177a1.39,1.39,0,0,0-2-1.21l-48.32,20.44a6.28,6.28,0,0,0-2.73,2.57l-6.22,12.42A10.15,10.15,0,0,0,1017,215v99a2,2,0,0,0,2,2h29a2,2,0,0,0,2-2V202a3.67,3.67,0,0,1,1.76-2.94l24.48-13.12a3.24,3.24,0,0,0,1.56-2.93Z" transform="translate(-3.13 1.21)"/><path class="cls-2" d="M1063.5,850.5a2,2,0,0,1-2,2h-13a2,2,0,0,1-2-2v-2a2,2,0,0,0-2-2h-8a2,2,0,0,1-2-2v-91a2,2,0,0,1,2-2h25a2,2,0,0,1,2,2Z" transform="translate(-3.13 1.21)"/><path class="cls-5" d="M1063.5,850.5a2,2,0,0,1-2,2h-13a2,2,0,0,1-2-2v-2a2,2,0,0,0-2-2h-8a2,2,0,0,1-2-2v-91a2,2,0,0,1,2-2h25a2,2,0,0,1,2,2Z" transform="translate(-3.13 1.21)"/><rect class="cls-2" x="1056.37" y="646.71" width="27" height="9" rx="2"/><rect class="cls-5" x="1056.37" y="646.71" width="27" height="9" rx="2"/><path class="cls-2" d="M1081.5,539.2a2,2,0,0,1,2-2h56.64a2,2,0,0,1,2,2v6.32a2,2,0,0,0,2,2h2.29a2,2,0,0,1,2,2l.53,62.59a2,2,0,0,1-2,2h-2.29a2,2,0,0,0-2,2v8.19a2,2,0,0,1-2,2H1083.5a2,2,0,0,1-2-2Z" transform="translate(-3.13 1.21)"/><path class="cls-5" d="M1081.5,539.2a2,2,0,0,1,2-2h56.64a2,2,0,0,1,2,2v6.32a2,2,0,0,0,2,2h2.29a2,2,0,0,1,2,2l.53,62.59a2,2,0,0,1-2,2h-2.29a2,2,0,0,0-2,2v8.19a2,2,0,0,1-2,2H1083.5a2,2,0,0,1-2-2Z" transform="translate(-3.13 1.21)"/><polyline class="cls-7" points="1246.87 262.37 1002.84 2.07 1059.11 1.21 1247.59 208.06"/><polygon class="cls-8" points="1025.9 1.21 1035.07 0.52 1246.87 229.71 1247.37 241.71 1025.9 1.21"/><path class="cls-2" d="M1104.18,206a2.15,2.15,0,0,0,2.9.28l5.84-4.54a1.81,1.81,0,0,0,.22-2.7L1091.86,176a1.51,1.51,0,0,0-2.47.19l-3.78,5.68a2.76,2.76,0,0,0,.21,3.17Z" transform="translate(-3.13 1.21)"/><path class="cls-5" d="M1104.18,206a2.15,2.15,0,0,0,2.9.28l5.84-4.54a1.81,1.81,0,0,0,.22-2.7L1091.86,176a1.51,1.51,0,0,0-2.47.19l-3.78,5.68a2.76,2.76,0,0,0,.21,3.17Z" transform="translate(-3.13 1.21)"/><path class="cls-2" d="M1116.2,212.44a1.7,1.7,0,0,0-.42,2.6l7.44,8.92a2,2,0,0,0,2.8.24l4-3.4a2.05,2.05,0,0,0,.25-2.85l-6.46-7.9a2.35,2.35,0,0,0-3-.49Z" transform="translate(-3.13 1.21)"/><path class="cls-5" d="M1116.2,212.44a1.7,1.7,0,0,0-.42,2.6l7.44,8.92a2,2,0,0,0,2.8.24l4-3.4a2.05,2.05,0,0,0,.25-2.85l-6.46-7.9a2.35,2.35,0,0,0-3-.49Z" transform="translate(-3.13 1.21)"/><path class="cls-2" d="M1139.64,230.24a3.43,3.43,0,0,1,3.31.63l15.1,14.26a7.78,7.78,0,0,0,3.42,1.7l8.06,1.34a7.11,7.11,0,0,1,3.36,1.77l55.9,57.62a14,14,0,0,1,1.77,17.28l-.82,1.29a14.51,14.51,0,0,1-19.11,5h0a2,2,0,0,1-1.05-1.89l.8-12.72a5.21,5.21,0,0,0-1.28-3.43l-76.2-78.14a1.24,1.24,0,0,1,.46-2.17Z" transform="translate(-3.13 1.21)"/><path class="cls-5" d="M1139.64,230.24a3.43,3.43,0,0,1,3.31.63l15.1,14.26a7.78,7.78,0,0,0,3.42,1.7l8.06,1.34a7.11,7.11,0,0,1,3.36,1.77l55.9,57.62a14,14,0,0,1,1.77,17.28l-.82,1.29a14.51,14.51,0,0,1-19.11,5h0a2,2,0,0,1-1.05-1.89l.8-12.72a5.21,5.21,0,0,0-1.28-3.43l-76.2-78.14a1.24,1.24,0,0,1,.46-2.17Z" transform="translate(-3.13 1.21)"/><rect class="cls-2" x="1212.37" y="348.71" width="12" height="102" rx="2"/><rect class="cls-5" x="1212.37" y="348.71" width="12" height="102" rx="2"/><path class="cls-2" d="M1184.5,484.5a2,2,0,0,0-2,2v3a2,2,0,0,0,2,2h38a2,2,0,0,0,2-2v-17a2,2,0,0,0-2-2h-5a2,2,0,0,0-2,2v10a2,2,0,0,1-2,2Z" transform="translate(-3.13 1.21)"/><path class="cls-5" d="M1184.5,484.5a2,2,0,0,0-2,2v3a2,2,0,0,0,2,2h38a2,2,0,0,0,2-2v-17a2,2,0,0,0-2-2h-5a2,2,0,0,0-2,2v10a2,2,0,0,1-2,2Z" transform="translate(-3.13 1.21)"/><rect class="cls-2" x="1200.37" y="506.71" width="12" height="12" rx="2"/><rect class="cls-5" x="1200.37" y="506.71" width="12" height="12" rx="2"/><rect class="cls-2" x="1209.37" y="534.71" width="20" height="98" rx="2"/><rect class="cls-5" x="1209.37" y="534.71" width="20" height="98" rx="2"/><rect class="cls-2" x="1107.37" y="643.71" width="93" height="18" rx="2"/><rect class="cls-5" x="1107.37" y="643.71" width="93" height="18" rx="2"/><rect class="cls-2" x="1224.37" y="679.71" width="9" height="55" rx="2"/><rect class="cls-5" x="1224.37" y="679.71" width="9" height="55" rx="2"/><rect class="cls-2" x="1224.37" y="755.71" width="13" height="16" rx="2"/><rect class="cls-5" x="1224.37" y="755.71" width="13" height="16" rx="2"/><rect class="cls-2" x="1223.37" y="799.21" width="16.66" height="20.5" rx="2"/><rect class="cls-5" x="1223.37" y="799.21" width="16.66" height="20.5" rx="2"/><rect class="cls-2" x="1224.37" y="834.71" width="13" height="16" rx="2"/><rect class="cls-5" x="1224.37" y="834.71" width="13" height="16" rx="2"/><path class="cls-2" d="M1246.5,146.5c0,1.65-.87,2-1.93.7l-48.14-57.4a2.43,2.43,0,0,1,.67-3.79l8.8-5a3.66,3.66,0,0,1,4.49.84l34.22,42.34a9.86,9.86,0,0,1,1.89,5.33Z" transform="translate(-3.13 1.21)"/><path class="cls-5" d="M1246.5,146.5c0,1.65-.87,2-1.93.7l-48.14-57.4a2.43,2.43,0,0,1,.67-3.79l8.8-5a3.66,3.66,0,0,1,4.49.84l34.22,42.34a9.86,9.86,0,0,1,1.89,5.33Z" transform="translate(-3.13 1.21)"/><path class="cls-2" d="M1129.6,16.35a2.38,2.38,0,0,0-.64,3.76l40.82,47.36a9,9,0,0,0,15.72-5.84V17.87a4,4,0,0,0-6.46-3.14l-15,11.78a3.31,3.31,0,0,1-4.39-.35l-14.24-15.48a4,4,0,0,0-4.63-.72Z" transform="translate(-3.13 1.21)"/><path class="cls-5" d="M1129.6,16.35a2.38,2.38,0,0,0-.64,3.76l40.82,47.36a9,9,0,0,0,15.72-5.84V17.87a4,4,0,0,0-6.46-3.14l-15,11.78a3.31,3.31,0,0,1-4.39-.35l-14.24-15.48a4,4,0,0,0-4.63-.72Z" transform="translate(-3.13 1.21)"/></svg>