<svg id="Layer_1" data-name="Layer 1" xmlns="http://www.w3.org/2000/svg" viewBox="0 0 704 315"><defs><style>.cls-1{fill:#a09875;}.cls-2{fill:#eae6d8;}</style></defs><polygon class="cls-1" points="85 0 199 0 347 176 475 0 575 0 553 16 625 238 694 238 704 268 639 268 690 315 511 315 537 269 153 268 193 315 27 315 70 270 0 269 11 239 76 239 114 15 85 0"/><polygon class="cls-2" points="490 47.5 536 238.5 361 238.5 490 47.5"/><polygon class="cls-2" points="185 47.5 335 238.5 161 238.5 185 47.5"/></svg>