<svg id="Layer_1" data-name="Layer 1" xmlns="http://www.w3.org/2000/svg" viewBox="0 0 637.17 983.85"><defs><style>.cls-1{fill:#353f5a;stroke-linejoin:bevel;}.cls-1,.cls-2,.cls-3,.cls-4{stroke:#fff;stroke-linecap:square;stroke-width:4px;}.cls-2{fill:#98999a;}.cls-2,.cls-3,.cls-4,.cls-5,.cls-6{stroke-miterlimit:10;}.cls-3{fill:#d0cfd4;}.cls-4{fill:#929aaf;}.cls-5{fill:none;}.cls-5,.cls-6{stroke:#45495d;stroke-width:5px;}.cls-6{fill:#c9ccd6;}</style></defs><polygon class="cls-1" points="179 288.85 199.69 971.63 30 973.85 2 58.85 139 1.85 595 483.85 528 544.85 553 575.85 492 634.85 179 288.85"/><polygon class="cls-2" points="189.92 294.31 248 239.85 189.92 177.18 74 218.85 74 245.18 103 242.85 106 375.85 56 375.85 56 405.85 108 404.85 113 543.85 183.41 543.85 189.92 294.31"/><polygon class="cls-3" points="243 657.85 379 529.85 341 487.85 357 472.85 182 285.85 176 292.85 185 597.85 243 657.85"/><polygon class="cls-1" points="629 981.85 629 943.68 635.17 943.68 634 574.85 553 575.85 492 634.85 492 978.07 629 981.85"/><polygon class="cls-4" points="233 842.85 231 967.85 252 967.85 252 950.35 281 950.85 281 933.68 421 932.85 421 954.62 449 953.85 449 970.85 470.33 970.85 469.67 906.85 492 906.85 492 845.35 451 845.85 451 861.85 254 859.85 254 842.85 233 842.85"/><polyline class="cls-5" points="457.5 883.35 427.67 883.35 429.5 952.35"/><polygon class="cls-6" points="280 899.85 280 922.29 305 921.85 305 899.85 280 899.85"/><line class="cls-6" x1="305.5" y1="903.35" x2="394.5" y2="904.35"/><polygon class="cls-6" points="394.5 897.35 394.5 919.79 419.5 919.35 419.5 897.35 394.5 897.35"/><polygon class="cls-6" points="458.5 869.35 458.5 891.79 483.5 891.35 483.5 869.35 458.5 869.35"/><polyline class="cls-2" points="206.35 192.82 244 157.85 268 183.85 231.94 220.44"/></svg>