<svg id="Layer_2" data-name="Layer 2" xmlns="http://www.w3.org/2000/svg" viewBox="0 0 256.54 245.66"><defs><style>.cls-1{fill:#8fadb8;}.cls-2{fill:#98acb5;}.cls-3{fill:#527989;}.cls-4{fill:#52707f;}.cls-5{fill:#8dbeca;}.cls-6{fill:#75a1a2;}</style></defs><rect class="cls-1" x="95" y="80.12" width="63.65" height="60.48"/><polygon class="cls-2" points="34 159.99 34 183.38 0 178.12 0 164.81 34 159.99"/><polygon class="cls-2" points="34 114.47 34 137.86 0 132.6 0 119.29 34 114.47"/><polygon class="cls-2" points="34 68.47 34 91.86 0 86.6 0 73.29 34 68.47"/><polygon class="cls-2" points="83.42 34.39 60.04 33.94 65.94 0.05 79.25 0.3 83.42 34.39"/><polygon class="cls-2" points="138.74 34.34 115.36 33.89 121.26 0 134.57 0.25 138.74 34.34"/><polygon class="cls-2" points="190.74 34.34 167.36 33.89 173.26 0 186.57 0.25 190.74 34.34"/><polygon class="cls-2" points="222.06 94.34 222 71.12 256.54 77.16 256.18 90.47 222.06 94.34"/><polygon class="cls-2" points="65.37 211.68 88.75 211.6 83.62 245.62 70.31 245.66 65.37 211.68"/><polygon class="cls-2" points="120.36 211.22 143.75 211.13 138.61 245.15 125.3 245.2 120.36 211.22"/><polygon class="cls-2" points="171.36 211.22 194.75 211.13 189.61 245.15 176.3 245.2 171.36 211.22"/><polygon class="cls-2" points="222 137.39 221.94 114.17 256.49 120.21 256.12 133.52 222 137.39"/><polygon class="cls-2" points="222 182.94 221.94 159.72 256.49 165.76 256.12 179.07 222 182.94"/><polygon class="cls-3" points="222 34.12 158.65 80.12 95 80.12 34 34.12 222 34.12"/><polygon class="cls-4" points="34 34.12 95 80.12 95 140.6 34 212.14 34 34.12"/><polygon class="cls-5" points="222 212.12 158.65 140.6 158.65 80.12 222 34.12 222 212.12"/><polygon class="cls-6" points="34 212.14 95 140.6 158.65 140.6 222 212.12 34 212.14"/></svg>