<svg id="Layer_1" data-name="Layer 1" xmlns="http://www.w3.org/2000/svg" viewBox="0 0 870.5 744.5"><defs><style>.cls-1{fill:#505056;}.cls-2{fill:#536773;stroke:#596e8e;}.cls-10,.cls-2,.cls-3,.cls-4,.cls-6,.cls-7{stroke-miterlimit:10;}.cls-3,.cls-4{fill:none;}.cls-10,.cls-3{stroke:#fff;stroke-width:3px;}.cls-4,.cls-6{stroke:#07b7a9;}.cls-5{fill:#b6b6a8;}.cls-6{fill:#0a998b;}.cls-7{fill:#07b7a9;stroke:#0ac6b3;}.cls-8{fill:#1a1f3a;}.cls-9{fill:#053866;}.cls-10{fill:#365063;}</style></defs><polygon class="cls-1" points="57 0 57 261 0 261 0 318 21 318 22 726 46 726 45 567 121 566 121 488 147 489 147 531 266 530 266 494 704 490 704 508 855 508 855 337 870 337 870 303 498 297 494 182 467 182 466 193 385 194 384 148 351 149 351 164 268 165 268 119 237 119 237 132 154 132 153 0 57 0"/><polygon class="cls-2" points="45.59 661.29 46 744 749 743 749 625 713 625 712 567 693 567 692 626 443 625 446 618 435 605 414 625 369 626 369 660 45.59 661.29"/><polygon class="cls-3" points="123 88 153.67 88 154 310 238 310 238 119 268 119 268 310 353 310 353 149 384.06 148.81 384 310 467 310 467 182 496 182 497 474 468 474 468 422 382 422 382 474 353 474 352 422 267 422 267 474 238 474 238 422 151 422 151 474 123 474 123 88"/><rect class="cls-4" x="126" y="92" width="22" height="377"/><rect class="cls-5" x="148" y="311.73" width="323.21" height="109.12"/><polygon class="cls-6" points="137 102 126 92 148 92 137 102"/><polygon class="cls-6" points="137 459 126 469 148 469 137 459"/><polygon class="cls-6" points="137 102 137 459 126 469 126 92 137 102"/><polygon class="cls-7" points="137 102 148 92 148 469 137 459 137 102"/><polygon class="cls-6" points="252.79 133.69 241.79 124.54 263.79 124.54 252.79 133.69"/><polygon class="cls-6" points="252.79 460.35 241.79 469.5 263.79 469.5 252.79 460.35"/><polygon class="cls-6" points="252.79 133.69 252.79 460.35 241.79 469.5 241.79 124.54 252.79 133.69"/><polygon class="cls-7" points="252.79 133.69 263.79 124.54 263.79 469.5 252.79 460.35 252.79 133.69"/><polygon class="cls-6" points="367.64 162.33 356.64 153.96 378.64 153.96 367.64 162.33"/><polygon class="cls-6" points="367.64 461.13 356.64 469.5 378.64 469.5 367.64 461.13"/><polygon class="cls-6" points="367.64 162.33 367.64 461.13 356.64 469.5 356.64 153.96 367.64 162.33"/><polygon class="cls-7" points="367.64 162.33 378.64 153.96 378.64 469.5 367.64 461.13 367.64 162.33"/><polygon class="cls-6" points="482.21 192.93 471.21 185.39 493.21 185.39 482.21 192.93"/><polygon class="cls-6" points="482.21 461.96 471.21 469.5 493.21 469.5 482.21 461.96"/><polygon class="cls-6" points="482.21 192.93 482.21 461.96 471.21 469.5 471.21 185.39 482.21 192.93"/><polygon class="cls-7" points="482.21 192.93 493.21 185.39 493.21 469.5 482.21 461.96 482.21 192.93"/><polygon class="cls-8" points="498 297 498 491.88 712.58 490.05 711.58 301.24 498 297"/><polygon class="cls-9" points="870.5 303.5 870.5 337.5 855.5 337.5 855.5 510.5 704.5 510.5 704.5 300.33 870.5 303.5"/><rect class="cls-10" x="705.5" y="311.5" width="150" height="197.5"/></svg>