<svg id="Layer_1" data-name="Layer 1" xmlns="http://www.w3.org/2000/svg" viewBox="0 0 934 677"><defs><style>.cls-1,.cls-3{fill:#536773;}.cls-1{stroke:#596e8e;}.cls-1,.cls-2,.cls-5{stroke-miterlimit:10;}.cls-2{fill:#fff;stroke:#d3d3d3;}.cls-4{fill:#b4cfd5;}.cls-5{fill:none;stroke:#000102;stroke-width:3px;}.cls-6{fill:#a29d96;}</style></defs><rect class="cls-1" x="453.5" y="468" width="100" height="91.5"/><polygon class="cls-1" points="932.5 471.5 933.5 9.5 814.5 9.5 814.5 0.5 782.5 0.5 782.5 76.5 793.5 76.5 794.5 471.5 932.5 471.5"/><polygon class="cls-2" points="555.5 475.5 643.5 475.5 794.5 475.5 794.5 258.5 634.5 260.5 634.5 221.5 606.5 221.5 606.5 260.5 419.5 260.5 419.5 236.5 413.5 236.5 434.5 90.5 145.5 90.5 145.5 107.5 118.5 107.5 112.5 260.5 0.5 260.5 0.5 380.5 118.5 381.5 118.5 354.5 136.5 354.5 136.5 467.5 451.5 467.5 555.5 475.5"/><rect class="cls-3" x="177.5" y="342.5" width="60" height="35"/><rect class="cls-3" x="329" y="338" width="38" height="46"/><rect class="cls-3" x="253" y="387" width="45" height="40"/><rect class="cls-3" x="560" y="430" width="78" height="38"/><rect class="cls-4" x="177" y="227" width="25" height="25"/><rect class="cls-4" x="253" y="227" width="25" height="25"/><rect class="cls-4" x="330" y="227" width="25" height="25"/><rect class="cls-3" x="560" y="299" width="48" height="40"/><polygon class="cls-1" points="769.5 475.36 674.5 475.5 674.5 490.5 643.5 490.5 643.5 663.5 687.5 663.5 687.5 676.5 751.5 676.5 751.5 665.5 793.5 665.5 793.5 519.5 813.5 519.5 813.5 487.5 769.5 487.5 769.5 475.36"/><rect class="cls-3" x="133.5" y="261.5" width="239" height="20"/><polyline class="cls-5" points="77 360 134 331 330 335"/><polyline class="cls-5" points="159.21 331.51 159.5 441.5 312.5 441.5 388.5 384.5 388.5 334.5 367.5 334.5"/><polyline class="cls-5" points="377.5 265.5 377.5 281.5 388.5 281.5 388.5 313.36 388.5 348.07"/><polyline class="cls-5" points="766.5 348.5 708.5 348.5 708.5 389.5 632.5 389.5 632.5 396.5 534.5 396.5 534.5 386.5 517.29 387 517.5 377.5 435.5 377.5 435.5 331.5 413.5 331.5"/><rect class="cls-3" x="432" y="387" width="89" height="48"/><polyline class="cls-5" points="435.5 331.5 443 331 443 313 388 313"/><polyline class="cls-5" points="614.5 359.5 603.5 359.5 603.5 348.5 546.5 348.5 546.5 312.5 520.5 312.5 520.5 298.5 472.93 298.5 442.5 298.5 442.5 312.5"/><polyline class="cls-5" points="472.5 298.5 472.5 324.5 443 324.5"/><polyline class="cls-5" points="603.43 396.5 603.5 420.5 624.5 420.5"/><polyline class="cls-5" points="652 359 670 359 670 324"/><rect class="cls-6" x="688.5" y="486.5" width="61" height="190"/></svg>
