<svg id="Layer_2" data-name="Layer 2" xmlns="http://www.w3.org/2000/svg" viewBox="0 0 394 283.62"><defs><style>.cls-1{fill:#606778;}.cls-2{fill:#708599;}.cls-3{fill:#495771;}.cls-4{fill:#829fb1;}.cls-5{fill:#464e61;}.cls-5,.cls-6{stroke:#fff;stroke-miterlimit:10;}.cls-6{fill:#444c5f;}.cls-7{fill:#454b5b;}.cls-8{fill:#749eb2;}.cls-9{fill:#3f556a;}.cls-10{fill:#536e85;}.cls-11{fill:#8fb7d1;}</style></defs><path class="cls-1" d="M285.89,329.5l11.61-8,69-45a143.52,143.52,0,0,1-35-58l-73,29-1,5h-58v-6.28l-44,.28V251l-37,.46V502.12H235.67l-1.17-6.62H512.2l.3-166Zm-31.39,125h-29a130.43,130.43,0,0,1-.15-77.92H254.5Z" transform="translate(-118.5 -218.5)"/><polygon class="cls-2" points="0 283.62 41 240 77.96 240 116 277 117.17 283.62 0 283.62"/><polygon class="cls-3" points="0 33 37 32.54 37 152.92 41 152.92 41 240 0 283.62 0 33"/><path class="cls-4" d="M235.67,252.5V376.58H225.35a142.16,142.16,0,0,0,.15,77.92h10.17l-1.17,41-38-37V371.42h1.37L199.5,252.5Z" transform="translate(-118.5 -218.5)"/><polygon class="cls-5" points="37 32.54 37 152.92 79.33 152.92 81 34 81 27.72 37 28 37 32.54"/><rect class="cls-6" x="41" y="152.92" width="36.96" height="87.08"/><polygon class="cls-7" points="186.5 43.5 190.5 51.5 203.5 45.5 199.5 37.5 186.5 43.5"/><polygon class="cls-8" points="190.5 51.5 179 103 248 58 203.5 45.5 190.5 51.5"/><path class="cls-9" d="M305,262l-47.5-9.5a145,145,0,0,0,40,69q5.75-25.75,11.5-51.5Z" transform="translate(-118.5 -218.5)"/><polygon class="cls-10" points="199.5 37.5 213 0 140 29 139 34 186.5 43.5 199.5 37.5"/><path class="cls-11" d="M322,264l-4-8,13.5-37.5a138.61,138.61,0,0,0,35,58Z" transform="translate(-118.5 -218.5)"/></svg>