<svg id="Layer_1" data-name="Layer 1" xmlns="http://www.w3.org/2000/svg" viewBox="0 0 298.45 232.2"><defs><style>.cls-1{fill:#f3c317;}.cls-2{fill:#132e5c;}.cls-3{fill:#1f427d;}.cls-4{fill:#152f5b;}.cls-5{fill:#8f8075;}.cls-6{fill:#514e4c;}.cls-7{fill:#2e322f;}.cls-8{fill:#aa9f9c;}.cls-9{fill:#d6ba3d;}.cls-10{fill:#fcfae9;}.cls-11{fill:#e9c968;}.cls-12{fill:none;}</style></defs><path class="cls-1" d="M37.33,3.85l.74.53a15.86,15.86,0,0,0-3.26-3A27.46,27.46,0,0,1,37.33,3.85Z" transform="translate(-34.81 -1.41)"/><path class="cls-1" d="M201.18,135c-1-1.73-1.86-3.5-2.68-5.29A34,34,0,0,0,201.18,135Z" transform="translate(-34.81 -1.41)"/><path class="cls-1" d="M205,141.57a4.23,4.23,0,0,1,1,1.67s0,.07,0,.11a16,16,0,0,0,1.56,2.07l-3.43-5.37Z" transform="translate(-34.81 -1.41)"/><path class="cls-1" d="M192.06,87.68l0,1.19c.12-1.08.26-2.16.42-3.23Q192.3,86.65,192.06,87.68Z" transform="translate(-34.81 -1.41)"/><path class="cls-1" d="M193.32,81a3.08,3.08,0,0,1-.2.71c0,.32-.05.63-.09,1a76.37,76.37,0,0,1,8-22.16A63.94,63.94,0,0,0,193.32,81Z" transform="translate(-34.81 -1.41)"/><path class="cls-1" d="M226,33.49c-1.25.92-2.48,1.86-3.67,2.82,1.46-1.08,3-2.07,4.46-3A3.82,3.82,0,0,1,226,33.49Z" transform="translate(-34.81 -1.41)"/><path class="cls-1" d="M266.58,23.4c-1.53-.11-3-.16-4.42-.36a82.66,82.66,0,0,0-10.3.95,72.26,72.26,0,0,1,16.42-.42Z" transform="translate(-34.81 -1.41)"/><path class="cls-1" d="M316.9,49.86q1.46,1.77,2.79,3.62A34.54,34.54,0,0,0,316.9,49.86Z" transform="translate(-34.81 -1.41)"/><path class="cls-1" d="M325.49,62.67c-.36-.53-.72-1.06-1.07-1.6.72,1.35,1.39,2.72,2,4.12-.1-.36-.19-.71-.28-1.06A4,4,0,0,1,325.49,62.67Z" transform="translate(-34.81 -1.41)"/><path class="cls-1" d="M333.24,92.77a.9.9,0,0,1,0-.23,53.09,53.09,0,0,0-.91-6.56,94.12,94.12,0,0,1,.88,13.54C333.27,97.25,333.26,95,333.24,92.77Z" transform="translate(-34.81 -1.41)"/><path class="cls-1" d="M333,106.21q.15-2.67.21-5.34c0,2.13-.2,4.24-.43,6.32C332.85,106.86,332.93,106.54,333,106.21Z" transform="translate(-34.81 -1.41)"/><path class="cls-1" d="M214.64,156.36l-3.21-5,.12.38a4,4,0,0,1,.14.65c.22.27.44.52.64.79.39.5.76,1,1.1,1.53.17.26.32.51.47.78l0,0C214.12,155.76,214.38,156.06,214.64,156.36Z" transform="translate(-34.81 -1.41)"/><path class="cls-2" d="M290.93,182.08c-9.24-3-16.44-8.8-22.67-16.32a88.29,88.29,0,0,1-13.5-22.42H240.07c-.8,2-2.33,1.74-3.84,1.21s-2.71-.9-4.1.12a1.75,1.75,0,0,1-1.68.1c-2.39-2.3-5.56-3.59-7.49-6.45-.19-.28-.25-.83-.47-.91-3-1-1.05-3.8-1.92-5.55,0,0,.21-.25.33-.37-.09-.34-.19-.68-.29-1s-.22-.49-.34-.74l-.06-1.89a.64.64,0,0,0-.33-.1c-1.51-.31-2.8-.49-1.9-2.87.61-1.59.27-3.51,0-5.29a52.3,52.3,0,0,1,0-12.75,21.48,21.48,0,0,0,.2-2.65c-.14-6.72-.7-13.45-.35-20.14.25-5,0-9.89.33-14.82.11-1.41.72-1.88,1.94-1.8.4-1.4.46-3,1.66-4,0-.42.06-.84.1-1.26-1.75-.83-1.35-2.35-.43-3.21,1.1-1,2.48-2.84,3.37-2.83,2.65,0,4.3-2,6.4-2.86,4.82-2,9.65-1,14.46-1.32.83-.06,1.74-.12,2.08,1,2.64.49,4.05-.61,5.14-3.29,3.39-8.35,8.8-15.12,15.32-21.07,2.81-2.56,5.69-3.91,9.35-3.47-.15-.07-.3-.16-.44-.24l-.71-.11c-2.67-.41-5.4-.89-8.1-1.19a72.26,72.26,0,0,0-16.42.42,63.59,63.59,0,0,0-24.26,8.88,4.05,4.05,0,0,1-.83.42c-1.5,1-3,1.94-4.46,3a115.26,115.26,0,0,0-10.88,10.28c-1.26,1.33-2.58,3-4.07,4.28-.3.39-.61.78-.9,1.18a4.19,4.19,0,0,1-.59,1.06A72.72,72.72,0,0,0,201,60.54a76.37,76.37,0,0,0-8,22.16c-.13,1-.31,2-.52,2.94s-.3,2.15-.42,3.23c0,2.1.12,4.19,0,6.14-.1,2.41-.12,4.73,0,7a41.52,41.52,0,0,1,.68,5.9,4.08,4.08,0,0,1-.06.71c.06.39.12.78.19,1.18.62,3.52,1.83,7.38,2.22,11,.15.48.28,1,.44,1.42a4,4,0,0,1,1,1.7,53,53,0,0,0,2,5.75c.82,1.79,1.72,3.56,2.68,5.29.22.34.43.68.66,1a35.25,35.25,0,0,1,2.38,4.05l3.43,5.37c.15.17.3.36.47.52a4.83,4.83,0,0,1,.67.89l.18.18a10.12,10.12,0,0,1,2.46,4.33l3.21,5c1.15,1.34,2.4,2.63,2.81,4.4.53.84,1.07,1.68,1.61,2.52a.34.34,0,0,1,.19.39l.37.54.06.11.34.52c.23.39.47.78.71,1.17a3.51,3.51,0,0,1,.29.36l.84,1.46c.58.74,1.15,1.49,1.69,2.25,1.83,2.6,3.44,5.4,5,8.16,1.84,2.66,3.49,5.45,5.13,8.25,1.14,1.74,2.3,3.46,3.45,5.19a25.6,25.6,0,0,1,2.07,3.09c.26.4.52.82.76,1.24.51.81,1,1.63,1.52,2.45a4.44,4.44,0,0,1,.38.8,56,56,0,0,1,5.83,9.11c1.16,2.16,2.41,4.25,3.7,6.32a3.45,3.45,0,0,1,.45.48,4.7,4.7,0,0,1,1.94,3.06l.51.92c1.1,1.56,2.3,3.07,3.24,4.65.59,1,1.15,2,1.71,3a2.3,2.3,0,0,1,.57.55,17.51,17.51,0,0,1,2.89,3.4c.55.81,1.06,1.65,1.58,2.48.08.13.16.26.25.38,2.16-3.71,4.45-7.35,6.69-10.95a4.73,4.73,0,0,1,1.39-2.29c.1-.13.18-.27.27-.4l.67-1.09a1.34,1.34,0,0,1,.11-.14,22.22,22.22,0,0,1,1.52-2.48c.49-.86,1-1.71,1.48-2.56a5.72,5.72,0,0,1,.75-1.29c.64-1.1,1.29-2.19,1.93-3.28a7.23,7.23,0,0,1,.92-1.53l1.34-2.23a2.85,2.85,0,0,1,.23-.37l.55-.91a4.51,4.51,0,0,1,.84-1,20.75,20.75,0,0,1,1.5-2.31c.22-.43.42-.86.59-1.29a3,3,0,0,1,.35-.93,8.8,8.8,0,0,0,.33-1.19,3.57,3.57,0,0,1,1.25-2.15,100.42,100.42,0,0,1,7.31-13A5.29,5.29,0,0,1,290.93,182.08Z" transform="translate(-34.81 -1.41)"/><path class="cls-3" d="M332.35,86c-1.4-7-4-13.86-5.9-20.79-.64-1.4-1.31-2.77-2-4.12-1.61-2.51-3.07-5.12-4.73-7.59q-1.33-1.84-2.79-3.62l-.25-.3c-1.64-1.78-3.26-3.56-4.88-5.35l-.1-.09a33.55,33.55,0,0,1-2.82-2.36,17.59,17.59,0,0,1-1.23-1.35l-1.26-1.08a3.85,3.85,0,0,1-.73-.52,102,102,0,0,1-10.67-7l-.16-.07c-1-.56-2-1.07-3.07-1.54l-.37-.17c-1.08-.48-2.19-.91-3.27-1.29a16.3,16.3,0,0,1-3-1.36A32.52,32.52,0,0,1,281,26c-.47-.15-.91-.31-1.34-.47q-1.06-.22-2.16-.39c-3.66-.44-6.54.91-9.35,3.47-6.52,6-11.93,12.72-15.32,21.07-1.09,2.68-2.5,3.78-5.14,3.29h-9.2c.7,1.38,1.64,1.12,2.48,1.12,14.73,0,29.48.37,44.19-.17,5.36-.2,9.55,1.66,13.82,4.22,1.46.87,1.3,3,2.71,4,.51.15.44.62.5,1,.51.18.44.66.51,1.07.52.31.42.87.52,1.36l0,0,.52,1.63,0,.08c.73.63.3,1.56.54,2.31.67.75.37,1.68.38,2.52q0,26.81,0,53.61c0,.87.23,1.79-.38,2.57-2,7.93-5.13,11.38-12,13.55-.4.54-1,.41-1.52.44h0c-1.2.76-2.54.38-3.81.53-.91.68-2,.44-3,.44q-14.61.08-29.22.12a88.29,88.29,0,0,0,13.5,22.42c6.23,7.52,13.43,13.34,22.67,16.32a5.29,5.29,0,0,0,3.67.09c2.82-4.35,5.81-8.6,8.63-12.93h0c.83-3.6,2.93-6.23,4.69-9.59a91.6,91.6,0,0,1,6.95-11.73c1.82-2.49,3.62-5,5.45-7.45.34-.62.7-1.24,1.07-1.88,3-5.18,4.78-11.22,7.94-16.25v-.1a4,4,0,0,1,.83-2.4l.27-.85c.54-4,1.46-7.88,2.34-11.8.23-2.08.38-4.19.43-6.32,0-.45,0-.9,0-1.35A94.12,94.12,0,0,0,332.35,86Z" transform="translate(-34.81 -1.41)"/><path class="cls-4" d="M304.28,128.26c-2,7.93-5.13,11.38-12,13.55-.55-.05-1.14-.22-1.52.44h0c-1.28.13-2.63-.33-3.82.54h0l-50.43,0a1.83,1.83,0,0,0-2.48,0h2.5c1.08.87,2.39.19,3.54.55-.8,2-2.33,1.74-3.84,1.21s-2.71-.9-4.1.12a1.75,1.75,0,0,1-1.68.1c-2.39-2.3-5.56-3.59-7.49-6.45-.19-.28-.25-.83-.47-.91-3-1-1.05-3.8-1.92-5.55,0,0,.21-.25.33-.37a.63.63,0,0,1,.33.09l.23.72c.06-.06.17-.12.17-.19,0-.29-.07-.52-.4-.53,0-.6.22-1.27-.52-1.6-.1-.73.3-1.6-.5-2.16v0c0-1.2,0-2.4,0-3.6V71.7a1.56,1.56,0,0,0-1,1.8q0,24.14,0,48.26a3.72,3.72,0,0,0,.41,2.32c.09,1.21.18,2.43.28,3.65-1.51-.31-2.8-.49-1.9-2.87.61-1.59.27-3.51,0-5.29a52.3,52.3,0,0,1,0-12.75,21.48,21.48,0,0,0,.2-2.65c-.14-6.72-.7-13.45-.35-20.14.25-5,0-9.89.33-14.82.11-1.41.72-1.88,1.94-1.8,1.2-1,1.32-2.58,1.67-4l0,0c.49-.38.74-.79.11-1.27-1.75-.83-1.35-2.35-.43-3.21,1.1-1,2.48-2.84,3.37-2.83,2.65,0,4.3-2,6.4-2.86,4.82-2,9.65-1,14.46-1.32.83-.06,1.74-.12,2.08,1h-9.2c.7,1.38,1.64,1.12,2.48,1.12,14.73,0,29.48.37,44.19-.17,5.36-.2,9.55,1.66,13.82,4.22,1.46.87,1.3,3,2.71,4l.51,1,0,0,.54,1.1,0,0c.17.46.35.92.53,1.38l0,0a2.51,2.51,0,0,0,.53,1.63l0,.08a4.28,4.28,0,0,0,.55,2.33l0,0ZM255.12,94.37h0a1.16,1.16,0,0,0,.74.9l0,0a38.69,38.69,0,0,0,5.15,7.42c.73,2,1.52,2,2.65.24,1.41-2.2,2.93-4.33,4.48-6.43s2.77-4.56,5.14-6.79c-.06,3.84.56,7.13-.37,10.41-3.87-.21-3.87-.21-3.87,3.74,0,2,.07,3.9,0,5.85-.06,1.53.31,2.22,1.95,2.19,5.75-.09,11.5,0,17.26-.05.64,0,1.37.19,1.85-.52a22.89,22.89,0,0,0,0-10.73.89.89,0,0,0-1.13-.47c-2.5.19-3.24-1-3.13-3.59.21-4.69,0-9.4,0-14.1a.19.19,0,0,0,.17-.24c4.78,0,4,.5,4.08-4.22,0-1.86-.08-3.73,0-5.59.08-1.53-.47-2-1.9-2-4.4.06-8.8.06-13.2,0-1.67,0-2.46.84-2.9,2.34l.06-.05a2.3,2.3,0,0,0-1.32,1.73.33.33,0,0,0-.2.34,10.21,10.21,0,0,0-2.63,3.87l0-.06a1.49,1.49,0,0,0-.89,1.21h0a1,1,0,0,0-.66,1l0,0a6.84,6.84,0,0,0-1.91,2.81h0a1,1,0,0,0-.63,1v0c-.87.68-1.61,2.14-2.86.52l0,0-.44-.68,0,0a2.28,2.28,0,0,0-1.14-1.52h0a2,2,0,0,0-1.09-1.57l0,0-.47-.65,0,0a6.78,6.78,0,0,0-2.13-3.18v0l-.45-.64,0,0a2.45,2.45,0,0,0-1.09-1.59l0,0a1,1,0,0,0-.67-.95v0a1.78,1.78,0,0,0-.84-1.26l0,0a3.68,3.68,0,0,0-4.24-2.88c-2.11.15-4.24,0-6.36.07-2.44.1-5.58-1.11-7.14.45s-.5,5-.56,7.68c-.1,3.85,0,3.85,3.84,3.51l.44.4c0,5-.08,10,0,14.93,0,1.72-.36,2.82-2.25,2.57-1.56-.21-2.1.51-2,2.12.08,2.66,0,5.33,0,8,0,1.13.22,1.86,1.54,1.85,6,0,12,0,18,0,1,0,1.35-.42,1.34-1.43,0-3,0-6,0-9.07,0-1-.33-1.6-1.31-1.43-2.9.53-3.22-1.21-3.05-3.57.11-1.51,0-3,.05-4.54,0-1.3.59-1.53,1.61-.92h0a5.81,5.81,0,0,0,1.89,2.79l.1-.08-.09.09Zm-25.18,46.75a4.54,4.54,0,0,0-.5-.36,2,2,0,0,0-.2.25l.62.21c.37.64,1,.54,1.54.53.21.46.58.47,1,.38.06,0,.09-.12.14-.19l-1.1-.21C231.06,141.17,230.49,141.17,229.94,141.12Zm24.35-19.06-.83,0c-.06-2.78-.06-2.77,2.12-1.71a1.17,1.17,0,0,0,1.42-.14c.41-.47,0-1-.23-1.44-.58-1.12-1.61-1.09-2.65-1.1a2.2,2.2,0,0,0-2.39,1.56,8.57,8.57,0,0,0,.08,6c.88,2.12,2.91,1.76,4.45,1.35,1.87-.51,1-2.5.87-3.67C256.88,121,255.35,122,254.29,122.06Zm-13.09.5c0,1.07,0,2,0,2.92,0,.7.14,1.2,1,1.21s1-.5,1-1.19c0-2.22-.06-4.44,0-6.66,0-1.21-.66-1.34-1.45-1.17s-2-.75-2,1c0,.83-.18,2-.86,2-1,.12-.79-1.09-.94-1.81-.26-1.25-1.07-1.33-2.09-1.32-1.2,0-1.1.82-1.11,1.62,0,2,0,3.9,0,5.86,0,.58-.16,1.33.63,1.54s1.12,0,1.18-.91c0-.58.43-.68.89-.41,2.2,1.22,2.18,1.22,2.9-1.24C240.46,123.61,240.38,123,241.2,122.56Zm29.44-.43c0,1.06,0,2.12,0,3.18,0,.76.07,1.26,1,1.42,3.49.58,4.88-.79,4.18-4.31-.07-.36-.18-.65,0-1a2.41,2.41,0,0,0-.46-3.32,4.55,4.55,0,0,0-4.14-.35c-1.26.38-.4,2-.59,3A7.27,7.27,0,0,0,270.64,122.13Zm-19.91,3.62c-.6-2.29-1.24-4.57-1.79-6.87a1.39,1.39,0,0,0-1.55-1.27c-1,0-1.35.42-1.57,1.28-.53,2-1.12,4-1.6,6.1-.13.51-.55,1.27.17,1.65s1.17-.33,1.44-.77c1.25-2.07,2.19-2,3,.31.23.66.81.48,1.3.47S250.76,126.23,250.73,125.75Zm32.53-4.34h0a10.54,10.54,0,0,0,0-1.59c-.12-.83.55-2.18-1.05-2.14s-.77,1.29-.84,2c-.11,1.22,0,2.47,0,3.71,0,.7.1,1.6-.82,1.66s-1.1-.89-1.11-1.7c0-1.51,0-3,0-4.52,0-.68-.09-1.24-.94-1.19-.59,0-1.22-.08-1.2.88a51.6,51.6,0,0,0,.1,6.1c.24,1.77,1.78,2.14,3.27,2a2.44,2.44,0,0,0,2.61-2.34C283.33,123.37,283.26,122.39,283.26,121.41Zm4.32-.94c.69-.45,1.72.27,2-.83a1.31,1.31,0,0,0-.37-1.46,3.17,3.17,0,0,0-4,0c-1.28,1.06-1.1,2.56,0,3.74a21.57,21.57,0,0,0,2.27,1.69.79.79,0,0,1,.06,1.33c-.35.27-1,.3-1-.24-.14-1.09-.7-1.24-1.56-1.12-.58.07-.64.44-.61.92.07,1,.42,1.78,1.38,2,1.33.33,2.73.55,3.7-.84a2.41,2.41,0,0,0-.51-3.51A14.66,14.66,0,0,1,287.58,120.47Zm-24.08,2.34c0-3.32,0-3.32,2-2.22a1.48,1.48,0,0,0,1.2,0c.44-.21.39-.75.26-1.17-.32-1-.75-1.77-1.93-1.75s-2.63-.22-3.14,1.48a11.54,11.54,0,0,0-.11,5.75,2.28,2.28,0,0,0,2.24,1.79c.93.1,1.92.18,2.51-.8.43-.73,1-1.68.14-2.32-.57-.39-1.35-.25-1.65.9s-1,.59-1.3-.13A5.12,5.12,0,0,1,263.5,122.81Zm-5.06-.76v3.46c0,.69.11,1.23.95,1.18.6,0,1-.28,1-.93q0-3.6,0-7.19c0-.67-.39-.9-1-.91s-.93.28-.93.93C258.44,119.74,258.45,120.89,258.44,122.05Zm11-23.62c2.45.13,3.22-1.65,2.23-4.93C270.5,95,271.32,97.36,269.43,98.43Z" transform="translate(-34.81 -1.41)"/><path class="cls-5" d="M229.26,179.37c1.42,2.43,2.93,4.78,4.47,7.12-1.64-2.79-3.29-5.59-5.13-8.25Z" transform="translate(-34.81 -1.41)"/><path class="cls-5" d="M236.51,142.81l50.43,0c-.91.68-2,.44-3,.44q-14.61.08-29.22.12H240.07c-1.15-.36-2.46.32-3.54-.55Z" transform="translate(-34.81 -1.41)"/><path class="cls-6" d="M240,196c-.25-.42-.5-.84-.76-1.24a26.41,26.41,0,0,0-2.07-3.09C238.13,193.11,239.08,194.55,240,196Z" transform="translate(-34.81 -1.41)"/><path class="cls-7" d="M252.42,216a19.57,19.57,0,0,0,1.33,2.28l.08-.06a4.7,4.7,0,0,0-1.94-3.05A3.81,3.81,0,0,1,252.42,216Z" transform="translate(-34.81 -1.41)"/><path class="cls-5" d="M221.75,63.39c-.35,1.44-.47,3-1.67,4C220.48,66,220.54,64.43,221.75,63.39Z" transform="translate(-34.81 -1.41)"/><path class="cls-5" d="M219.88,127.73c-.1-1.22-.19-2.44-.28-3.65l.58.16c0,1.2,0,2.4,0,3.6A.62.62,0,0,0,219.88,127.73Z" transform="translate(-34.81 -1.41)"/><path class="cls-5" d="M220.21,127.81c.8.56.4,1.43.5,2.16h0l-.46-.24Z" transform="translate(-34.81 -1.41)"/><path class="cls-5" d="M220.71,130c.74.33.54,1,.52,1.6h0a.63.63,0,0,0-.33-.09c-.09-.34-.19-.68-.29-1a4.05,4.05,0,0,0,.12-.5Z" transform="translate(-34.81 -1.41)"/><path class="cls-5" d="M221.84,62.15c.63.48.38.89-.11,1.27Z" transform="translate(-34.81 -1.41)"/><path class="cls-4" d="M220.73,130a4.05,4.05,0,0,1-.12.5c-.11-.25-.22-.49-.34-.74Z" transform="translate(-34.81 -1.41)"/><path class="cls-8" d="M304.28,128.26l0-58.72c.69.75.38,1.69.39,2.54q0,26.81,0,53.61C304.66,126.56,304.89,127.48,304.28,128.26Z" transform="translate(-34.81 -1.41)"/><path class="cls-5" d="M286.93,142.79c1.19-.87,2.54-.41,3.82-.54C289.55,143,288.21,142.63,286.93,142.79Z" transform="translate(-34.81 -1.41)"/><path class="cls-8" d="M304.27,69.58a4.28,4.28,0,0,1-.55-2.33C304.46,67.88,304,68.82,304.27,69.58Z" transform="translate(-34.81 -1.41)"/><path class="cls-5" d="M290.76,142.25c.38-.66,1-.49,1.52-.44C291.88,142.35,291.3,142.22,290.76,142.25Z" transform="translate(-34.81 -1.41)"/><path class="cls-8" d="M303.75,67.17a2.51,2.51,0,0,1-.53-1.63C303.4,66.08,303.58,66.62,303.75,67.17Z" transform="translate(-34.81 -1.41)"/><path class="cls-8" d="M303.25,65.57c-.18-.46-.36-.92-.53-1.38C303.25,64.5,303.15,65.08,303.25,65.57Z" transform="translate(-34.81 -1.41)"/><path class="cls-8" d="M302.74,64.23l-.54-1.1C302.75,63.3,302.66,63.81,302.74,64.23Z" transform="translate(-34.81 -1.41)"/><path class="cls-8" d="M302.23,63.17l-.51-1C302.24,62.28,302.16,62.77,302.23,63.17Z" transform="translate(-34.81 -1.41)"/><path class="cls-1" d="M272.87,100.09c.93-3.28.31-6.57.37-10.41-2.37,2.23-3.57,4.67-5.14,6.79s-3.07,4.23-4.48,6.43c-1.13,1.77-1.92,1.76-2.65-.24a12.72,12.72,0,0,0-5.15-7.42l0,0c0-.52-.18-.88-.74-.9h0l-.39-.64.09-.09-.1.08a2.16,2.16,0,0,0-1.89-2.79h0c0-1-.1-1.94-1.23-1.92-1,0-1.08,1.08-1.17,1.81a30.46,30.46,0,0,0,.06,8c.14,1,.53,2.14,1.71,1.93,2.75-.49,2.66,1.33,2.63,3.22a40.54,40.54,0,0,0,0,4.27c.21,2.41-.84,3.12-3,3-3.06-.13-6.12,0-9.17,0-8.43-.17-7,1.53-7.18-7.95,0-1.51.28-2.54,2-2.72a2.29,2.29,0,0,0,2.29-2.63c-.45-4.36-.07-8.72-.22-13.08,0-.84.33-1.82-.64-2.4l-.44-.4c-.58-1.33-2.61-.26-3-2.3-1.32-6.81-.1-8.58,6.34-8.58,1.11,0,2.21,0,3.31,0,2.8-.11,5.58-.2,7.81,2l0,0a1,1,0,0,0,.84,1.26v0a.9.9,0,0,0,.67.95l0,0a1.3,1.3,0,0,0,1.09,1.59l0,0,.45.64v0a3,3,0,0,0,2.13,3.18l0,0,.47.65,0,0c-.06.86.05,1.57,1.09,1.57h0c-.08.89.22,1.47,1.15,1.52l0,0c.15.23.29.46.44.68l0,0c0,1.06.56,1.49,1.45,1.32a1.51,1.51,0,0,0,1.41-1.84v0a1,1,0,0,0,.63-1h0c1.49-.29,1.89-1.41,1.91-2.81l0,0a.89.89,0,0,0,.66-1h0a1,1,0,0,0,.89-1.21l0,.06c1.1-1.12,2.53-2,2.63-3.87a.33.33,0,0,1,.2-.34c.9-.19,1.17-.91,1.32-1.73l-.06.05c1.15-.26,1.76-1.58,3.14-1.55,4.05.09,8.12.05,12.18,0,1.7,0,2.26.88,1.89,2.57a5.05,5.05,0,0,0-.22,1.83c.49,3,.49,5.71-3.09,6.6a.19.19,0,0,1-.17.24,2.93,2.93,0,0,0-.37,1c0,5.14,0,10.28,0,15.42,0,.87.22,1.59,1.19,1.74,2.14-.22,3.16.69,2.95,3.06a23.31,23.31,0,0,0,0,4.26c.24,2.51-.64,3.53-3.13,3.43-3.8-.17-7.62,0-11.43,0-6.25-.06-5.23.78-5.37-5.68C269.51,102.9,269.18,100.18,272.87,100.09Z" transform="translate(-34.81 -1.41)"/><path class="cls-9" d="M239,82.43c1,.58.61,1.56.64,2.4.15,4.36-.23,8.72.22,13.08a2.29,2.29,0,0,1-2.29,2.63c-1.74.18-2.05,1.21-2,2.72.16,9.48-1.25,7.78,7.18,7.95,3,.06,6.11-.09,9.17,0,2.15.09,3.2-.62,3-3a40.54,40.54,0,0,1,0-4.27c0-1.89.12-3.71-2.63-3.22-1.18.21-1.57-1-1.71-1.93a30.46,30.46,0,0,1-.06-8c.09-.73.19-1.8,1.17-1.81,1.13,0,1.27.95,1.23,1.92-1-.61-1.6-.38-1.61.92,0,1.51.06,3-.05,4.54-.17,2.36.15,4.1,3.05,3.57,1-.17,1.32.43,1.31,1.43,0,3,0,6,0,9.07,0,1-.36,1.44-1.34,1.43-6,0-12,0-18,0-1.32,0-1.55-.72-1.54-1.85,0-2.67.07-5.34,0-8-.06-1.61.48-2.33,2-2.12,1.89.25,2.27-.85,2.25-2.57C238.87,92.39,238.93,87.41,239,82.43Z" transform="translate(-34.81 -1.41)"/><path class="cls-10" d="M241.2,122.56c-.82.42-.74,1-.87,1.52-.72,2.46-.7,2.46-2.9,1.24-.46-.27-.86-.17-.89.41-.06.86-.5,1.09-1.18.91s-.62-1-.63-1.54c0-2,0-3.91,0-5.86,0-.8-.09-1.61,1.11-1.62,1,0,1.83.07,2.09,1.32.15.72-.06,1.93.94,1.81.68-.08.89-1.2.86-2-.06-1.8,1.24-.91,2-1s1.49,0,1.45,1.17c-.06,2.22,0,4.44,0,6.66,0,.69-.14,1.2-1,1.19s-1-.51-1-1.21C241.21,124.55,241.2,123.63,241.2,122.56Z" transform="translate(-34.81 -1.41)"/><path class="cls-3" d="M220.18,124.24l-.58-.16a3.72,3.72,0,0,1-.41-2.32q0-24.12,0-48.26a1.56,1.56,0,0,1,1-1.8Z" transform="translate(-34.81 -1.41)"/><path class="cls-10" d="M270.64,122.13a7.27,7.27,0,0,1,0-1.32c.19-1-.67-2.65.59-3a4.55,4.55,0,0,1,4.14.35,2.41,2.41,0,0,1,.46,3.32c-.18.32-.07.61,0,1,.7,3.52-.69,4.89-4.18,4.31-1-.16-1-.66-1-1.42C270.65,124.25,270.64,123.19,270.64,122.13Z" transform="translate(-34.81 -1.41)"/><path class="cls-10" d="M250.73,125.75c0,.48,0,.89-.61.9s-1.07.19-1.3-.47c-.8-2.26-1.74-2.38-3-.31-.27.44-.77,1.12-1.44.77s-.3-1.14-.17-1.65c.48-2,1.07-4.06,1.6-6.1.22-.86.6-1.31,1.57-1.28a1.39,1.39,0,0,1,1.55,1.27C249.49,121.18,250.13,123.46,250.73,125.75Z" transform="translate(-34.81 -1.41)"/><path class="cls-10" d="M283.26,121.41c0,1,.07,2,0,2.92a2.44,2.44,0,0,1-2.61,2.34c-1.49.1-3-.27-3.27-2a51.6,51.6,0,0,1-.1-6.1c0-1,.61-.85,1.2-.88.85-.05.94.51.94,1.19,0,1.51,0,3,0,4.52,0,.81.06,1.76,1.11,1.7s.81-1,.82-1.66c0-1.24-.08-2.49,0-3.71.07-.72-.63-2,.84-2s.93,1.31,1.05,2.14a10.54,10.54,0,0,1,0,1.59Z" transform="translate(-34.81 -1.41)"/><path class="cls-10" d="M287.58,120.47a14.66,14.66,0,0,0,1.35,1.69,2.41,2.41,0,0,1,.51,3.51c-1,1.39-2.37,1.17-3.7.84-1-.23-1.31-1-1.38-2,0-.48,0-.85.61-.92.86-.12,1.42,0,1.56,1.12.07.54.68.51,1,.24a.79.79,0,0,0-.06-1.33,21.57,21.57,0,0,1-2.27-1.69c-1.08-1.18-1.26-2.68,0-3.74a3.17,3.17,0,0,1,4,0,1.31,1.31,0,0,1,.37,1.46C289.3,120.74,288.27,120,287.58,120.47Z" transform="translate(-34.81 -1.41)"/><path class="cls-10" d="M254.29,122.06c1.06-.08,2.59-1,2.84.81.16,1.17,1,3.16-.87,3.67-1.54.41-3.57.77-4.45-1.35a8.57,8.57,0,0,1-.08-6,2.2,2.2,0,0,1,2.39-1.56c1,0,2.07,0,2.65,1.1.23.44.64,1,.23,1.44a1.17,1.17,0,0,1-1.42.14c-2.18-1.06-2.18-1.07-2.12,1.71a2.13,2.13,0,0,0-.11.5c0,.91-.32,2,.71,2.55a.85.85,0,0,0,1.14-.15c.75-1.15-.67-1.51-.85-2.33C254.32,122.41,254.31,122.24,254.29,122.06Z" transform="translate(-34.81 -1.41)"/><path class="cls-9" d="M253,73.2c-2.23-2.25-5-2.16-7.81-2-1.1,0-2.2,0-3.31,0-6.44,0-7.66,1.77-6.34,8.58.39,2,2.42,1,3,2.3-3.85.34-3.94.34-3.84-3.51.06-2.63-1.14-6,.56-7.68s4.7-.35,7.14-.45c2.12-.08,4.25.08,6.36-.07A3.68,3.68,0,0,1,253,73.2Z" transform="translate(-34.81 -1.41)"/><path class="cls-10" d="M263.5,122.81a5.12,5.12,0,0,0,.23,1.5c.27.72,1,1.36,1.3.13s1.08-1.29,1.65-.9c.91.64.29,1.59-.14,2.32-.59,1-1.58.9-2.51.8a2.28,2.28,0,0,1-2.24-1.79,11.54,11.54,0,0,1,.11-5.75c.51-1.7,1.88-1.46,3.14-1.48s1.61.79,1.93,1.75c.13.42.18,1-.26,1.17a1.48,1.48,0,0,1-1.2,0C263.52,119.49,263.49,119.49,263.5,122.81Z" transform="translate(-34.81 -1.41)"/><path class="cls-9" d="M285.93,82.17c3.58-.89,3.58-3.59,3.09-6.6a5.05,5.05,0,0,1,.22-1.83c.37-1.69-.19-2.57-1.89-2.57-4.06,0-8.13,0-12.18,0-1.38,0-2,1.29-3.14,1.55.44-1.5,1.23-2.37,2.9-2.34,4.4.09,8.8.09,13.2,0,1.43,0,2,.46,1.9,2-.1,1.86,0,3.73,0,5.59C289.93,82.67,290.71,82.12,285.93,82.17Z" transform="translate(-34.81 -1.41)"/><path class="cls-11" d="M272.87,100.09c-3.69.09-3.36,2.81-3.31,5.46.14,6.46-.88,5.62,5.37,5.68,3.81,0,7.63-.12,11.43,0,2.49.1,3.37-.92,3.13-3.43a23.31,23.31,0,0,1,0-4.26c.21-2.37-.81-3.28-3-3.06.72-.59,1.58-.27,2.37-.43a.89.89,0,0,1,1.13.47q0,5.36,0,10.73c-.48.71-1.21.52-1.85.52-5.76,0-11.51,0-17.26.05-1.64,0-2-.66-1.95-2.19.09-2,0-3.9,0-5.85C269,99.88,269,99.88,272.87,100.09Z" transform="translate(-34.81 -1.41)"/><path class="cls-10" d="M258.44,122.05c0-1.16,0-2.31,0-3.46,0-.65.3-1,.93-.93s1,.24,1,.91q0,3.59,0,7.19c0,.65-.38.89-1,.93-.84,0-1-.49-.95-1.18Z" transform="translate(-34.81 -1.41)"/><path class="cls-9" d="M288.9,100.1c-.79.16-1.65-.16-2.37.43-1-.15-1.18-.87-1.18-1.74,0-5.14,0-10.28,0-15.42a2.93,2.93,0,0,1,.37-1c0,4.7.22,9.41,0,14.1C285.66,99.13,286.4,100.29,288.9,100.1Z" transform="translate(-34.81 -1.41)"/><path class="cls-9" d="M255.82,95.24a12.72,12.72,0,0,1,5.15,7.42A38.69,38.69,0,0,1,255.82,95.24Z" transform="translate(-34.81 -1.41)"/><path class="cls-2" d="M269.43,98.43c1.89-1.07,1.07-3.43,2.23-4.93C272.65,96.78,271.88,98.56,269.43,98.43Z" transform="translate(-34.81 -1.41)"/><path class="cls-7" d="M290,111.3q0-5.37,0-10.73A22.89,22.89,0,0,1,290,111.3Z" transform="translate(-34.81 -1.41)"/><path class="cls-6" d="M254.29,122.06c0,.18,0,.35.06.52.18.82,1.6,1.18.85,2.33a.85.85,0,0,1-1.14.15c-1-.58-.68-1.64-.71-2.55a2.13,2.13,0,0,1,.11-.5Z" transform="translate(-34.81 -1.41)"/><path class="cls-9" d="M263.91,84.43a1.51,1.51,0,0,1-1.41,1.84c-.89.17-1.47-.26-1.45-1.32C262.3,86.57,263,85.11,263.91,84.43Z" transform="translate(-34.81 -1.41)"/><path class="cls-9" d="M258.05,80.69a3,3,0,0,1-2.13-3.18A6.78,6.78,0,0,1,258.05,80.69Z" transform="translate(-34.81 -1.41)"/><path class="cls-9" d="M270.57,74.7c-.1,1.88-1.53,2.75-2.63,3.87A10.21,10.21,0,0,1,270.57,74.7Z" transform="translate(-34.81 -1.41)"/><path class="cls-9" d="M252.83,90.93a2.16,2.16,0,0,1,1.89,2.79A5.81,5.81,0,0,1,252.83,90.93Z" transform="translate(-34.81 -1.41)"/><path class="cls-9" d="M266.45,80.66c0,1.4-.42,2.52-1.91,2.81A6.84,6.84,0,0,1,266.45,80.66Z" transform="translate(-34.81 -1.41)"/><path class="cls-5" d="M236.53,142.78H234a1.83,1.83,0,0,1,2.48,0Z" transform="translate(-34.81 -1.41)"/><path class="cls-9" d="M272.09,72.63c-.15.82-.42,1.54-1.32,1.73A2.3,2.3,0,0,1,272.09,72.63Z" transform="translate(-34.81 -1.41)"/><path class="cls-9" d="M259.55,82.82c-1,0-1.15-.71-1.09-1.57A2,2,0,0,1,259.55,82.82Z" transform="translate(-34.81 -1.41)"/><path class="cls-9" d="M260.68,84.33c-.93,0-1.23-.63-1.15-1.52A2.26,2.26,0,0,1,260.68,84.33Z" transform="translate(-34.81 -1.41)"/><path class="cls-9" d="M255.51,76.92a1.3,1.3,0,0,1-1.09-1.59A2.45,2.45,0,0,1,255.51,76.92Z" transform="translate(-34.81 -1.41)"/><path class="cls-9" d="M268,78.51a1,1,0,0,1-.89,1.21A1.49,1.49,0,0,1,268,78.51Z" transform="translate(-34.81 -1.41)"/><path class="cls-9" d="M253.78,74.41a1,1,0,0,1-.84-1.26A1.78,1.78,0,0,1,253.78,74.41Z" transform="translate(-34.81 -1.41)"/><path class="cls-5" d="M231.42,141.73l1.1.21c-.05.07-.08.18-.14.19-.4.09-.77.08-1-.38Z" transform="translate(-34.81 -1.41)"/><path class="cls-5" d="M230,141.12c.54,0,1.11,0,1.47.61l0,0c-.57,0-1.17.11-1.54-.53Z" transform="translate(-34.81 -1.41)"/><path class="cls-9" d="M264.54,83.46a1,1,0,0,1-.63,1A1,1,0,0,1,264.54,83.46Z" transform="translate(-34.81 -1.41)"/><path class="cls-5" d="M221.23,131.57c.33,0,.42.24.4.53,0,.07-.11.13-.17.19l-.23-.72Z" transform="translate(-34.81 -1.41)"/><path class="cls-9" d="M267.09,79.73a.89.89,0,0,1-.66,1A1,1,0,0,1,267.09,79.73Z" transform="translate(-34.81 -1.41)"/><path class="cls-5" d="M229.86,141.22l-.62-.21a2,2,0,0,1,.2-.25,5.88,5.88,0,0,1,.51.36Z" transform="translate(-34.81 -1.41)"/><path class="cls-9" d="M254.46,75.38a.9.9,0,0,1-.67-.95A1,1,0,0,1,254.46,75.38Z" transform="translate(-34.81 -1.41)"/><path class="cls-9" d="M255.1,94.37c.56,0,.74.38.74.9A1.16,1.16,0,0,1,255.1,94.37Z" transform="translate(-34.81 -1.41)"/><path class="cls-9" d="M254.73,93.73l.39.64Z" transform="translate(-34.81 -1.41)"/><path class="cls-9" d="M261.08,85c-.15-.22-.29-.45-.44-.68C260.79,84.54,260.93,84.77,261.08,85Z" transform="translate(-34.81 -1.41)"/><path class="cls-9" d="M258.48,81.29l-.47-.65C258.17,80.86,258.33,81.07,258.48,81.29Z" transform="translate(-34.81 -1.41)"/><path class="cls-9" d="M255.93,77.54l-.45-.64Z" transform="translate(-34.81 -1.41)"/><path class="cls-12" d="M262,24c-35.45.87-66,30.44-70,66a80,80,0,0,0,19.32,61h0l4.58,6.87a9.48,9.48,0,0,1,1.1,1.65l48.44,72.66c2.68-4.5,5.51-8.91,8.17-13.27a4.14,4.14,0,0,1,.61-.78c2.67-4.76,5.43-9.43,8.22-14a4.23,4.23,0,0,1,1-1.13l1.79-3.09a12.55,12.55,0,0,0,.84-2.51,3.56,3.56,0,0,1,1.22-2.13c3.63-8,8.8-15.25,13.73-22.6l2.52-4.34c.95-3.12,2.82-5.58,4.42-8.63a91.6,91.6,0,0,1,6.95-11.73c.7-1,1.4-1.91,2.09-2.87l0-.05-1.09.06a77.8,77.8,0,0,0,10.24-16.57c.1-.21.19-.42.28-.62A74.17,74.17,0,0,0,332,109C338.8,64.85,304.73,23,262,24Z" transform="translate(-34.81 -1.41)"/></svg>