<svg id="Layer_1" data-name="Layer 1" xmlns="http://www.w3.org/2000/svg" viewBox="0 0 1001.7 834.61"><defs><style>.cls-1{fill:#eae6d8;}.cls-1,.cls-3,.cls-4{stroke:#c0dc8a;stroke-miterlimit:10;}.cls-2,.cls-4{fill:#afd375;}.cls-3{fill:none;}</style></defs><rect class="cls-1" x="0.5" y="0.5" width="999" height="832.66"/><path class="cls-2" d="M1,20.14a2,2,0,0,1,2-2H156.64a2,2,0,0,1,2,2V31.57a2,2,0,0,1-2,2h-7.57a2,2,0,0,0-2,2l-.62,116.86a2,2,0,0,0,2,2h1.78a1.89,1.89,0,0,1,1.9,2l-.43,8.22a1.88,1.88,0,0,0,1.89,2h3.07a2,2,0,0,1,2,2v8.22a2,2,0,0,0,2,2h108.5a2,2,0,0,0,2-2v-7.57a2.16,2.16,0,0,1,2-2.12l7.58-.42a2.14,2.14,0,0,0,2-2.11V112.71a2,2,0,0,1,2-2h24.93a2,2,0,0,1,2,2v51.93a1.2,1.2,0,0,0,1.82,1.18L324,161a1.2,1.2,0,0,1,1.83,1.17V300.93a2,2,0,0,0,2,2H363a2,2,0,0,1,2,2v14.64a2,2,0,0,1-2,2H294.36a16.3,16.3,0,0,1-3.92-.58L233.2,303.51a28.78,28.78,0,0,0-3.9-.83L3,274.25A2.33,2.33,0,0,1,1,272Z" transform="translate(0.5 0.5)"/><path class="cls-3" d="M1,20.14a2,2,0,0,1,2-2H156.64a2,2,0,0,1,2,2V31.57a2,2,0,0,1-2,2h-7.57a2,2,0,0,0-2,2l-.62,116.86a2,2,0,0,0,2,2h1.78a1.89,1.89,0,0,1,1.9,2l-.43,8.22a1.88,1.88,0,0,0,1.89,2h3.07a2,2,0,0,1,2,2v8.22a2,2,0,0,0,2,2h108.5a2,2,0,0,0,2-2v-7.57a2.16,2.16,0,0,1,2-2.12l7.58-.42a2.14,2.14,0,0,0,2-2.11V112.71a2,2,0,0,1,2-2h24.93a2,2,0,0,1,2,2v51.93a1.2,1.2,0,0,0,1.82,1.18L324,161a1.2,1.2,0,0,1,1.83,1.17V300.93a2,2,0,0,0,2,2H363a2,2,0,0,1,2,2v14.64a2,2,0,0,1-2,2H294.36a16.3,16.3,0,0,1-3.92-.58L233.2,303.51a28.78,28.78,0,0,0-3.9-.83L3,274.25A2.33,2.33,0,0,1,1,272Z" transform="translate(0.5 0.5)"/><path class="cls-2" d="M177.64,13a2,2,0,0,0-2,2V30.93a2,2,0,0,0,2,2H180a2,2,0,0,0,2-2V25a2,2,0,0,1,2-2h86.71a2,2,0,0,1,2,2v6a2,2,0,0,0,2,2h6.93a2,2,0,0,1,2,2V99.71a2,2,0,0,0,2,2h23.65a2,2,0,0,0,2-2V36.21a2,2,0,0,1,2-2h65.42a2,2,0,0,0,2-2V15a2,2,0,0,0-2-2Z" transform="translate(0.5 0.5)"/><path class="cls-3" d="M177.64,13a2,2,0,0,0-2,2V30.93a2,2,0,0,0,2,2H180a2,2,0,0,0,2-2V25a2,2,0,0,1,2-2h86.71a2,2,0,0,1,2,2v6a2,2,0,0,0,2,2h6.93a2,2,0,0,1,2,2V99.71a2,2,0,0,0,2,2h23.65a2,2,0,0,0,2-2V36.21a2,2,0,0,1,2-2h65.42a2,2,0,0,0,2-2V15a2,2,0,0,0-2-2Z" transform="translate(0.5 0.5)"/><path class="cls-2" d="M388.43,15a2,2,0,0,1,2-2h26.43a2,2,0,0,1,2,2V67.57a4.44,4.44,0,0,1-1.62,3.18l-12,8.78c-.89.65-1.62.28-1.62-.82V68.57a2,2,0,0,0-2-2H390.43a2,2,0,0,1-2-2Z" transform="translate(0.5 0.5)"/><path class="cls-3" d="M388.43,15a2,2,0,0,1,2-2h26.43a2,2,0,0,1,2,2V67.57a4.44,4.44,0,0,1-1.62,3.18l-12,8.78c-.89.65-1.62.28-1.62-.82V68.57a2,2,0,0,0-2-2H390.43a2,2,0,0,1-2-2Z" transform="translate(0.5 0.5)"/><path class="cls-2" d="M436.63,55.05a8.09,8.09,0,0,1-1-3.69L436,15a2,2,0,0,1,2-2H564.71a2,2,0,0,1,2,2V55.36a37.81,37.81,0,0,1-.26,4l-.83,6.14c-10.81,14.36-11.75,18.81-29.72,18.81l-60.5.25c-14.86-.8-20.9-7.1-31.38-17.66Z" transform="translate(0.5 0.5)"/><path class="cls-3" d="M436.63,55.05a8.09,8.09,0,0,1-1-3.69L436,15a2,2,0,0,1,2-2H564.71a2,2,0,0,1,2,2V55.36a37.81,37.81,0,0,1-.26,4l-.83,6.14c-10.81,14.36-11.75,18.81-29.72,18.81l-60.5.25c-14.86-.8-20.9-7.1-31.38-17.66Z" transform="translate(0.5 0.5)"/><path class="cls-2" d="M343.86,111.43a2,2,0,0,1,2-2h32.85a2,2,0,0,1,2,2V164a2,2,0,0,1-2,2H360a2.09,2.09,0,0,1-2.07-2l-.72-20.43a2.17,2.17,0,0,0-2.07-2.06l-9.28-.3a2.09,2.09,0,0,1-2-2.07Z" transform="translate(0.5 0.5)"/><path class="cls-3" d="M343.86,111.43a2,2,0,0,1,2-2h32.85a2,2,0,0,1,2,2V164a2,2,0,0,1-2,2H360a2.09,2.09,0,0,1-2.07-2l-.72-20.43a2.17,2.17,0,0,0-2.07-2.06l-9.28-.3a2.09,2.09,0,0,1-2-2.07Z" transform="translate(0.5 0.5)"/><path class="cls-2" d="M388.43,111.43a2,2,0,0,1,2-2H425a2,2,0,0,1,2,2v11.86a2,2,0,0,0,2,2h11.43a2,2,0,0,1,2,2V206a2,2,0,0,1-2,2h-11a2.15,2.15,0,0,1-2.12-2l-.62-10.15a2.15,2.15,0,0,0-2.12-2h-3.71a2,2,0,0,1-2-2v-41a2,2,0,0,0-2-2H405.64a2,2,0,0,1-2-2v-7.15a2,2,0,0,0-2-2H390.43a2,2,0,0,1-2-2Z" transform="translate(0.5 0.5)"/><path class="cls-3" d="M388.43,111.43a2,2,0,0,1,2-2H425a2,2,0,0,1,2,2v11.86a2,2,0,0,0,2,2h11.43a2,2,0,0,1,2,2V206a2,2,0,0,1-2,2h-11a2.15,2.15,0,0,1-2.12-2l-.62-10.15a2.15,2.15,0,0,0-2.12-2h-3.71a2,2,0,0,1-2-2v-41a2,2,0,0,0-2-2H405.64a2,2,0,0,1-2-2v-7.15a2,2,0,0,0-2-2H390.43a2,2,0,0,1-2-2Z" transform="translate(0.5 0.5)"/><path class="cls-2" d="M465.57,109.82a2,2,0,0,1,2-2h17.54c1.1,0,1.34.62.54,1.37L467,126.7c-.8.75-1.46.47-1.46-.63Z" transform="translate(0.5 0.5)"/><path class="cls-3" d="M465.57,109.82a2,2,0,0,1,2-2h17.54c1.1,0,1.34.62.54,1.37L467,126.7c-.8.75-1.46.47-1.46-.63Z" transform="translate(0.5 0.5)"/><path class="cls-2" d="M580.25,107.82a2,2,0,0,1,2,2v25.89a2,2,0,0,1-2,2H513.54a4.14,4.14,0,0,1-3.1-1.67l-13.23-20.12a2.35,2.35,0,0,1,.41-3l4.37-3.81a6.23,6.23,0,0,1,3.51-1.31Z" transform="translate(0.5 0.5)"/><path class="cls-3" d="M580.25,107.82a2,2,0,0,1,2,2v25.89a2,2,0,0,1-2,2H513.54a4.14,4.14,0,0,1-3.1-1.67l-13.23-20.12a2.35,2.35,0,0,1,.41-3l4.37-3.81a6.23,6.23,0,0,1,3.51-1.31Z" transform="translate(0.5 0.5)"/><path class="cls-2" d="M590.61,15a2,2,0,0,1,2-2h42.28a2,2,0,0,1,2,2V41.86a2,2,0,0,1-2,2H621.54a8.47,8.47,0,0,0-3.71,1L607.1,51.49a8.48,8.48,0,0,1-3.71,1H592.61a2,2,0,0,1-2-2Z" transform="translate(0.5 0.5)"/><path class="cls-3" d="M590.61,15a2,2,0,0,1,2-2h42.28a2,2,0,0,1,2,2V41.86a2,2,0,0,1-2,2H621.54a8.47,8.47,0,0,0-3.71,1L607.1,51.49a8.48,8.48,0,0,1-3.71,1H592.61a2,2,0,0,1-2-2Z" transform="translate(0.5 0.5)"/><path class="cls-2" d="M590.61,63.14a2.39,2.39,0,0,1,2-2.29l12.75-1.91a12.65,12.65,0,0,0,3.72-1.29l10.74-6.12a8.86,8.86,0,0,1,3.74-1h11.35a2,2,0,0,1,2,2v89.28a2,2,0,0,1-2,2H592.61a2,2,0,0,1-2-2Z" transform="translate(0.5 0.5)"/><path class="cls-3" d="M590.61,63.14a2.39,2.39,0,0,1,2-2.29l12.75-1.91a12.65,12.65,0,0,0,3.72-1.29l10.74-6.12a8.86,8.86,0,0,1,3.74-1h11.35a2,2,0,0,1,2,2v89.28a2,2,0,0,1-2,2H592.61a2,2,0,0,1-2-2Z" transform="translate(0.5 0.5)"/><rect class="cls-2" x="643.5" y="13.5" width="10.93" height="37.54" rx="2"/><rect class="cls-3" x="643.5" y="13.5" width="10.93" height="37.54" rx="2"/><path class="cls-2" d="M643,60.32a2,2,0,0,1,2-2H781.14a2,2,0,0,1,2,2v74.11a2,2,0,0,1-2,2h-23a1.68,1.68,0,0,1-1.71-2l7.79-54.68a1.65,1.65,0,0,0-1.72-1.94L645,80.14a2,2,0,0,1-2-2Z" transform="translate(0.5 0.5)"/><path class="cls-3" d="M643,60.32a2,2,0,0,1,2-2H781.14a2,2,0,0,1,2,2v74.11a2,2,0,0,1-2,2h-23a1.68,1.68,0,0,1-1.71-2l7.79-54.68a1.65,1.65,0,0,0-1.72-1.94L645,80.14a2,2,0,0,1-2-2Z" transform="translate(0.5 0.5)"/><rect class="cls-2" x="867.86" y="16.71" width="21.54" height="47.57" rx="2"/><rect class="cls-3" x="867.86" y="16.71" width="21.54" height="47.57" rx="2"/><path class="cls-2" d="M897.18,122.61a2,2,0,0,0,2-2V96.32a2,2,0,0,0-2-2h-6.29a2.55,2.55,0,0,1-2.39-2l-3.71-18.57c-2.59-5.31-12.06-5.53-15-.39l-6.64,19a14.27,14.27,0,0,0-.65,3.89v24.29a2,2,0,0,0,2,2Z" transform="translate(0.5 0.5)"/><path class="cls-3" d="M897.18,122.61a2,2,0,0,0,2-2V96.32a2,2,0,0,0-2-2h-6.29a2.55,2.55,0,0,1-2.39-2l-3.71-18.57c-2.59-5.31-12.06-5.53-15-.39l-6.64,19a14.27,14.27,0,0,0-.65,3.89v24.29a2,2,0,0,0,2,2Z" transform="translate(0.5 0.5)"/><path class="cls-2" d="M941.32,8.82a5.35,5.35,0,0,0-3.38,1.45l-9.46,10a5.84,5.84,0,0,0-1.37,3.45V41.54a2,2,0,0,0,2,2H959.5a2,2,0,0,1,2,2l-.94,143.85a2,2,0,0,0,2,2H997a2,2,0,0,0,2-2l.73-178.57a2,2,0,0,0-2-2Z" transform="translate(0.5 0.5)"/><path class="cls-3" d="M941.32,8.82a5.35,5.35,0,0,0-3.38,1.45l-9.46,10a5.84,5.84,0,0,0-1.37,3.45V41.54a2,2,0,0,0,2,2H959.5a2,2,0,0,1,2,2l-.94,143.85a2,2,0,0,0,2,2H997a2,2,0,0,0,2-2l.73-178.57a2,2,0,0,0-2-2Z" transform="translate(0.5 0.5)"/><path class="cls-2" d="M971.18,223.68a4,4,0,0,1,4-4h9.68a3.62,3.62,0,0,1,3.66,4l-2.21,25.78a5,5,0,0,1-4.33,4.34l-6.82.59a3.61,3.61,0,0,1-4-3.66Z" transform="translate(0.5 0.5)"/><path class="cls-3" d="M971.18,223.68a4,4,0,0,1,4-4h9.68a3.62,3.62,0,0,1,3.66,4l-2.21,25.78a5,5,0,0,1-4.33,4.34l-6.82.59a3.61,3.61,0,0,1-4-3.66Z" transform="translate(0.5 0.5)"/><path class="cls-2" d="M974.06,278.13l-24.58,40.56c-3.76,7-2.34,18.25.39,25.7L969,406.79c1.13,3.78,5.64-5.75,6-9.68l7.2-119.62C982.45,275.11,975.3,276.09,974.06,278.13Z" transform="translate(0.5 0.5)"/><path class="cls-3" d="M974.06,278.13l-24.58,40.56c-3.76,7-2.34,18.25.39,25.7L969,406.79c1.13,3.78,5.64-5.75,6-9.68l7.2-119.62C982.45,275.11,975.3,276.09,974.06,278.13Z" transform="translate(0.5 0.5)"/><circle class="cls-4" cx="926.19" cy="585.51" r="26.51"/><path class="cls-2" d="M927.93,503.42a4.11,4.11,0,0,0-4,4.08v28a4,4,0,0,0,4,4H935a17.49,17.49,0,0,1,7.45,2l6.26,3.67a8.34,8.34,0,0,0,7,.26l40.62-19.94a7.13,7.13,0,0,0,3.63-5.76l.66-64.64a8.82,8.82,0,0,0-3.17-6.39L990,443.15c-11.15-6.2-24.85-6.57-35.39.64L943.3,453.91a10,10,0,0,0-2.92,6.66l.53,38.61a4,4,0,0,1-3.95,4.07Z" transform="translate(0.5 0.5)"/><path class="cls-3" d="M927.93,503.42a4.11,4.11,0,0,0-4,4.08v28a4,4,0,0,0,4,4H935a17.49,17.49,0,0,1,7.45,2l6.26,3.67a8.34,8.34,0,0,0,7,.26l40.62-19.94a7.13,7.13,0,0,0,3.63-5.76l.66-64.64a8.82,8.82,0,0,0-3.17-6.39L990,443.15c-11.15-6.2-24.85-6.57-35.39.64L943.3,453.91a10,10,0,0,0-2.92,6.66l.53,38.61a4,4,0,0,1-3.95,4.07Z" transform="translate(0.5 0.5)"/><path class="cls-2" d="M999,568.82c0-1.1-.67-1.4-1.49-.66l-7.73,7A10.83,10.83,0,0,0,987.33,588l10.78,21.73c.49,1,.89.89.89-.21Z" transform="translate(0.5 0.5)"/><path class="cls-3" d="M999,568.82c0-1.1-.67-1.4-1.49-.66l-7.73,7A10.83,10.83,0,0,0,987.33,588l10.78,21.73c.49,1,.89.89.89-.21Z" transform="translate(0.5 0.5)"/><path class="cls-2" d="M971.32,554.93a1.87,1.87,0,0,0-.68,2.66l3.33,5.29a2.27,2.27,0,0,0,2.86.81l21.37-10.45a3.52,3.52,0,0,0,1.8-2.88v-9.18c0-1.1-.79-1.57-1.75-1Z" transform="translate(0.5 0.5)"/><path class="cls-3" d="M971.32,554.93a1.87,1.87,0,0,0-.68,2.66l3.33,5.29a2.27,2.27,0,0,0,2.86.81l21.37-10.45a3.52,3.52,0,0,0,1.8-2.88v-9.18c0-1.1-.79-1.57-1.75-1Z" transform="translate(0.5 0.5)"/><path class="cls-2" d="M918.63,633.58a1.21,1.21,0,0,1,1.19-1.83h16.57a9.49,9.49,0,0,0,3.77-.94l16.4-8.73a6.48,6.48,0,0,0,2.53-2.78l2.48-5.93a3.25,3.25,0,0,1,2.77-1.85h11.59a3.92,3.92,0,0,1,3,1.72l4.81,8.11A1.86,1.86,0,0,1,983,624l-54.09,28a1.85,1.85,0,0,1-2.58-.91Z" transform="translate(0.5 0.5)"/><path class="cls-3" d="M918.63,633.58a1.21,1.21,0,0,1,1.19-1.83h16.57a9.49,9.49,0,0,0,3.77-.94l16.4-8.73a6.48,6.48,0,0,0,2.53-2.78l2.48-5.93a3.25,3.25,0,0,1,2.77-1.85h11.59a3.92,3.92,0,0,1,3,1.72l4.81,8.11A1.86,1.86,0,0,1,983,624l-54.09,28a1.85,1.85,0,0,1-2.58-.91Z" transform="translate(0.5 0.5)"/><path class="cls-2" d="M858.78,596.1a1.35,1.35,0,0,1,1.56-1.73l12.74,1.47a2.73,2.73,0,0,1,2.27,2.21l1.83,13.2a34.58,34.58,0,0,0,12.34,15.45l14.64,7.66a3.65,3.65,0,0,1,1.77,2.93V651c0,1.1-.75,1.5-1.66.88l-25-16.91a42.81,42.81,0,0,1-17.81-26.35Z" transform="translate(0.5 0.5)"/><path class="cls-3" d="M858.78,596.1a1.35,1.35,0,0,1,1.56-1.73l12.74,1.47a2.73,2.73,0,0,1,2.27,2.21l1.83,13.2a34.58,34.58,0,0,0,12.34,15.45l14.64,7.66a3.65,3.65,0,0,1,1.77,2.93V651c0,1.1-.75,1.5-1.66.88l-25-16.91a42.81,42.81,0,0,1-17.81-26.35Z" transform="translate(0.5 0.5)"/><rect class="cls-2" x="799.71" y="804.5" width="128.25" height="28.66" rx="2"/><rect class="cls-3" x="799.71" y="804.5" width="128.25" height="28.66" rx="2"/><rect class="cls-2" x="702.32" y="756.96" width="49.82" height="60.11" rx="2"/><rect class="cls-3" x="702.32" y="756.96" width="49.82" height="60.11" rx="2"/><path class="cls-2" d="M378.46,778.07a5.25,5.25,0,0,1,1.47-3.36L403.35,753a5.91,5.91,0,0,1,3.47-1.36h169a9,9,0,0,1,9,9v41.47A20.89,20.89,0,0,1,563.93,823H390.84a12.38,12.38,0,0,1-12.38-12.38Z" transform="translate(0.5 0.5)"/><path class="cls-3" d="M378.46,778.07a5.25,5.25,0,0,1,1.47-3.36L403.35,753a5.91,5.91,0,0,1,3.47-1.36h169a9,9,0,0,1,9,9v41.47A20.89,20.89,0,0,1,563.93,823H390.84a12.38,12.38,0,0,1-12.38-12.38Z" transform="translate(0.5 0.5)"/><path class="cls-2" d="M2,282.43a1.7,1.7,0,0,1,2-1.73l233.4,31.6a23.39,23.39,0,0,1,3.86.95l34.13,12.31c1.41.62,0,3.73-1.57,3.73H4a2,2,0,0,1-2-2Z" transform="translate(0.5 0.5)"/><path class="cls-3" d="M2,282.43a1.7,1.7,0,0,1,2-1.73l233.4,31.6a23.39,23.39,0,0,1,3.86.95l34.13,12.31c1.41.62,0,3.73-1.57,3.73H4a2,2,0,0,1-2-2Z" transform="translate(0.5 0.5)"/><path class="cls-2" d="M325.92,336.79a3.46,3.46,0,0,1,3.51-4h27.36a3.1,3.1,0,0,1,3.16,3.91l-7,32.68c-.47,2.15-2.18,2.7-3.8,1.22l-18.51-16.8a12.51,12.51,0,0,1-3.45-6.66Z" transform="translate(0.5 0.5)"/><path class="cls-3" d="M325.92,336.79a3.46,3.46,0,0,1,3.51-4h27.36a3.1,3.1,0,0,1,3.16,3.91l-7,32.68c-.47,2.15-2.18,2.7-3.8,1.22l-18.51-16.8a12.51,12.51,0,0,1-3.45-6.66Z" transform="translate(0.5 0.5)"/><path class="cls-2" d="M377.73,332.82h65.44c4.64,0,7.29,2.3,4.51,6l-22.27,28.68a5.63,5.63,0,0,0-.67,5.58l10.59,24.8a5.63,5.63,0,0,1-.76,5.7l-8.77,11.1a5.65,5.65,0,0,1-4.42,2.14H399.87a5.56,5.56,0,0,1-2.76-.73l-25.74-14.52a5.61,5.61,0,0,1-2.74-3.77L362.69,369a5.71,5.71,0,0,1,.16-2.87l9.53-29.41A5.63,5.63,0,0,1,377.73,332.82Z" transform="translate(0.5 0.5)"/><path class="cls-3" d="M377.73,332.82h65.44c4.64,0,7.29,2.3,4.51,6l-22.27,28.68a5.63,5.63,0,0,0-.67,5.58l10.59,24.8a5.63,5.63,0,0,1-.76,5.7l-8.77,11.1a5.65,5.65,0,0,1-4.42,2.14H399.87a5.56,5.56,0,0,1-2.76-.73l-25.74-14.52a5.61,5.61,0,0,1-2.74-3.77L362.69,369a5.71,5.71,0,0,1,.16-2.87l9.53-29.41A5.63,5.63,0,0,1,377.73,332.82Z" transform="translate(0.5 0.5)"/><path class="cls-2" d="M456.53,343.53a7.32,7.32,0,0,1,7-4.12l76.19,7.44c2.34.26,2.19,4.23.34,5.69l-11.17,7.67a17.09,17.09,0,0,0-5.66,7.58L516,390.1a17.94,17.94,0,0,1-5.59,7.69l-52.33,37.85a8.21,8.21,0,0,1-8.33.35l-10.08-6.09a5,5,0,0,1-1.72-6.87l8.33-13.92a13.29,13.29,0,0,0,1.2-9.1l-4.63-16.41a16.59,16.59,0,0,1,.61-9.41Z" transform="translate(0.5 0.5)"/><path class="cls-3" d="M456.53,343.53a7.32,7.32,0,0,1,7-4.12l76.19,7.44c2.34.26,2.19,4.23.34,5.69l-11.17,7.67a17.09,17.09,0,0,0-5.66,7.58L516,390.1a17.94,17.94,0,0,1-5.59,7.69l-52.33,37.85a8.21,8.21,0,0,1-8.33.35l-10.08-6.09a5,5,0,0,1-1.72-6.87l8.33-13.92a13.29,13.29,0,0,0,1.2-9.1l-4.63-16.41a16.59,16.59,0,0,1,.61-9.41Z" transform="translate(0.5 0.5)"/><path class="cls-2" d="M310.64,353.07a4.82,4.82,0,0,0-4.53,5l-1,136.26c0,2.48,4.23,4.45,5.59,2.38l24.38-41.61a21.66,21.66,0,0,0,2.53-9.31v-16a7.92,7.92,0,0,1,4.66-6.82l3.86-1.51a7.87,7.87,0,0,0,4.66-6.81V398.25a15.26,15.26,0,0,0-3.32-8.74l-29-32.7A12.08,12.08,0,0,0,310.64,353.07Z" transform="translate(0.5 0.5)"/><path class="cls-3" d="M310.64,353.07a4.82,4.82,0,0,0-4.53,5l-1,136.26c0,2.48,4.23,4.45,5.59,2.38l24.38-41.61a21.66,21.66,0,0,0,2.53-9.31v-16a7.92,7.92,0,0,1,4.66-6.82l3.86-1.51a7.87,7.87,0,0,0,4.66-6.81V398.25a15.26,15.26,0,0,0-3.32-8.74l-29-32.7A12.08,12.08,0,0,0,310.64,353.07Z" transform="translate(0.5 0.5)"/><path class="cls-2" d="M365.62,421.89a5.31,5.31,0,0,1,7.11-1.34l49.79,32.37a6.92,6.92,0,0,1,2.67,7.48l-5,15.55a14.24,14.24,0,0,1-5.93,7.12l-103.72,55.4c-2.42,1.29-4.61.11-4.86-2.63l-.67-7.4a15.88,15.88,0,0,1,2.42-9.07l38.4-54.68a32.81,32.81,0,0,0,4.13-8.93l3.61-14a32.15,32.15,0,0,1,4.16-8.9Z" transform="translate(0.5 0.5)"/><path class="cls-3" d="M365.62,421.89a5.31,5.31,0,0,1,7.11-1.34l49.79,32.37a6.92,6.92,0,0,1,2.67,7.48l-5,15.55a14.24,14.24,0,0,1-5.93,7.12l-103.72,55.4c-2.42,1.29-4.61.11-4.86-2.63l-.67-7.4a15.88,15.88,0,0,1,2.42-9.07l38.4-54.68a32.81,32.81,0,0,0,4.13-8.93l3.61-14a32.15,32.15,0,0,1,4.16-8.9Z" transform="translate(0.5 0.5)"/><path class="cls-2" d="M336.18,547.52c-2.1-.07-3.87-4.78-2.13-5.95L411.9,492.2c2.62-1.65,6.86,2.91,5.86,5.84L398.14,543a8.29,8.29,0,0,1-7,4.58Z" transform="translate(0.5 0.5)"/><path class="cls-3" d="M336.18,547.52c-2.1-.07-3.87-4.78-2.13-5.95L411.9,492.2c2.62-1.65,6.86,2.91,5.86,5.84L398.14,543a8.29,8.29,0,0,1-7,4.58Z" transform="translate(0.5 0.5)"/><path class="cls-2" d="M436.36,489.58,411.42,537c-1.95,4.21.06,10,4.7,10.13l160.73,2.28a6.46,6.46,0,0,0,4.78-2l13.12-13.68a6.44,6.44,0,0,0-2.67-10.58l-103-33.25a5.94,5.94,0,0,0-1.44-.29l-44.92-3.75A6.45,6.45,0,0,0,436.36,489.58Z" transform="translate(0.5 0.5)"/><path class="cls-3" d="M436.36,489.58,411.42,537c-1.95,4.21.06,10,4.7,10.13l160.73,2.28a6.46,6.46,0,0,0,4.78-2l13.12-13.68a6.44,6.44,0,0,0-2.67-10.58l-103-33.25a5.94,5.94,0,0,0-1.44-.29l-44.92-3.75A6.45,6.45,0,0,0,436.36,489.58Z" transform="translate(0.5 0.5)"/><rect class="cls-2" x="746.18" y="725.79" width="51.93" height="19.93" rx="5"/><rect class="cls-3" x="746.18" y="725.79" width="51.93" height="19.93" rx="5"/><rect class="cls-2" x="746.18" y="630.64" width="14" height="87.11" rx="2"/><rect class="cls-3" x="746.18" y="630.64" width="14" height="87.11" rx="2"/><path class="cls-2" d="M637,760.3a2.3,2.3,0,0,0-2.17,2.05L631,806.82c0,8.7,3.06,14.75,11.75,14.75h50.75a2,2,0,0,0,2-2l-2.89-251.29c0-.56-.74-.39-1.73.11a13.06,13.06,0,0,0-6.56,7.91l-3.67,11.88a10.68,10.68,0,0,1-7.37,7.19c-6.39,1.75-15.94,3.37-17.84,1.32l-28.06-30.28a8.76,8.76,0,0,0-4.89-2.67l-10.27-1.81a2.75,2.75,0,0,0-3.23,2.71v8.54a2.29,2.29,0,0,0,2,2.22l10.49,1.16a7.48,7.48,0,0,1,3.48,1.55l52.86,46.79a13.21,13.21,0,0,1,4.45,9.92L682,757a2.08,2.08,0,0,1-2,2.05Z" transform="translate(0.5 0.5)"/><path class="cls-3" d="M637,760.3a2.3,2.3,0,0,0-2.17,2.05L631,806.82c0,8.7,3.06,14.75,11.75,14.75h50.75a2,2,0,0,0,2-2l-2.89-251.29c0-.56-.74-.39-1.73.11a13.06,13.06,0,0,0-6.56,7.91l-3.67,11.88a10.68,10.68,0,0,1-7.37,7.19c-6.39,1.75-15.94,3.37-17.84,1.32l-28.06-30.28a8.76,8.76,0,0,0-4.89-2.67l-10.27-1.81a2.75,2.75,0,0,0-3.23,2.71v8.54a2.29,2.29,0,0,0,2,2.22l10.49,1.16a7.48,7.48,0,0,1,3.48,1.55l52.86,46.79a13.21,13.21,0,0,1,4.45,9.92L682,757a2.08,2.08,0,0,1-2,2.05Z" transform="translate(0.5 0.5)"/><path class="cls-2" d="M690.29,554.59a1.05,1.05,0,0,1,.37,2l-10.07,8.65a8.16,8.16,0,0,0-2.12,3.21l-5,15.93c-4.39,8.32-9.4,9.37-16.5,3.18L634.4,563.35a16,16,0,0,0-3.1-2.46l-8.1-4.65a1.35,1.35,0,0,1-.24-2.32l16.94-15a3.77,3.77,0,0,1,3.38-.67Z" transform="translate(0.5 0.5)"/><path class="cls-3" d="M690.29,554.59a1.05,1.05,0,0,1,.37,2l-10.07,8.65a8.16,8.16,0,0,0-2.12,3.21l-5,15.93c-4.39,8.32-9.4,9.37-16.5,3.18L634.4,563.35a16,16,0,0,0-3.1-2.46l-8.1-4.65a1.35,1.35,0,0,1-.24-2.32l16.94-15a3.77,3.77,0,0,1,3.38-.67Z" transform="translate(0.5 0.5)"/><path class="cls-2" d="M905.93,716.86a2,2,0,0,1-2,2H886.71a2,2,0,0,1-2-2V655a1.11,1.11,0,0,1,1.77-1.06l17.68,9.38a3.65,3.65,0,0,1,1.77,2.93Z" transform="translate(0.5 0.5)"/><path class="cls-3" d="M905.93,716.86a2,2,0,0,1-2,2H886.71a2,2,0,0,1-2-2V655a1.11,1.11,0,0,1,1.77-1.06l17.68,9.38a3.65,3.65,0,0,1,1.77,2.93Z" transform="translate(0.5 0.5)"/><path class="cls-2" d="M703.82,509.93a2,2,0,0,0-2,2v30.71a2.88,2.88,0,0,0,1.91,2.59l27.36,8.46a1.39,1.39,0,0,0,1.91-1.4V538.93a2,2,0,0,1,2-2l121.36-1.25a2,2,0,0,1,2,2V573.5a2,2,0,0,0,2,2H870.5a3.15,3.15,0,0,0,2.72-1.87l5.31-13.75c6.53-11.48,15.53-17.59,27.57-23l7.8-2.28a2.81,2.81,0,0,0,1.92-2.55V511.93a2,2,0,0,0-2-2Z" transform="translate(0.5 0.5)"/><path class="cls-3" d="M703.82,509.93a2,2,0,0,0-2,2v30.71a2.88,2.88,0,0,0,1.91,2.59l27.36,8.46a1.39,1.39,0,0,0,1.91-1.4V538.93a2,2,0,0,1,2-2l121.36-1.25a2,2,0,0,1,2,2V573.5a2,2,0,0,0,2,2H870.5a3.15,3.15,0,0,0,2.72-1.87l5.31-13.75c6.53-11.48,15.53-17.59,27.57-23l7.8-2.28a2.81,2.81,0,0,0,1.92-2.55V511.93a2,2,0,0,0-2-2Z" transform="translate(0.5 0.5)"/><circle class="cls-4" cx="616.34" cy="813.05" r="6.91"/><path class="cls-2" d="M272.57,559.43a2,2,0,0,0-2,2V611a1.79,1.79,0,0,0,2,1.81l32.88-3a8.15,8.15,0,0,0,3.56-1.43l9.29-7.37a4.74,4.74,0,0,0,1.57-3.25V570.86a5.79,5.79,0,0,0-1.38-3.45l-6.24-6.53a5.35,5.35,0,0,0-3.38-1.45Z" transform="translate(0.5 0.5)"/><path class="cls-3" d="M272.57,559.43a2,2,0,0,0-2,2V611a1.79,1.79,0,0,0,2,1.81l32.88-3a8.15,8.15,0,0,0,3.56-1.43l9.29-7.37a4.74,4.74,0,0,0,1.57-3.25V570.86a5.79,5.79,0,0,0-1.38-3.45l-6.24-6.53a5.35,5.35,0,0,0-3.38-1.45Z" transform="translate(0.5 0.5)"/><path class="cls-2" d="M41.36,608.52a10.28,10.28,0,0,1,.79-12.39l3.27-3.54c3-3.23,5.44-2.28,5.44,2.12v19.15c0,4.4-2.09,5.06-4.64,1.48Z" transform="translate(0.5 0.5)"/><path class="cls-3" d="M41.36,608.52a10.28,10.28,0,0,1,.79-12.39l3.27-3.54c3-3.23,5.44-2.28,5.44,2.12v19.15c0,4.4-2.09,5.06-4.64,1.48Z" transform="translate(0.5 0.5)"/><path class="cls-2" d="M9.89,600.29c-.64-2.67.75-3.9,3.11-2.72a7.44,7.44,0,0,1,3.66,7.11l-1,8a1.37,1.37,0,0,1-2.7.15Z" transform="translate(0.5 0.5)"/><path class="cls-3" d="M9.89,600.29c-.64-2.67.75-3.9,3.11-2.72a7.44,7.44,0,0,1,3.66,7.11l-1,8a1.37,1.37,0,0,1-2.7.15Z" transform="translate(0.5 0.5)"/><path class="cls-2" d="M60.43,589.86a2,2,0,0,0-2,2v26a2,2,0,0,0,2,2h38a3.4,3.4,0,0,0,2.83-1.82l1.41-3.1a22.16,22.16,0,0,0-.68-19.83l-1.89-3.5a3.74,3.74,0,0,0-3-1.75Z" transform="translate(0.5 0.5)"/><path class="cls-3" d="M60.43,589.86a2,2,0,0,0-2,2v26a2,2,0,0,0,2,2h38a3.4,3.4,0,0,0,2.83-1.82l1.41-3.1a22.16,22.16,0,0,0-.68-19.83l-1.89-3.5a3.74,3.74,0,0,0-3-1.75Z" transform="translate(0.5 0.5)"/><path class="cls-2" d="M38.29,446.47c.94-.57,1.71-.14,1.71,1v91.39a2,2,0,0,1-2,2H35.14a2.26,2.26,0,0,1-2.2-2l-7.15-71.7a19.65,19.65,0,0,1,9.3-18.7Z" transform="translate(0.5 0.5)"/><path class="cls-3" d="M38.29,446.47c.94-.57,1.71-.14,1.71,1v91.39a2,2,0,0,1-2,2H35.14a2.26,2.26,0,0,1-2.2-2l-7.15-71.7a19.65,19.65,0,0,1,9.3-18.7Z" transform="translate(0.5 0.5)"/><path class="cls-4" d="M1,473.29,12.81,550a7.68,7.68,0,0,1-6.58,8.78L1,559.43Z" transform="translate(0.5 0.5)"/><path class="cls-2" d="M11.9,671.43c0-2.75,1.51-3.34,3.36-1.3l10.86,12a6.83,6.83,0,0,1,.63,7.89L14.63,708.53c-1.5,2.3-2.73,1.93-2.73-.82Z" transform="translate(0.5 0.5)"/><path class="cls-3" d="M11.9,671.43c0-2.75,1.51-3.34,3.36-1.3l10.86,12a6.83,6.83,0,0,1,.63,7.89L14.63,708.53c-1.5,2.3-2.73,1.93-2.73-.82Z" transform="translate(0.5 0.5)"/><path class="cls-2" d="M11.67,725.54a16.86,16.86,0,0,0-2.77,9l2.57,70.62c.22,4.09,7,5.17,10.16,2.54l37-34.83a24.08,24.08,0,0,0,6.48-24.7l-12.46-40a19.27,19.27,0,0,0-6.44-9.35l-5.55-4.37a4.8,4.8,0,0,0-6.88.94Z" transform="translate(0.5 0.5)"/><path class="cls-3" d="M11.67,725.54a16.86,16.86,0,0,0-2.77,9l2.57,70.62c.22,4.09,7,5.17,10.16,2.54l37-34.83a24.08,24.08,0,0,0,6.48-24.7l-12.46-40a19.27,19.27,0,0,0-6.44-9.35l-5.55-4.37a4.8,4.8,0,0,0-6.88.94Z" transform="translate(0.5 0.5)"/><path class="cls-2" d="M12.44,648.67a4.63,4.63,0,0,0-.16,6.83l16.87,16.57a5.85,5.85,0,0,0,7.49.41L65.22,650c2.16-1.7,1.87-4-.64-5.13l-9.16-4.07a23,23,0,0,0-9.54-1.61l-20.21,1.72A17.54,17.54,0,0,0,17,644.62Z" transform="translate(0.5 0.5)"/><path class="cls-3" d="M12.44,648.67a4.63,4.63,0,0,0-.16,6.83l16.87,16.57a5.85,5.85,0,0,0,7.49.41L65.22,650c2.16-1.7,1.87-4-.64-5.13l-9.16-4.07a23,23,0,0,0-9.54-1.61l-20.21,1.72A17.54,17.54,0,0,0,17,644.62Z" transform="translate(0.5 0.5)"/><path class="cls-2" d="M42.09,678.18a4.53,4.53,0,0,0-.25,6.76L69,711.77c2,1.93,4.38,1.42,5.38-1.14l19.5-49.83a3.61,3.61,0,0,0-3.15-5.17l-14.91-1.54a13.33,13.33,0,0,0-8.77,2.73Z" transform="translate(0.5 0.5)"/><path class="cls-3" d="M42.09,678.18a4.53,4.53,0,0,0-.25,6.76L69,711.77c2,1.93,4.38,1.42,5.38-1.14l19.5-49.83a3.61,3.61,0,0,0-3.15-5.17l-14.91-1.54a13.33,13.33,0,0,0-8.77,2.73Z" transform="translate(0.5 0.5)"/><path class="cls-2" d="M41.36,823.22l86.27,2a9,9,0,0,0,8.76-11.74L127.17,785a10,10,0,0,0-9.83-6.92l-25.23.77a14.93,14.93,0,0,0-8.94,3L40.11,814.08C37.73,816.2,38.17,823.14,41.36,823.22Z" transform="translate(0.5 0.5)"/><path class="cls-3" d="M41.36,823.22l86.27,2a9,9,0,0,0,8.76-11.74L127.17,785a10,10,0,0,0-9.83-6.92l-25.23.77a14.93,14.93,0,0,0-8.94,3L40.11,814.08C37.73,816.2,38.17,823.14,41.36,823.22Z" transform="translate(0.5 0.5)"/><path class="cls-2" d="M139.93,784.94l7.41,33.18a6.35,6.35,0,0,0,6.09,4.75l27.29-.74c2.75-.07,3.54-1.85,1.76-3.94l-27.66-32.61C150.7,781.39,138.67,779.2,139.93,784.94Z" transform="translate(0.5 0.5)"/><path class="cls-3" d="M139.93,784.94l7.41,33.18a6.35,6.35,0,0,0,6.09,4.75l27.29-.74c2.75-.07,3.54-1.85,1.76-3.94l-27.66-32.61C150.7,781.39,138.67,779.2,139.93,784.94Z" transform="translate(0.5 0.5)"/><path class="cls-2" d="M181,776.25l43,1.64a3.8,3.8,0,0,1,3.68,5l-8.28,30.28c-3.31,8.47-16.18,7.82-22.71,1.49l-22.08-27.4C169.12,781.36,173,776.73,181,776.25Z" transform="translate(0.5 0.5)"/><path class="cls-3" d="M181,776.25l43,1.64a3.8,3.8,0,0,1,3.68,5l-8.28,30.28c-3.31,8.47-16.18,7.82-22.71,1.49l-22.08-27.4C169.12,781.36,173,776.73,181,776.25Z" transform="translate(0.5 0.5)"/><path class="cls-2" d="M241.78,810.64a5,5,0,0,1,5-5H360.64c2.75,0,3.56,1.73,1.8,3.84l-16.13,19.34a12.35,12.35,0,0,1-8.2,3.89l-91.33.9a5,5,0,0,1-5-5Z" transform="translate(0.5 0.5)"/><path class="cls-3" d="M241.78,810.64a5,5,0,0,1,5-5H360.64c2.75,0,3.56,1.73,1.8,3.84l-16.13,19.34a12.35,12.35,0,0,1-8.2,3.89l-91.33.9a5,5,0,0,1-5-5Z" transform="translate(0.5 0.5)"/><path class="cls-2" d="M130.89,577.5a3,3,0,0,1,1.9-2.64l10.67-3.63a1.35,1.35,0,0,1,1.9,1.36v30.27a2,2,0,0,1-2,2H132.89a2,2,0,0,1-2-2Z" transform="translate(0.5 0.5)"/><path class="cls-3" d="M130.89,577.5a3,3,0,0,1,1.9-2.64l10.67-3.63a1.35,1.35,0,0,1,1.9,1.36v30.27a2,2,0,0,1-2,2H132.89a2,2,0,0,1-2-2Z" transform="translate(0.5 0.5)"/><path class="cls-2" d="M239.78,766.32a2,2,0,0,0,2-2V747.21a2,2,0,0,0-2-2H223.53a2,2,0,0,1-2-2v-28.5a2,2,0,0,0-2-2h-17a2,2,0,0,0-2,2V748.3a2,2,0,0,1-2,2H174a2,2,0,0,0-2,2v13a2,2,0,0,0,2,2Z" transform="translate(0.5 0.5)"/><path class="cls-3" d="M239.78,766.32a2,2,0,0,0,2-2V747.21a2,2,0,0,0-2-2H223.53a2,2,0,0,1-2-2v-28.5a2,2,0,0,0-2-2h-17a2,2,0,0,0-2,2V748.3a2,2,0,0,1-2,2H174a2,2,0,0,0-2,2v13a2,2,0,0,0,2,2Z" transform="translate(0.5 0.5)"/><path class="cls-2" d="M161.78,509a1.92,1.92,0,0,1,2-1.93L287,510.87a2.08,2.08,0,0,1,2,2.06v28.78a2,2,0,0,1-2,2l-123.21-1.83a2,2,0,0,1-2-2Z" transform="translate(0.5 0.5)"/><path class="cls-3" d="M161.78,509a1.92,1.92,0,0,1,2-1.93L287,510.87a2.08,2.08,0,0,1,2,2.06v28.78a2,2,0,0,1-2,2l-123.21-1.83a2,2,0,0,1-2-2Z" transform="translate(0.5 0.5)"/><path class="cls-2" d="M470.27,467.09a1.6,1.6,0,0,1-.91-2.38l21.18-37.64a5.53,5.53,0,0,1,2.91-2.28l23.14-6.43a4.44,4.44,0,0,0,2.64-2.4l15-39.27a6.16,6.16,0,0,1,2.48-2.79L574.6,354a9.69,9.69,0,0,1,3.77-.93h16.17a2,2,0,0,1,2,2V507.93a1.35,1.35,0,0,1-1.89,1.36Z" transform="translate(0.5 0.5)"/><path class="cls-3" d="M470.27,467.09a1.6,1.6,0,0,1-.91-2.38l21.18-37.64a5.53,5.53,0,0,1,2.91-2.28l23.14-6.43a4.44,4.44,0,0,0,2.64-2.4l15-39.27a6.16,6.16,0,0,1,2.48-2.79L574.6,354a9.69,9.69,0,0,1,3.77-.93h16.17a2,2,0,0,1,2,2V507.93a1.35,1.35,0,0,1-1.89,1.36Z" transform="translate(0.5 0.5)"/><path class="cls-2" d="M484.61,304.47a1.28,1.28,0,0,1,1.28-1.86h71.86c1.1,0,1.51.75.91,1.68l-14.86,23a3.85,3.85,0,0,1-3.08,1.59l-45.51-2.06a3.36,3.36,0,0,1-2.72-2Z" transform="translate(0.5 0.5)"/><path class="cls-3" d="M484.61,304.47a1.28,1.28,0,0,1,1.28-1.86h71.86c1.1,0,1.51.75.91,1.68l-14.86,23a3.85,3.85,0,0,1-3.08,1.59l-45.51-2.06a3.36,3.36,0,0,1-2.72-2Z" transform="translate(0.5 0.5)"/><path class="cls-2" d="M613.61,350.5a4.92,4.92,0,0,0-4.92,5l2.4,139.5a5.13,5.13,0,0,0,5.09,5h6.39a5,5,0,0,0,5-5V355.5a5,5,0,0,0-5-5Z" transform="translate(0.5 0.5)"/><path class="cls-3" d="M613.61,350.5a4.92,4.92,0,0,0-4.92,5l2.4,139.5a5.13,5.13,0,0,0,5.09,5h6.39a5,5,0,0,0,5-5V355.5a5,5,0,0,0-5-5Z" transform="translate(0.5 0.5)"/><path class="cls-2" d="M582.25,215.57c0-1.1.49-1.24,1.08-.31L607.53,253a8.1,8.1,0,0,1,1.08,3.68v8.86a2.72,2.72,0,0,1-1.94,2.49l-14.12,3.53a20.11,20.11,0,0,1-3.94.48h-4.36a2,2,0,0,1-2-2Z" transform="translate(0.5 0.5)"/><path class="cls-3" d="M582.25,215.57c0-1.1.49-1.24,1.08-.31L607.53,253a8.1,8.1,0,0,1,1.08,3.68v8.86a2.72,2.72,0,0,1-1.94,2.49l-14.12,3.53a20.11,20.11,0,0,1-3.94.48h-4.36a2,2,0,0,1-2-2Z" transform="translate(0.5 0.5)"/><path class="cls-2" d="M619.94,258.68a1.25,1.25,0,0,0-1.85,1.25v3.71a1.25,1.25,0,0,0,1.85,1.25l5.78-2.35c1-.42,1-1.09,0-1.51Z" transform="translate(0.5 0.5)"/><path class="cls-3" d="M619.94,258.68a1.25,1.25,0,0,0-1.85,1.25v3.71a1.25,1.25,0,0,0,1.85,1.25l5.78-2.35c1-.42,1-1.09,0-1.51Z" transform="translate(0.5 0.5)"/><path class="cls-2" d="M620.84,296.15a1.25,1.25,0,0,0-1.85,1.24v3.72a1.25,1.25,0,0,0,1.85,1.24l5.78-2.35c1-.41,1-1.09,0-1.5Z" transform="translate(0.5 0.5)"/><path class="cls-3" d="M620.84,296.15a1.25,1.25,0,0,0-1.85,1.24v3.72a1.25,1.25,0,0,0,1.85,1.24l5.78-2.35c1-.41,1-1.09,0-1.5Z" transform="translate(0.5 0.5)"/><path class="cls-2" d="M607.62,275.15a1.25,1.25,0,0,1,1.85,1.24v3.72a1.25,1.25,0,0,1-1.85,1.24L601.84,279c-1-.41-1-1.09,0-1.5Z" transform="translate(0.5 0.5)"/><path class="cls-3" d="M607.62,275.15a1.25,1.25,0,0,1,1.85,1.24v3.72a1.25,1.25,0,0,1-1.85,1.24L601.84,279c-1-.41-1-1.09,0-1.5Z" transform="translate(0.5 0.5)"/><path class="cls-2" d="M590.43,279.89a1.26,1.26,0,0,1,2.24,0l4.22,6.45a7.16,7.16,0,0,0,3,2.37l6.87,2.56a1.29,1.29,0,0,1,.56,2.2L589,314.28a1.92,1.92,0,0,1-2.77.14l-10.59-9.94a2.39,2.39,0,0,1-.31-3Z" transform="translate(0.5 0.5)"/><path class="cls-3" d="M590.43,279.89a1.26,1.26,0,0,1,2.24,0l4.22,6.45a7.16,7.16,0,0,0,3,2.37l6.87,2.56a1.29,1.29,0,0,1,.56,2.2L589,314.28a1.92,1.92,0,0,1-2.77.14l-10.59-9.94a2.39,2.39,0,0,1-.31-3Z" transform="translate(0.5 0.5)"/><path class="cls-2" d="M321.77,613.35a2.85,2.85,0,0,0-1.91,2.57v12.22a2,2,0,0,0,2,2h60.07a2,2,0,0,0,2-2V615a2.76,2.76,0,0,0-1.93-2.52l-15.54-4.23a52.72,52.72,0,0,0-29,.38Z" transform="translate(0.5 0.5)"/><path class="cls-3" d="M321.77,613.35a2.85,2.85,0,0,0-1.91,2.57v12.22a2,2,0,0,0,2,2h60.07a2,2,0,0,0,2-2V615a2.76,2.76,0,0,0-1.93-2.52l-15.54-4.23a52.72,52.72,0,0,0-29,.38Z" transform="translate(0.5 0.5)"/><path class="cls-2" d="M344.07,686.43a2,2,0,0,1,2-2h35.86a2,2,0,0,1,2,2v24.28a2,2,0,0,1-2,2h-24a2,2,0,0,0-2,2l.31,23.29a9.94,9.94,0,0,0,.95,3.78l3.63,7a6.35,6.35,0,0,1-5.64,9.27h-9.13a2,2,0,0,1-2-2Z" transform="translate(0.5 0.5)"/><path class="cls-3" d="M344.07,686.43a2,2,0,0,1,2-2h35.86a2,2,0,0,1,2,2v24.28a2,2,0,0,1-2,2h-24a2,2,0,0,0-2,2l.31,23.29a9.94,9.94,0,0,0,.95,3.78l3.63,7a6.35,6.35,0,0,1-5.64,9.27h-9.13a2,2,0,0,1-2-2Z" transform="translate(0.5 0.5)"/><path class="cls-2" d="M369.14,723.25a2,2,0,0,1,2-2h10.79a2,2,0,0,1,2,2v11.61a6.58,6.58,0,0,1-1.26,3.55l-5.79,7.18a1.66,1.66,0,0,1-2.6.07l-3.79-4.18a6,6,0,0,1-1.35-3.48Z" transform="translate(0.5 0.5)"/><path class="cls-3" d="M369.14,723.25a2,2,0,0,1,2-2h10.79a2,2,0,0,1,2,2v11.61a6.58,6.58,0,0,1-1.26,3.55l-5.79,7.18a1.66,1.66,0,0,1-2.6.07l-3.79-4.18a6,6,0,0,1-1.35-3.48Z" transform="translate(0.5 0.5)"/><path class="cls-2" d="M643.27,511.65a3.89,3.89,0,0,1,3-1.72h43.89a2,2,0,0,1,2,2v28.78a1.44,1.44,0,0,1-1.92,1.46l-53.69-15.3a1.47,1.47,0,0,1-.91-2.27Z" transform="translate(0.5 0.5)"/><path class="cls-3" d="M643.27,511.65a3.89,3.89,0,0,1,3-1.72h43.89a2,2,0,0,1,2,2v28.78a1.44,1.44,0,0,1-1.92,1.46l-53.69-15.3a1.47,1.47,0,0,1-.91-2.27Z" transform="translate(0.5 0.5)"/><path class="cls-2" d="M707.93,568.82a1.26,1.26,0,0,1,1.86-1.26l18.14,7.2a3.2,3.2,0,0,1,1.86,2.74V583a2,2,0,0,1-2,2H709.93a2,2,0,0,1-2-2Z" transform="translate(0.5 0.5)"/><path class="cls-3" d="M707.93,568.82a1.26,1.26,0,0,1,1.86-1.26l18.14,7.2a3.2,3.2,0,0,1,1.86,2.74V583a2,2,0,0,1-2,2H709.93a2,2,0,0,1-2-2Z" transform="translate(0.5 0.5)"/><path class="cls-2" d="M247.43,575.14a2,2,0,0,1,2-2H257a2,2,0,0,1,2,2v44.43a2,2,0,0,0,2,2h14a2,2,0,0,1,2,2v4.57a2,2,0,0,1-2,2H249.43a2,2,0,0,1-2-2Z" transform="translate(0.5 0.5)"/><path class="cls-3" d="M247.43,575.14a2,2,0,0,1,2-2H257a2,2,0,0,1,2,2v44.43a2,2,0,0,0,2,2h14a2,2,0,0,1,2,2v4.57a2,2,0,0,1-2,2H249.43a2,2,0,0,1-2-2Z" transform="translate(0.5 0.5)"/><path class="cls-2" d="M959.47,278.92l-5.93,4.94a9.46,9.46,0,0,0-2.29,3.14l-9.7,24.11c-9.5,14.06-10.71,16.24-27.58,18.08L846.43,333a5.83,5.83,0,0,1-3.53-1.18l-21.37-18a4.91,4.91,0,0,1-1.53-3.29V243.86a2,2,0,0,1,2-2H925.11a7,7,0,0,1,3.59,1.2l30.45,23A8.22,8.22,0,0,1,959.47,278.92Z" transform="translate(0.5 0.5)"/><path class="cls-3" d="M959.47,278.92l-5.93,4.94a9.46,9.46,0,0,0-2.29,3.14l-9.7,24.11c-9.5,14.06-10.71,16.24-27.58,18.08L846.43,333a5.83,5.83,0,0,1-3.53-1.18l-21.37-18a4.91,4.91,0,0,1-1.53-3.29V243.86a2,2,0,0,1,2-2H925.11a7,7,0,0,1,3.59,1.2l30.45,23A8.22,8.22,0,0,1,959.47,278.92Z" transform="translate(0.5 0.5)"/><rect class="cls-2" x="254.79" y="662.79" width="18.86" height="19.29" rx="2"/><rect class="cls-3" x="254.79" y="662.79" width="18.86" height="19.29" rx="2"/><rect class="cls-2" x="811.07" y="601.07" width="16.29" height="18.43" rx="2"/><rect class="cls-3" x="811.07" y="601.07" width="16.29" height="18.43" rx="2"/><path class="cls-2" d="M848.71,635.46a1.15,1.15,0,0,1,0-2.11l8-5.13a2.48,2.48,0,0,1,3,.4l18.08,19.76a4,4,0,0,1,.83,3.41l-.67,2.42a2.76,2.76,0,0,1-2.52,1.93H861.86a2.26,2.26,0,0,1-2.2-2l-1.1-10.87a4.53,4.53,0,0,0-1.91-3Z" transform="translate(0.5 0.5)"/><path class="cls-3" d="M848.71,635.46a1.15,1.15,0,0,1,0-2.11l8-5.13a2.48,2.48,0,0,1,3,.4l18.08,19.76a4,4,0,0,1,.83,3.41l-.67,2.42a2.76,2.76,0,0,1-2.52,1.93H861.86a2.26,2.26,0,0,1-2.2-2l-1.1-10.87a4.53,4.53,0,0,0-1.91-3Z" transform="translate(0.5 0.5)"/><rect class="cls-2" x="837.21" y="647.36" width="15" height="9.86" rx="2"/><rect class="cls-3" x="837.21" y="647.36" width="15" height="9.86" rx="2"/><path class="cls-2" d="M914.59,655c-1.35-1.74-2.45-1.36-2.45.84V657a5.84,5.84,0,0,0,3.81,5.21l1.81.58c2.1.66,2.71-.21,1.37-2Z" transform="translate(0.5 0.5)"/><path class="cls-3" d="M914.59,655c-1.35-1.74-2.45-1.36-2.45.84V657a5.84,5.84,0,0,0,3.81,5.21l1.81.58c2.1.66,2.71-.21,1.37-2Z" transform="translate(0.5 0.5)"/><rect class="cls-2" x="939.64" y="678.21" width="12.16" height="20.14" rx="3.5"/><rect class="cls-3" x="939.64" y="678.21" width="12.16" height="20.14" rx="3.5"/><path class="cls-2" d="M935,734.69a4.76,4.76,0,0,1,2.5-4.93l59.38-27.85a2.06,2.06,0,0,1,3.17,2v5a6.35,6.35,0,0,1-3.1,5.11L940.1,743.6a2.47,2.47,0,0,1-3.77-1.82Z" transform="translate(0.5 0.5)"/><path class="cls-3" d="M935,734.69a4.76,4.76,0,0,1,2.5-4.93l59.38-27.85a2.06,2.06,0,0,1,3.17,2v5a6.35,6.35,0,0,1-3.1,5.11L940.1,743.6a2.47,2.47,0,0,1-3.77-1.82Z" transform="translate(0.5 0.5)"/><rect class="cls-2" x="807.21" y="725.79" width="12" height="19.93" rx="3"/><rect class="cls-3" x="807.21" y="725.79" width="12" height="19.93" rx="3"/><path class="cls-2" d="M892.21,753A3,3,0,0,1,894,749.1l12.81-4.77a2.82,2.82,0,0,1,3.7,1.82l14.35,46.55a2.1,2.1,0,0,1-2.12,2.87H911.42a4.7,4.7,0,0,1-4.07-2.8Z" transform="translate(0.5 0.5)"/><path class="cls-3" d="M892.21,753A3,3,0,0,1,894,749.1l12.81-4.77a2.82,2.82,0,0,1,3.7,1.82l14.35,46.55a2.1,2.1,0,0,1-2.12,2.87H911.42a4.7,4.7,0,0,1-4.07-2.8Z" transform="translate(0.5 0.5)"/><path class="cls-2" d="M832.43,742a3,3,0,0,1,3-3h24.91a3,3,0,0,1,2.95,3l-.17,9a3.07,3.07,0,0,1-3,3H835.43a3,3,0,0,1-3-3Z" transform="translate(0.5 0.5)"/><path class="cls-3" d="M832.43,742a3,3,0,0,1,3-3h24.91a3,3,0,0,1,2.95,3l-.17,9a3.07,3.07,0,0,1-3,3H835.43a3,3,0,0,1-3-3Z" transform="translate(0.5 0.5)"/><rect class="cls-2" x="760.18" y="752.36" width="28.18" height="7.71" rx="3"/><rect class="cls-3" x="760.18" y="752.36" width="28.18" height="7.71" rx="3"/><rect class="cls-2" x="455.36" y="189.64" width="7.71" height="44.68" rx="3"/><rect class="cls-3" x="455.36" y="189.64" width="7.71" height="44.68" rx="3"/><path class="cls-2" d="M601.71,230.17a2,2,0,0,1,1.17-3.26l37.23-10.39a2.16,2.16,0,0,1,2.89,2.19V320.29a3,3,0,0,1-3,3H616.75a3,3,0,0,1-3-3v-1.5a5.83,5.83,0,0,1,2.59-4.53l16.36-9.63a5.84,5.84,0,0,0,2.59-4.52V290.5a3,3,0,0,0-3-3H618.57a3,3,0,0,1-3-3v-9.43a4.28,4.28,0,0,1,2.87-3.86l15.58-4.7a4.3,4.3,0,0,0,2.87-3.87v-7.5a3.84,3.84,0,0,0-2.94-3.6L616.69,248A8.72,8.72,0,0,1,612,245Z" transform="translate(0.5 0.5)"/><path class="cls-3" d="M601.71,230.17a2,2,0,0,1,1.17-3.26l37.23-10.39a2.16,2.16,0,0,1,2.89,2.19V320.29a3,3,0,0,1-3,3H616.75a3,3,0,0,1-3-3v-1.5a5.83,5.83,0,0,1,2.59-4.53l16.36-9.63a5.84,5.84,0,0,0,2.59-4.52V290.5a3,3,0,0,0-3-3H618.57a3,3,0,0,1-3-3v-9.43a4.28,4.28,0,0,1,2.87-3.86l15.58-4.7a4.3,4.3,0,0,0,2.87-3.87v-7.5a3.84,3.84,0,0,0-2.94-3.6L616.69,248A8.72,8.72,0,0,1,612,245Z" transform="translate(0.5 0.5)"/><rect class="cls-2" x="682.07" y="237.7" width="85.71" height="47.09" rx="3"/><rect class="cls-3" x="682.07" y="237.7" width="85.71" height="47.09" rx="3"/><rect class="cls-2" x="775.93" y="273.21" width="30.86" height="14.79" rx="3"/><rect class="cls-3" x="775.93" y="273.21" width="30.86" height="14.79" rx="3"/><path class="cls-2" d="M954.14,821.33a5,5,0,0,1,2.74-4.23l39.38-17.73a1.8,1.8,0,0,1,2.74,1.77v28.52a3,3,0,0,1-3,3H957.14a3,3,0,0,1-3-3Z" transform="translate(0.5 0.5)"/><path class="cls-3" d="M954.14,821.33a5,5,0,0,1,2.74-4.23l39.38-17.73a1.8,1.8,0,0,1,2.74,1.77v28.52a3,3,0,0,1-3,3H957.14a3,3,0,0,1-3-3Z" transform="translate(0.5 0.5)"/></svg>