<svg id="Layer_1" data-name="Layer 1" xmlns="http://www.w3.org/2000/svg" viewBox="0 0 327 305"><defs><style>.cls-1{fill:#8d9aab;}.cls-2{fill:#f3f9f7;}.cls-3{fill:#eeeff3;}</style></defs><polygon class="cls-1" points="77 305 28 305 28 288 17 288 12 282 5 275 0 267 0 258 0 247 0 235 0 226 8 220 19 213 25 213 28 172 18 172 17 158 16 0 115 0 115 87 94 87 98 152.5 226 152.5 226 0 320 0 327 121 291 123 291 187 294 305 77 305"/><rect class="cls-2" x="51" y="71" width="15" height="14"/><polygon class="cls-3" points="224 53 224 94 237 85 237 53 224 53"/><rect class="cls-3" x="89" y="183" width="8" height="20"/><rect class="cls-3" x="91" y="252" width="8" height="20"/><rect class="cls-3" x="233" y="183" width="8" height="20"/><rect class="cls-3" x="233" y="252" width="8" height="20"/><rect class="cls-3" x="139" y="219" width="50" height="16"/></svg>